<?xml version="1.0" standalone="no"?><!DOCTYPE svg PUBLIC "-//W3C//DTD SVG 1.1//EN" "http://www.w3.org/Graphics/SVG/1.1/DTD/svg11.dtd"><svg width="100%" height="100%" viewBox="0 0 900 900" style="background-color: rgb(1, 6, 37);" version="1.1" xmlns="http://www.w3.org/2000/svg" xmlns:xlink="http://www.w3.org/1999/xlink"><defs xmlns="http://www.w3.org/1999/xhtml"><style type="text/css"><![CDATA[]]></style></defs><defs><filter id="glow"><feGaussianBlur stdDeviation="5" result="coloredBlur"/><feMerge><feMergeNode in="coloredBlur"/><feMergeNode in="SourceGraphic"/></feMerge></filter></defs><g><path d="M60,25.358983848622458L90,42.67949192431123L90,77.32050807568876L60,94.64101615137754L30.000000000000007,77.32050807568878L29.99999999999999,42.67949192431125L59.99999999999999,25.358983848622458L89.99999999999999,42.679491924311215" style="fill: none; stroke: rgb(153, 153, 153);"/><path d="M120,25.358983848622458L150,42.67949192431123L150,77.32050807568876L120,94.64101615137754L90,77.32050807568878L89.99999999999999,42.67949192431125L120,25.358983848622458L150,42.679491924311215" style="fill: none; stroke: rgb(153, 153, 153);"/><path d="M180,25.358983848622458L210,42.67949192431123L210,77.32050807568876L180,94.64101615137754L150,77.32050807568878L150,42.67949192431125L180,25.358983848622458L210,42.679491924311215" style="fill: none; stroke: rgb(153, 153, 153);"/><path d="M240,25.358983848622458L270,42.67949192431123L270,77.32050807568876L240,94.64101615137754L210,77.32050807568878L210,42.67949192431125L240,25.358983848622458L270,42.679491924311215" style="fill: none; stroke: rgb(153, 153, 153);"/><path d="M300,25.358983848622458L330,42.67949192431123L330,77.32050807568876L300,94.64101615137754L270,77.32050807568878L270,42.67949192431125L300,25.358983848622458L330,42.679491924311215" style="fill: none; stroke: rgb(153, 153, 153);"/><path d="M360,25.358983848622458L390,42.67949192431123L390,77.32050807568876L360,94.64101615137754L330,77.32050807568878L330,42.67949192431125L360,25.358983848622458L390,42.679491924311215" style="fill: none; stroke: rgb(153, 153, 153);"/><path d="M420,25.358983848622458L450,42.67949192431123L450,77.32050807568876L420,94.64101615137754L390,77.32050807568878L390,42.67949192431125L420,25.358983848622458L450,42.679491924311215" style="fill: none; stroke: rgb(153, 153, 153);"/><path d="M480,25.358983848622458L510,42.67949192431123L510,77.32050807568876L480,94.64101615137754L450,77.32050807568878L450,42.67949192431125L480,25.358983848622458L510,42.679491924311215" style="fill: none; stroke: rgb(153, 153, 153);"/><path d="M540,25.358983848622458L570,42.67949192431123L570,77.32050807568876L540,94.64101615137754L510,77.32050807568878L510,42.67949192431125L540,25.358983848622458L570,42.679491924311215" style="fill: none; stroke: rgb(153, 153, 153);"/><path d="M600,25.358983848622458L630,42.67949192431123L630,77.32050807568876L600,94.64101615137754L570,77.32050807568878L570,42.67949192431125L600,25.358983848622458L630,42.679491924311215" style="fill: none; stroke: rgb(153, 153, 153);"/><path d="M660,25.358983848622458L690,42.67949192431123L690,77.32050807568876L660,94.64101615137754L630,77.32050807568878L630,42.67949192431125L660,25.358983848622458L690,42.679491924311215" style="fill: none; stroke: rgb(153, 153, 153);"/><path d="M720,25.358983848622458L750,42.67949192431123L750,77.32050807568876L720,94.64101615137754L690,77.32050807568878L690,42.67949192431125L720,25.358983848622458L750,42.679491924311215" style="fill: none; stroke: rgb(153, 153, 153);"/><path d="M780,25.358983848622458L810,42.67949192431123L810,77.32050807568876L780,94.64101615137754L750,77.32050807568878L750,42.67949192431125L780,25.358983848622458L810,42.679491924311215" style="fill: none; stroke: rgb(153, 153, 153);"/><path d="M90,77.32050807568878L120,94.64101615137756L120,129.28203230275508L90,146.60254037844385L60.00000000000001,129.2820323027551L59.999999999999986,94.64101615137757L90,77.32050807568878L119.99999999999999,94.64101615137753" style="fill: none; stroke: rgb(153, 153, 153);"/><path d="M150,77.32050807568878L180,94.64101615137756L180,129.28203230275508L150,146.60254037844385L120,129.2820323027551L119.99999999999999,94.64101615137757L150,77.32050807568878L180,94.64101615137753" style="fill: none; stroke: rgb(153, 153, 153);"/><path d="M210,77.32050807568878L240,94.64101615137756L240,129.28203230275508L210,146.60254037844385L180,129.2820323027551L180,94.64101615137757L210,77.32050807568878L240,94.64101615137753" style="fill: none; stroke: rgb(153, 153, 153);"/><path d="M270,77.32050807568878L300,94.64101615137756L300,129.28203230275508L270,146.60254037844385L240,129.2820323027551L240,94.64101615137757L270,77.32050807568878L300,94.64101615137753" style="fill: none; stroke: rgb(153, 153, 153);"/><path d="M330,77.32050807568878L360,94.64101615137756L360,129.28203230275508L330,146.60254037844385L300,129.2820323027551L300,94.64101615137757L330,77.32050807568878L360,94.64101615137753" style="fill: none; stroke: rgb(153, 153, 153);"/><path d="M390,77.32050807568878L420,94.64101615137756L420,129.28203230275508L390,146.60254037844385L360,129.2820323027551L360,94.64101615137757L390,77.32050807568878L420,94.64101615137753" style="fill: none; stroke: rgb(153, 153, 153);"/><path d="M450,77.32050807568878L480,94.64101615137756L480,129.28203230275508L450,146.60254037844385L420,129.2820323027551L420,94.64101615137757L450,77.32050807568878L480,94.64101615137753" style="fill: none; stroke: rgb(153, 153, 153);"/><path d="M510,77.32050807568878L540,94.64101615137756L540,129.28203230275508L510,146.60254037844385L480,129.2820323027551L480,94.64101615137757L510,77.32050807568878L540,94.64101615137753" style="fill: none; stroke: rgb(153, 153, 153);"/><path d="M570,77.32050807568878L600,94.64101615137756L600,129.28203230275508L570,146.60254037844385L540,129.2820323027551L540,94.64101615137757L570,77.32050807568878L600,94.64101615137753" style="fill: none; stroke: rgb(153, 153, 153);"/><path d="M630,77.32050807568878L660,94.64101615137756L660,129.28203230275508L630,146.60254037844385L600,129.2820323027551L600,94.64101615137757L630,77.32050807568878L660,94.64101615137753" style="fill: none; stroke: rgb(153, 153, 153);"/><path d="M690,77.32050807568878L720,94.64101615137756L720,129.28203230275508L690,146.60254037844385L660,129.2820323027551L660,94.64101615137757L690,77.32050807568878L720,94.64101615137753" style="fill: none; stroke: rgb(153, 153, 153);"/><path d="M750,77.32050807568878L780,94.64101615137756L780,129.28203230275508L750,146.60254037844385L720,129.2820323027551L720,94.64101615137757L750,77.32050807568878L780,94.64101615137753" style="fill: none; stroke: rgb(153, 153, 153);"/><path d="M810,77.32050807568878L840,94.64101615137756L840,129.28203230275508L810,146.60254037844385L780,129.2820323027551L780,94.64101615137757L810,77.32050807568878L840,94.64101615137753" style="fill: none; stroke: rgb(153, 153, 153);"/><path d="M60,129.2820323027551L90,146.60254037844388L90,181.2435565298214L60,198.56406460551017L30.000000000000007,181.24355652982143L29.99999999999999,146.6025403784439L59.99999999999999,129.2820323027551L89.99999999999999,146.60254037844385" style="fill: none; stroke: rgb(153, 153, 153);"/><path d="M120,129.2820323027551L150,146.60254037844388L150,181.2435565298214L120,198.56406460551017L90,181.24355652982143L89.99999999999999,146.6025403784439L120,129.2820323027551L150,146.60254037844385" style="fill: none; stroke: rgb(153, 153, 153);"/><path d="M180,129.2820323027551L210,146.60254037844388L210,181.2435565298214L180,198.56406460551017L150,181.24355652982143L150,146.6025403784439L180,129.2820323027551L210,146.60254037844385" style="fill: none; stroke: rgb(153, 153, 153);"/><path d="M240,129.2820323027551L270,146.60254037844388L270,181.2435565298214L240,198.56406460551017L210,181.24355652982143L210,146.6025403784439L240,129.2820323027551L270,146.60254037844385" style="fill: none; stroke: rgb(153, 153, 153);"/><path d="M300,129.2820323027551L330,146.60254037844388L330,181.2435565298214L300,198.56406460551017L270,181.24355652982143L270,146.6025403784439L300,129.2820323027551L330,146.60254037844385" style="fill: none; stroke: rgb(153, 153, 153);"/><path d="M360,129.2820323027551L390,146.60254037844388L390,181.2435565298214L360,198.56406460551017L330,181.24355652982143L330,146.6025403784439L360,129.2820323027551L390,146.60254037844385" style="fill: none; stroke: rgb(153, 153, 153);"/><path d="M420,129.2820323027551L450,146.60254037844388L450,181.2435565298214L420,198.56406460551017L390,181.24355652982143L390,146.6025403784439L420,129.2820323027551L450,146.60254037844385" style="fill: none; stroke: rgb(153, 153, 153);"/><path d="M480,129.2820323027551L510,146.60254037844388L510,181.2435565298214L480,198.56406460551017L450,181.24355652982143L450,146.6025403784439L480,129.2820323027551L510,146.60254037844385" style="fill: none; stroke: rgb(153, 153, 153);"/><path d="M540,129.2820323027551L570,146.60254037844388L570,181.2435565298214L540,198.56406460551017L510,181.24355652982143L510,146.6025403784439L540,129.2820323027551L570,146.60254037844385" style="fill: none; stroke: rgb(153, 153, 153);"/><path d="M600,129.2820323027551L630,146.60254037844388L630,181.2435565298214L600,198.56406460551017L570,181.24355652982143L570,146.6025403784439L600,129.2820323027551L630,146.60254037844385" style="fill: none; stroke: rgb(153, 153, 153);"/><path d="M660,129.2820323027551L690,146.60254037844388L690,181.2435565298214L660,198.56406460551017L630,181.24355652982143L630,146.6025403784439L660,129.2820323027551L690,146.60254037844385" style="fill: none; stroke: rgb(153, 153, 153);"/><path d="M720,129.2820323027551L750,146.60254037844388L750,181.2435565298214L720,198.56406460551017L690,181.24355652982143L690,146.6025403784439L720,129.2820323027551L750,146.60254037844385" style="fill: none; stroke: rgb(153, 153, 153);"/><path d="M780,129.2820323027551L810,146.60254037844388L810,181.2435565298214L780,198.56406460551017L750,181.24355652982143L750,146.6025403784439L780,129.2820323027551L810,146.60254037844385" style="fill: none; stroke: rgb(153, 153, 153);"/><path d="M90,181.24355652982143L120,198.5640646055102L120,233.20508075688772L90,250.5255888325765L60.00000000000001,233.20508075688775L59.999999999999986,198.56406460551023L90,181.24355652982143L119.99999999999999,198.56406460551017" style="fill: none; stroke: rgb(153, 153, 153);"/><path d="M150,181.24355652982143L180,198.5640646055102L180,233.20508075688772L150,250.5255888325765L120,233.20508075688775L119.99999999999999,198.56406460551023L150,181.24355652982143L180,198.56406460551017" style="fill: none; stroke: rgb(153, 153, 153);"/><path d="M210,181.24355652982143L240,198.5640646055102L240,233.20508075688772L210,250.5255888325765L180,233.20508075688775L180,198.56406460551023L210,181.24355652982143L240,198.56406460551017" style="fill: none; stroke: rgb(153, 153, 153);"/><path d="M270,181.24355652982143L300,198.5640646055102L300,233.20508075688772L270,250.5255888325765L240,233.20508075688775L240,198.56406460551023L270,181.24355652982143L300,198.56406460551017" style="fill: none; stroke: rgb(153, 153, 153);"/><path d="M330,181.24355652982143L360,198.5640646055102L360,233.20508075688772L330,250.5255888325765L300,233.20508075688775L300,198.56406460551023L330,181.24355652982143L360,198.56406460551017" style="fill: none; stroke: rgb(153, 153, 153);"/><path d="M390,181.24355652982143L420,198.5640646055102L420,233.20508075688772L390,250.5255888325765L360,233.20508075688775L360,198.56406460551023L390,181.24355652982143L420,198.56406460551017" style="fill: none; stroke: rgb(153, 153, 153);"/><path d="M450,181.24355652982143L480,198.5640646055102L480,233.20508075688772L450,250.5255888325765L420,233.20508075688775L420,198.56406460551023L450,181.24355652982143L480,198.56406460551017" style="fill: none; stroke: rgb(153, 153, 153);"/><path d="M510,181.24355652982143L540,198.5640646055102L540,233.20508075688772L510,250.5255888325765L480,233.20508075688775L480,198.56406460551023L510,181.24355652982143L540,198.56406460551017" style="fill: none; stroke: rgb(153, 153, 153);"/><path d="M570,181.24355652982143L600,198.5640646055102L600,233.20508075688772L570,250.5255888325765L540,233.20508075688775L540,198.56406460551023L570,181.24355652982143L600,198.56406460551017" style="fill: none; stroke: rgb(153, 153, 153);"/><path d="M630,181.24355652982143L660,198.5640646055102L660,233.20508075688772L630,250.5255888325765L600,233.20508075688775L600,198.56406460551023L630,181.24355652982143L660,198.56406460551017" style="fill: none; stroke: rgb(153, 153, 153);"/><path d="M690,181.24355652982143L720,198.5640646055102L720,233.20508075688772L690,250.5255888325765L660,233.20508075688775L660,198.56406460551023L690,181.24355652982143L720,198.56406460551017" style="fill: none; stroke: rgb(153, 153, 153);"/><path d="M750,181.24355652982143L780,198.5640646055102L780,233.20508075688772L750,250.5255888325765L720,233.20508075688775L720,198.56406460551023L750,181.24355652982143L780,198.56406460551017" style="fill: none; stroke: rgb(153, 153, 153);"/><path d="M810,181.24355652982143L840,198.5640646055102L840,233.20508075688772L810,250.5255888325765L780,233.20508075688775L780,198.56406460551023L810,181.24355652982143L840,198.56406460551017" style="fill: none; stroke: rgb(153, 153, 153);"/><path d="M60,233.20508075688775L90,250.52558883257652L90,285.166604983954L60,302.4871130596428L30.000000000000007,285.1666049839541L29.99999999999999,250.52558883257655L59.99999999999999,233.20508075688775L89.99999999999999,250.5255888325765" style="fill: none; stroke: rgb(153, 153, 153);"/><path d="M120,233.20508075688775L150,250.52558883257652L150,285.166604983954L120,302.4871130596428L90,285.1666049839541L89.99999999999999,250.52558883257655L120,233.20508075688775L150,250.5255888325765" style="fill: none; stroke: rgb(153, 153, 153);"/><path d="M180,233.20508075688775L210,250.52558883257652L210,285.166604983954L180,302.4871130596428L150,285.1666049839541L150,250.52558883257655L180,233.20508075688775L210,250.5255888325765" style="fill: none; stroke: rgb(153, 153, 153);"/><path d="M240,233.20508075688775L270,250.52558883257652L270,285.166604983954L240,302.4871130596428L210,285.1666049839541L210,250.52558883257655L240,233.20508075688775L270,250.5255888325765" style="fill: none; stroke: rgb(153, 153, 153);"/><path d="M300,233.20508075688775L330,250.52558883257652L330,285.166604983954L300,302.4871130596428L270,285.1666049839541L270,250.52558883257655L300,233.20508075688775L330,250.5255888325765" style="fill: none; stroke: rgb(153, 153, 153);"/><path d="M360,233.20508075688775L390,250.52558883257652L390,285.166604983954L360,302.4871130596428L330,285.1666049839541L330,250.52558883257655L360,233.20508075688775L390,250.5255888325765" style="fill: none; stroke: rgb(153, 153, 153);"/><path d="M420,233.20508075688775L450,250.52558883257652L450,285.166604983954L420,302.4871130596428L390,285.1666049839541L390,250.52558883257655L420,233.20508075688775L450,250.5255888325765" style="fill: none; stroke: rgb(153, 153, 153);"/><path d="M480,233.20508075688775L510,250.52558883257652L510,285.166604983954L480,302.4871130596428L450,285.1666049839541L450,250.52558883257655L480,233.20508075688775L510,250.5255888325765" style="fill: none; stroke: rgb(153, 153, 153);"/><path d="M540,233.20508075688775L570,250.52558883257652L570,285.166604983954L540,302.4871130596428L510,285.1666049839541L510,250.52558883257655L540,233.20508075688775L570,250.5255888325765" style="fill: none; stroke: rgb(153, 153, 153);"/><path d="M600,233.20508075688775L630,250.52558883257652L630,285.166604983954L600,302.4871130596428L570,285.1666049839541L570,250.52558883257655L600,233.20508075688775L630,250.5255888325765" style="fill: none; stroke: rgb(153, 153, 153);"/><path d="M660,233.20508075688775L690,250.52558883257652L690,285.166604983954L660,302.4871130596428L630,285.1666049839541L630,250.52558883257655L660,233.20508075688775L690,250.5255888325765" style="fill: none; stroke: rgb(153, 153, 153);"/><path d="M720,233.20508075688775L750,250.52558883257652L750,285.166604983954L720,302.4871130596428L690,285.1666049839541L690,250.52558883257655L720,233.20508075688775L750,250.5255888325765" style="fill: none; stroke: rgb(153, 153, 153);"/><path d="M780,233.20508075688775L810,250.52558883257652L810,285.166604983954L780,302.4871130596428L750,285.1666049839541L750,250.52558883257655L780,233.20508075688775L810,250.5255888325765" style="fill: none; stroke: rgb(153, 153, 153);"/><path d="M90,285.166604983954L120,302.48711305964275L120,337.12812921102034L90,354.4486372867091L60.00000000000001,337.12812921102034L59.999999999999986,302.4871130596428L90,285.166604983954L119.99999999999999,302.48711305964275" style="fill: none; stroke: rgb(153, 153, 153);"/><path d="M150,285.166604983954L180,302.48711305964275L180,337.12812921102034L150,354.4486372867091L120,337.12812921102034L119.99999999999999,302.4871130596428L150,285.166604983954L180,302.48711305964275" style="fill: none; stroke: rgb(153, 153, 153);"/><path d="M210,285.166604983954L240,302.48711305964275L240,337.12812921102034L210,354.4486372867091L180,337.12812921102034L180,302.4871130596428L210,285.166604983954L240,302.48711305964275" style="fill: none; stroke: rgb(153, 153, 153);"/><path d="M270,285.166604983954L300,302.48711305964275L300,337.12812921102034L270,354.4486372867091L240,337.12812921102034L240,302.4871130596428L270,285.166604983954L300,302.48711305964275" style="fill: none; stroke: rgb(153, 153, 153);"/><path d="M330,285.166604983954L360,302.48711305964275L360,337.12812921102034L330,354.4486372867091L300,337.12812921102034L300,302.4871130596428L330,285.166604983954L360,302.48711305964275" style="fill: none; stroke: rgb(153, 153, 153);"/><path d="M390,285.166604983954L420,302.48711305964275L420,337.12812921102034L390,354.4486372867091L360,337.12812921102034L360,302.4871130596428L390,285.166604983954L420,302.48711305964275" style="fill: none; stroke: rgb(153, 153, 153);"/><path d="M450,285.166604983954L480,302.48711305964275L480,337.12812921102034L450,354.4486372867091L420,337.12812921102034L420,302.4871130596428L450,285.166604983954L480,302.48711305964275" style="fill: none; stroke: rgb(153, 153, 153);"/><path d="M510,285.166604983954L540,302.48711305964275L540,337.12812921102034L510,354.4486372867091L480,337.12812921102034L480,302.4871130596428L510,285.166604983954L540,302.48711305964275" style="fill: none; stroke: rgb(153, 153, 153);"/><path d="M570,285.166604983954L600,302.48711305964275L600,337.12812921102034L570,354.4486372867091L540,337.12812921102034L540,302.4871130596428L570,285.166604983954L600,302.48711305964275" style="fill: none; stroke: rgb(153, 153, 153);"/><path d="M630,285.166604983954L660,302.48711305964275L660,337.12812921102034L630,354.4486372867091L600,337.12812921102034L600,302.4871130596428L630,285.166604983954L660,302.48711305964275" style="fill: none; stroke: rgb(153, 153, 153);"/><path d="M690,285.166604983954L720,302.48711305964275L720,337.12812921102034L690,354.4486372867091L660,337.12812921102034L660,302.4871130596428L690,285.166604983954L720,302.48711305964275" style="fill: none; stroke: rgb(153, 153, 153);"/><path d="M750,285.166604983954L780,302.48711305964275L780,337.12812921102034L750,354.4486372867091L720,337.12812921102034L720,302.4871130596428L750,285.166604983954L780,302.48711305964275" style="fill: none; stroke: rgb(153, 153, 153);"/><path d="M810,285.166604983954L840,302.48711305964275L840,337.12812921102034L810,354.4486372867091L780,337.12812921102034L780,302.4871130596428L810,285.166604983954L840,302.48711305964275" style="fill: none; stroke: rgb(153, 153, 153);"/><path d="M60,337.1281292110204L90,354.44863728670913L90,389.08965343808666L60,406.41016151377545L30.000000000000007,389.0896534380867L29.99999999999999,354.4486372867092L59.99999999999999,337.1281292110204L89.99999999999999,354.44863728670913" style="fill: none; stroke: rgb(153, 153, 153);"/><path d="M120,337.1281292110204L150,354.44863728670913L150,389.08965343808666L120,406.41016151377545L90,389.0896534380867L89.99999999999999,354.4486372867092L120,337.1281292110204L150,354.44863728670913" style="fill: none; stroke: rgb(153, 153, 153);"/><path d="M180,337.1281292110204L210,354.44863728670913L210,389.08965343808666L180,406.41016151377545L150,389.0896534380867L150,354.4486372867092L180,337.1281292110204L210,354.44863728670913" style="fill: none; stroke: rgb(153, 153, 153);"/><path d="M240,337.1281292110204L270,354.44863728670913L270,389.08965343808666L240,406.41016151377545L210,389.0896534380867L210,354.4486372867092L240,337.1281292110204L270,354.44863728670913" style="fill: none; stroke: rgb(153, 153, 153);"/><path d="M300,337.1281292110204L330,354.44863728670913L330,389.08965343808666L300,406.41016151377545L270,389.0896534380867L270,354.4486372867092L300,337.1281292110204L330,354.44863728670913" style="fill: none; stroke: rgb(153, 153, 153);"/><path d="M360,337.1281292110204L390,354.44863728670913L390,389.08965343808666L360,406.41016151377545L330,389.0896534380867L330,354.4486372867092L360,337.1281292110204L390,354.44863728670913" style="fill: none; stroke: rgb(153, 153, 153);"/><path d="M420,337.1281292110204L450,354.44863728670913L450,389.08965343808666L420,406.41016151377545L390,389.0896534380867L390,354.4486372867092L420,337.1281292110204L450,354.44863728670913" style="fill: none; stroke: rgb(153, 153, 153);"/><path d="M480,337.1281292110204L510,354.44863728670913L510,389.08965343808666L480,406.41016151377545L450,389.0896534380867L450,354.4486372867092L480,337.1281292110204L510,354.44863728670913" style="fill: none; stroke: rgb(153, 153, 153);"/><path d="M540,337.1281292110204L570,354.44863728670913L570,389.08965343808666L540,406.41016151377545L510,389.0896534380867L510,354.4486372867092L540,337.1281292110204L570,354.44863728670913" style="fill: none; stroke: rgb(153, 153, 153);"/><path d="M600,337.1281292110204L630,354.44863728670913L630,389.08965343808666L600,406.41016151377545L570,389.0896534380867L570,354.4486372867092L600,337.1281292110204L630,354.44863728670913" style="fill: none; stroke: rgb(153, 153, 153);"/><path d="M660,337.1281292110204L690,354.44863728670913L690,389.08965343808666L660,406.41016151377545L630,389.0896534380867L630,354.4486372867092L660,337.1281292110204L690,354.44863728670913" style="fill: none; stroke: rgb(153, 153, 153);"/><path d="M720,337.1281292110204L750,354.44863728670913L750,389.08965343808666L720,406.41016151377545L690,389.0896534380867L690,354.4486372867092L720,337.1281292110204L750,354.44863728670913" style="fill: none; stroke: rgb(153, 153, 153);"/><path d="M780,337.1281292110204L810,354.44863728670913L810,389.08965343808666L780,406.41016151377545L750,389.0896534380867L750,354.4486372867092L780,337.1281292110204L810,354.44863728670913" style="fill: none; stroke: rgb(153, 153, 153);"/><path d="M90,389.0896534380867L120,406.41016151377545L120,441.051177665153L90,458.37168574084177L60.00000000000001,441.05117766515303L59.999999999999986,406.4101615137755L90,389.0896534380867L119.99999999999999,406.41016151377545" style="fill: none; stroke: rgb(153, 153, 153);"/><path d="M150,389.0896534380867L180,406.41016151377545L180,441.051177665153L150,458.37168574084177L120,441.05117766515303L119.99999999999999,406.4101615137755L150,389.0896534380867L180,406.41016151377545" style="fill: none; stroke: rgb(153, 153, 153);"/><path d="M210,389.0896534380867L240,406.41016151377545L240,441.051177665153L210,458.37168574084177L180,441.05117766515303L180,406.4101615137755L210,389.0896534380867L240,406.41016151377545" style="fill: none; stroke: rgb(153, 153, 153);"/><path d="M270,389.0896534380867L300,406.41016151377545L300,441.051177665153L270,458.37168574084177L240,441.05117766515303L240,406.4101615137755L270,389.0896534380867L300,406.41016151377545" style="fill: none; stroke: rgb(153, 153, 153);"/><path d="M330,389.0896534380867L360,406.41016151377545L360,441.051177665153L330,458.37168574084177L300,441.05117766515303L300,406.4101615137755L330,389.0896534380867L360,406.41016151377545" style="fill: none; stroke: rgb(153, 153, 153);"/><path d="M390,389.0896534380867L420,406.41016151377545L420,441.051177665153L390,458.37168574084177L360,441.05117766515303L360,406.4101615137755L390,389.0896534380867L420,406.41016151377545" style="fill: none; stroke: rgb(153, 153, 153);"/><path d="M450,389.0896534380867L480,406.41016151377545L480,441.051177665153L450,458.37168574084177L420,441.05117766515303L420,406.4101615137755L450,389.0896534380867L480,406.41016151377545" style="fill: none; stroke: rgb(153, 153, 153);"/><path d="M510,389.0896534380867L540,406.41016151377545L540,441.051177665153L510,458.37168574084177L480,441.05117766515303L480,406.4101615137755L510,389.0896534380867L540,406.41016151377545" style="fill: none; stroke: rgb(153, 153, 153);"/><path d="M570,389.0896534380867L600,406.41016151377545L600,441.051177665153L570,458.37168574084177L540,441.05117766515303L540,406.4101615137755L570,389.0896534380867L600,406.41016151377545" style="fill: none; stroke: rgb(153, 153, 153);"/><path d="M630,389.0896534380867L660,406.41016151377545L660,441.051177665153L630,458.37168574084177L600,441.05117766515303L600,406.4101615137755L630,389.0896534380867L660,406.41016151377545" style="fill: none; stroke: rgb(153, 153, 153);"/><path d="M690,389.0896534380867L720,406.41016151377545L720,441.051177665153L690,458.37168574084177L660,441.05117766515303L660,406.4101615137755L690,389.0896534380867L720,406.41016151377545" style="fill: none; stroke: rgb(153, 153, 153);"/><path d="M750,389.0896534380867L780,406.41016151377545L780,441.051177665153L750,458.37168574084177L720,441.05117766515303L720,406.4101615137755L750,389.0896534380867L780,406.41016151377545" style="fill: none; stroke: rgb(153, 153, 153);"/><path d="M810,389.0896534380867L840,406.41016151377545L840,441.051177665153L810,458.37168574084177L780,441.05117766515303L780,406.4101615137755L810,389.0896534380867L840,406.41016151377545" style="fill: none; stroke: rgb(153, 153, 153);"/><path d="M60,441.051177665153L90,458.3716857408417L90,493.0127018922193L60,510.33320996790803L30.000000000000007,493.0127018922193L29.99999999999999,458.37168574084177L59.99999999999999,441.051177665153L89.99999999999999,458.3716857408417" style="fill: none; stroke: rgb(153, 153, 153);"/><path d="M120,441.051177665153L150,458.3716857408417L150,493.0127018922193L120,510.33320996790803L90,493.0127018922193L89.99999999999999,458.37168574084177L120,441.051177665153L150,458.3716857408417" style="fill: none; stroke: rgb(153, 153, 153);"/><path d="M180,441.051177665153L210,458.3716857408417L210,493.0127018922193L180,510.33320996790803L150,493.0127018922193L150,458.37168574084177L180,441.051177665153L210,458.3716857408417" style="fill: none; stroke: rgb(153, 153, 153);"/><path d="M240,441.051177665153L270,458.3716857408417L270,493.0127018922193L240,510.33320996790803L210,493.0127018922193L210,458.37168574084177L240,441.051177665153L270,458.3716857408417" style="fill: none; stroke: rgb(153, 153, 153);"/><path d="M300,441.051177665153L330,458.3716857408417L330,493.0127018922193L300,510.33320996790803L270,493.0127018922193L270,458.37168574084177L300,441.051177665153L330,458.3716857408417" style="fill: none; stroke: rgb(153, 153, 153);"/><path d="M360,441.051177665153L390,458.3716857408417L390,493.0127018922193L360,510.33320996790803L330,493.0127018922193L330,458.37168574084177L360,441.051177665153L390,458.3716857408417" style="fill: none; stroke: rgb(153, 153, 153);"/><path d="M420,441.051177665153L450,458.3716857408417L450,493.0127018922193L420,510.33320996790803L390,493.0127018922193L390,458.37168574084177L420,441.051177665153L450,458.3716857408417" style="fill: none; stroke: rgb(153, 153, 153);"/><path d="M480,441.051177665153L510,458.3716857408417L510,493.0127018922193L480,510.33320996790803L450,493.0127018922193L450,458.37168574084177L480,441.051177665153L510,458.3716857408417" style="fill: none; stroke: rgb(153, 153, 153);"/><path d="M540,441.051177665153L570,458.3716857408417L570,493.0127018922193L540,510.33320996790803L510,493.0127018922193L510,458.37168574084177L540,441.051177665153L570,458.3716857408417" style="fill: none; stroke: rgb(153, 153, 153);"/><path d="M600,441.051177665153L630,458.3716857408417L630,493.0127018922193L600,510.33320996790803L570,493.0127018922193L570,458.37168574084177L600,441.051177665153L630,458.3716857408417" style="fill: none; stroke: rgb(153, 153, 153);"/><path d="M660,441.051177665153L690,458.3716857408417L690,493.0127018922193L660,510.33320996790803L630,493.0127018922193L630,458.37168574084177L660,441.051177665153L690,458.3716857408417" style="fill: none; stroke: rgb(153, 153, 153);"/><path d="M720,441.051177665153L750,458.3716857408417L750,493.0127018922193L720,510.33320996790803L690,493.0127018922193L690,458.37168574084177L720,441.051177665153L750,458.3716857408417" style="fill: none; stroke: rgb(153, 153, 153);"/><path d="M780,441.051177665153L810,458.3716857408417L810,493.0127018922193L780,510.33320996790803L750,493.0127018922193L750,458.37168574084177L780,441.051177665153L810,458.3716857408417" style="fill: none; stroke: rgb(153, 153, 153);"/><path d="M90,493.01270189221935L120,510.3332099679081L120,544.9742261192856L90,562.2947341949745L60.00000000000001,544.9742261192856L59.999999999999986,510.33320996790815L90,493.01270189221935L119.99999999999999,510.3332099679081" style="fill: none; stroke: rgb(153, 153, 153);"/><path d="M150,493.01270189221935L180,510.3332099679081L180,544.9742261192856L150,562.2947341949745L120,544.9742261192856L119.99999999999999,510.33320996790815L150,493.01270189221935L180,510.3332099679081" style="fill: none; stroke: rgb(153, 153, 153);"/><path d="M210,493.01270189221935L240,510.3332099679081L240,544.9742261192856L210,562.2947341949745L180,544.9742261192856L180,510.33320996790815L210,493.01270189221935L240,510.3332099679081" style="fill: none; stroke: rgb(153, 153, 153);"/><path d="M270,493.01270189221935L300,510.3332099679081L300,544.9742261192856L270,562.2947341949745L240,544.9742261192856L240,510.33320996790815L270,493.01270189221935L300,510.3332099679081" style="fill: none; stroke: rgb(153, 153, 153);"/><path d="M330,493.01270189221935L360,510.3332099679081L360,544.9742261192856L330,562.2947341949745L300,544.9742261192856L300,510.33320996790815L330,493.01270189221935L360,510.3332099679081" style="fill: none; stroke: rgb(153, 153, 153);"/><path d="M390,493.01270189221935L420,510.3332099679081L420,544.9742261192856L390,562.2947341949745L360,544.9742261192856L360,510.33320996790815L390,493.01270189221935L420,510.3332099679081" style="fill: none; stroke: rgb(153, 153, 153);"/><path d="M450,493.01270189221935L480,510.3332099679081L480,544.9742261192856L450,562.2947341949745L420,544.9742261192856L420,510.33320996790815L450,493.01270189221935L480,510.3332099679081" style="fill: none; stroke: rgb(153, 153, 153);"/><path d="M510,493.01270189221935L540,510.3332099679081L540,544.9742261192856L510,562.2947341949745L480,544.9742261192856L480,510.33320996790815L510,493.01270189221935L540,510.3332099679081" style="fill: none; stroke: rgb(153, 153, 153);"/><path d="M570,493.01270189221935L600,510.3332099679081L600,544.9742261192856L570,562.2947341949745L540,544.9742261192856L540,510.33320996790815L570,493.01270189221935L600,510.3332099679081" style="fill: none; stroke: rgb(153, 153, 153);"/><path d="M630,493.01270189221935L660,510.3332099679081L660,544.9742261192856L630,562.2947341949745L600,544.9742261192856L600,510.33320996790815L630,493.01270189221935L660,510.3332099679081" style="fill: none; stroke: rgb(153, 153, 153);"/><path d="M690,493.01270189221935L720,510.3332099679081L720,544.9742261192856L690,562.2947341949745L660,544.9742261192856L660,510.33320996790815L690,493.01270189221935L720,510.3332099679081" style="fill: none; stroke: rgb(153, 153, 153);"/><path d="M750,493.01270189221935L780,510.3332099679081L780,544.9742261192856L750,562.2947341949745L720,544.9742261192856L720,510.33320996790815L750,493.01270189221935L780,510.3332099679081" style="fill: none; stroke: rgb(153, 153, 153);"/><path d="M810,493.01270189221935L840,510.3332099679081L840,544.9742261192856L810,562.2947341949745L780,544.9742261192856L780,510.33320996790815L810,493.01270189221935L840,510.3332099679081" style="fill: none; stroke: rgb(153, 153, 153);"/><path d="M60,544.9742261192855L90,562.2947341949744L90,596.9357503463518L60,614.2562584220407L30.000000000000007,596.9357503463518L29.99999999999999,562.2947341949744L59.99999999999999,544.9742261192855L89.99999999999999,562.2947341949744" style="fill: none; stroke: rgb(153, 153, 153);"/><path d="M120,544.9742261192855L150,562.2947341949744L150,596.9357503463518L120,614.2562584220407L90,596.9357503463518L89.99999999999999,562.2947341949744L120,544.9742261192855L150,562.2947341949744" style="fill: none; stroke: rgb(153, 153, 153);"/><path d="M180,544.9742261192855L210,562.2947341949744L210,596.9357503463518L180,614.2562584220407L150,596.9357503463518L150,562.2947341949744L180,544.9742261192855L210,562.2947341949744" style="fill: none; stroke: rgb(153, 153, 153);"/><path d="M240,544.9742261192855L270,562.2947341949744L270,596.9357503463518L240,614.2562584220407L210,596.9357503463518L210,562.2947341949744L240,544.9742261192855L270,562.2947341949744" style="fill: none; stroke: rgb(153, 153, 153);"/><path d="M300,544.9742261192855L330,562.2947341949744L330,596.9357503463518L300,614.2562584220407L270,596.9357503463518L270,562.2947341949744L300,544.9742261192855L330,562.2947341949744" style="fill: none; stroke: rgb(153, 153, 153);"/><path d="M360,544.9742261192855L390,562.2947341949744L390,596.9357503463518L360,614.2562584220407L330,596.9357503463518L330,562.2947341949744L360,544.9742261192855L390,562.2947341949744" style="fill: none; stroke: rgb(153, 153, 153);"/><path d="M420,544.9742261192855L450,562.2947341949744L450,596.9357503463518L420,614.2562584220407L390,596.9357503463518L390,562.2947341949744L420,544.9742261192855L450,562.2947341949744" style="fill: none; stroke: rgb(153, 153, 153);"/><path d="M480,544.9742261192855L510,562.2947341949744L510,596.9357503463518L480,614.2562584220407L450,596.9357503463518L450,562.2947341949744L480,544.9742261192855L510,562.2947341949744" style="fill: none; stroke: rgb(153, 153, 153);"/><path d="M540,544.9742261192855L570,562.2947341949744L570,596.9357503463518L540,614.2562584220407L510,596.9357503463518L510,562.2947341949744L540,544.9742261192855L570,562.2947341949744" style="fill: none; stroke: rgb(153, 153, 153);"/><path d="M600,544.9742261192855L630,562.2947341949744L630,596.9357503463518L600,614.2562584220407L570,596.9357503463518L570,562.2947341949744L600,544.9742261192855L630,562.2947341949744" style="fill: none; stroke: rgb(153, 153, 153);"/><path d="M660,544.9742261192855L690,562.2947341949744L690,596.9357503463518L660,614.2562584220407L630,596.9357503463518L630,562.2947341949744L660,544.9742261192855L690,562.2947341949744" style="fill: none; stroke: rgb(153, 153, 153);"/><path d="M720,544.9742261192855L750,562.2947341949744L750,596.9357503463518L720,614.2562584220407L690,596.9357503463518L690,562.2947341949744L720,544.9742261192855L750,562.2947341949744" style="fill: none; stroke: rgb(153, 153, 153);"/><path d="M780,544.9742261192855L810,562.2947341949744L810,596.9357503463518L780,614.2562584220407L750,596.9357503463518L750,562.2947341949744L780,544.9742261192855L810,562.2947341949744" style="fill: none; stroke: rgb(153, 153, 153);"/><path d="M90,596.9357503463519L120,614.2562584220408L120,648.8972745734183L90,666.2177826491071L60.00000000000001,648.8972745734183L59.999999999999986,614.2562584220408L90,596.9357503463519L119.99999999999999,614.2562584220408" style="fill: none; stroke: rgb(153, 153, 153);"/><path d="M150,596.9357503463519L180,614.2562584220408L180,648.8972745734183L150,666.2177826491071L120,648.8972745734183L119.99999999999999,614.2562584220408L150,596.9357503463519L180,614.2562584220408" style="fill: none; stroke: rgb(153, 153, 153);"/><path d="M210,596.9357503463519L240,614.2562584220408L240,648.8972745734183L210,666.2177826491071L180,648.8972745734183L180,614.2562584220408L210,596.9357503463519L240,614.2562584220408" style="fill: none; stroke: rgb(153, 153, 153);"/><path d="M270,596.9357503463519L300,614.2562584220408L300,648.8972745734183L270,666.2177826491071L240,648.8972745734183L240,614.2562584220408L270,596.9357503463519L300,614.2562584220408" style="fill: none; stroke: rgb(153, 153, 153);"/><path d="M330,596.9357503463519L360,614.2562584220408L360,648.8972745734183L330,666.2177826491071L300,648.8972745734183L300,614.2562584220408L330,596.9357503463519L360,614.2562584220408" style="fill: none; stroke: rgb(153, 153, 153);"/><path d="M390,596.9357503463519L420,614.2562584220408L420,648.8972745734183L390,666.2177826491071L360,648.8972745734183L360,614.2562584220408L390,596.9357503463519L420,614.2562584220408" style="fill: none; stroke: rgb(153, 153, 153);"/><path d="M450,596.9357503463519L480,614.2562584220408L480,648.8972745734183L450,666.2177826491071L420,648.8972745734183L420,614.2562584220408L450,596.9357503463519L480,614.2562584220408" style="fill: none; stroke: rgb(153, 153, 153);"/><path d="M510,596.9357503463519L540,614.2562584220408L540,648.8972745734183L510,666.2177826491071L480,648.8972745734183L480,614.2562584220408L510,596.9357503463519L540,614.2562584220408" style="fill: none; stroke: rgb(153, 153, 153);"/><path d="M570,596.9357503463519L600,614.2562584220408L600,648.8972745734183L570,666.2177826491071L540,648.8972745734183L540,614.2562584220408L570,596.9357503463519L600,614.2562584220408" style="fill: none; stroke: rgb(153, 153, 153);"/><path d="M630,596.9357503463519L660,614.2562584220408L660,648.8972745734183L630,666.2177826491071L600,648.8972745734183L600,614.2562584220408L630,596.9357503463519L660,614.2562584220408" style="fill: none; stroke: rgb(153, 153, 153);"/><path d="M690,596.9357503463519L720,614.2562584220408L720,648.8972745734183L690,666.2177826491071L660,648.8972745734183L660,614.2562584220408L690,596.9357503463519L720,614.2562584220408" style="fill: none; stroke: rgb(153, 153, 153);"/><path d="M750,596.9357503463519L780,614.2562584220408L780,648.8972745734183L750,666.2177826491071L720,648.8972745734183L720,614.2562584220408L750,596.9357503463519L780,614.2562584220408" style="fill: none; stroke: rgb(153, 153, 153);"/><path d="M810,596.9357503463519L840,614.2562584220408L840,648.8972745734183L810,666.2177826491071L780,648.8972745734183L780,614.2562584220408L810,596.9357503463519L840,614.2562584220408" style="fill: none; stroke: rgb(153, 153, 153);"/><path d="M60,648.8972745734183L90,666.2177826491071L90,700.8587988004846L60,718.1793068761734L30.000000000000007,700.8587988004846L29.99999999999999,666.2177826491071L59.99999999999999,648.8972745734183L89.99999999999999,666.2177826491071" style="fill: none; stroke: rgb(153, 153, 153);"/><path d="M120,648.8972745734183L150,666.2177826491071L150,700.8587988004846L120,718.1793068761734L90,700.8587988004846L89.99999999999999,666.2177826491071L120,648.8972745734183L150,666.2177826491071" style="fill: none; stroke: rgb(153, 153, 153);"/><path d="M180,648.8972745734183L210,666.2177826491071L210,700.8587988004846L180,718.1793068761734L150,700.8587988004846L150,666.2177826491071L180,648.8972745734183L210,666.2177826491071" style="fill: none; stroke: rgb(153, 153, 153);"/><path d="M240,648.8972745734183L270,666.2177826491071L270,700.8587988004846L240,718.1793068761734L210,700.8587988004846L210,666.2177826491071L240,648.8972745734183L270,666.2177826491071" style="fill: none; stroke: rgb(153, 153, 153);"/><path d="M300,648.8972745734183L330,666.2177826491071L330,700.8587988004846L300,718.1793068761734L270,700.8587988004846L270,666.2177826491071L300,648.8972745734183L330,666.2177826491071" style="fill: none; stroke: rgb(153, 153, 153);"/><path d="M360,648.8972745734183L390,666.2177826491071L390,700.8587988004846L360,718.1793068761734L330,700.8587988004846L330,666.2177826491071L360,648.8972745734183L390,666.2177826491071" style="fill: none; stroke: rgb(153, 153, 153);"/><path d="M420,648.8972745734183L450,666.2177826491071L450,700.8587988004846L420,718.1793068761734L390,700.8587988004846L390,666.2177826491071L420,648.8972745734183L450,666.2177826491071" style="fill: none; stroke: rgb(153, 153, 153);"/><path d="M480,648.8972745734183L510,666.2177826491071L510,700.8587988004846L480,718.1793068761734L450,700.8587988004846L450,666.2177826491071L480,648.8972745734183L510,666.2177826491071" style="fill: none; stroke: rgb(153, 153, 153);"/><path d="M540,648.8972745734183L570,666.2177826491071L570,700.8587988004846L540,718.1793068761734L510,700.8587988004846L510,666.2177826491071L540,648.8972745734183L570,666.2177826491071" style="fill: none; stroke: rgb(153, 153, 153);"/><path d="M600,648.8972745734183L630,666.2177826491071L630,700.8587988004846L600,718.1793068761734L570,700.8587988004846L570,666.2177826491071L600,648.8972745734183L630,666.2177826491071" style="fill: none; stroke: rgb(153, 153, 153);"/><path d="M660,648.8972745734183L690,666.2177826491071L690,700.8587988004846L660,718.1793068761734L630,700.8587988004846L630,666.2177826491071L660,648.8972745734183L690,666.2177826491071" style="fill: none; stroke: rgb(153, 153, 153);"/><path d="M720,648.8972745734183L750,666.2177826491071L750,700.8587988004846L720,718.1793068761734L690,700.8587988004846L690,666.2177826491071L720,648.8972745734183L750,666.2177826491071" style="fill: none; stroke: rgb(153, 153, 153);"/><path d="M780,648.8972745734183L810,666.2177826491071L810,700.8587988004846L780,718.1793068761734L750,700.8587988004846L750,666.2177826491071L780,648.8972745734183L810,666.2177826491071" style="fill: none; stroke: rgb(153, 153, 153);"/></g><g style="filter: url(&quot;#glow&quot;);"><circle class="result" r="13.571428571428571" cx="359.93390242794146" cy="579.3937995149386" style="fill: rgb(75, 160, 177);"/><circle class="result" r="13.571428571428571" cx="449.80237225857906" cy="631.3082393261056" style="fill: rgb(75, 160, 177);"/><circle class="result" r="13.571428571428571" cx="289.73065136087183" cy="678.0929050605398" style="fill: rgb(75, 160, 177);"/><circle class="result" r="13.571428571428571" cx="405.02651574631466" cy="635.7062890454172" style="fill: rgb(75, 160, 177);"/><circle class="result" r="13.571428571428571" cx="359.84223310035674" cy="683.3284884477256" style="fill: rgb(75, 160, 177);"/><circle class="result" r="13.571428571428571" cx="256.44033481384304" cy="637.7624839192245" style="fill: rgb(75, 160, 177);"/><circle class="result" r="13.571428571428571" cx="283.5828257454299" cy="637.5123301873566" style="fill: rgb(75, 160, 177);"/><circle class="result" r="13.571428571428571" cx="474.2654445704067" cy="695.6618129338784" style="fill: rgb(75, 160, 177);"/><circle class="result" r="13.571428571428571" cx="204.54647603243114" cy="641.4862890821566" style="fill: rgb(75, 160, 177);"/><circle class="result" r="13.571428571428571" cx="386.07033342197104" cy="616.2782769431268" style="fill: rgb(75, 160, 177);"/><circle class="result" r="12.142857142857142" cx="172.90039985671905" cy="673.4502895688536" style="fill: rgb(160, 217, 163);"/><circle class="result" r="12.142857142857142" cx="312.5691029688142" cy="689.9094027628031" style="fill: rgb(160, 217, 163);"/><circle class="result" r="12.142857142857142" cx="216.67203022934834" cy="618.8104114759085" style="fill: rgb(160, 217, 163);"/><circle class="result" r="12.142857142857142" cx="269.967493606702" cy="527.411143921355" style="fill: rgb(160, 217, 163);"/><circle class="result" r="12.142857142857142" cx="45.62342398706014" cy="679.8568140951328" style="fill: rgb(160, 217, 163);"/><circle class="result" r="12.142857142857142" cx="509.84440456975454" cy="423.58124366769454" style="fill: rgb(160, 217, 163);"/><circle class="result" r="12.142857142857142" cx="338.18290252121676" cy="414.7483390053662" style="fill: rgb(160, 217, 163);"/><circle class="result" r="12.142857142857142" cx="111.2036112869704" cy="687.9162493933422" style="fill: rgb(160, 217, 163);"/><circle class="result" r="10.714285714285715" cx="131.41895923754177" cy="677.2490713771485" style="fill: rgb(235, 247, 166);"/><circle class="result" r="10.714285714285715" cx="58.72709421067766" cy="698.5864659169899" style="fill: rgb(235, 247, 166);"/><circle class="result" r="10.714285714285715" cx="144.08073234021785" cy="619.4539582338667" style="fill: rgb(235, 247, 166);"/><circle class="result" r="10.714285714285715" cx="68.4783142262947" cy="679.5068552085335" style="fill: rgb(235, 247, 166);"/><circle class="result" r="10.714285714285715" cx="239.91959557515526" cy="475.5593203355547" style="fill: rgb(235, 247, 166);"/><circle class="result" r="10.714285714285715" cx="209.90308525311158" cy="527.4802997328203" style="fill: rgb(235, 247, 166);"/><circle class="result" r="10.714285714285715" cx="140.17093386480764" cy="640.5236897344261" style="fill: rgb(235, 247, 166);"/><circle class="result" r="10.714285714285715" cx="179.9384053210838" cy="579.4408930100244" style="fill: rgb(235, 247, 166);"/><circle class="result" r="10.714285714285715" cx="199.4901203875728" cy="421.34662219377407" style="fill: rgb(235, 247, 166);"/><circle class="result" r="10.714285714285715" cx="149.91053077201758" cy="527.4770473041702" style="fill: rgb(235, 247, 166);"/><circle class="result" r="10.714285714285715" cx="53.23581502539721" cy="572.7309452174218" style="fill: rgb(235, 247, 166);"/><circle class="result" r="10.714285714285715" cx="220.43600846852607" cy="425.86917080816926" style="fill: rgb(235, 247, 166);"/><circle class="result" r="9.285714285714285" cx="180.46822588856722" cy="463.8717091626036" style="fill: rgb(254, 232, 154);"/><circle class="result" r="9.285714285714285" cx="68.1994223131952" cy="559.4618172644857" style="fill: rgb(254, 232, 154);"/><circle class="result" r="9.285714285714285" cx="60.375743226564566" cy="591.4139135271776" style="fill: rgb(254, 232, 154);"/><circle class="result" r="9.285714285714285" cx="96.13701933020182" cy="613.6693935305371" style="fill: rgb(254, 232, 154);"/><circle class="result" r="9.285714285714285" cx="72.66258539511993" cy="577.4875608081873" style="fill: rgb(254, 232, 154);"/><circle class="result" r="9.285714285714285" cx="177.2148740288366" cy="378.83029626472324" style="fill: rgb(254, 232, 154);"/><circle class="result" r="9.285714285714285" cx="98.11163471928022" cy="522.7721246511154" style="fill: rgb(254, 232, 154);"/><circle class="result" r="9.285714285714285" cx="132.31653438789314" cy="483.69662608227316" style="fill: rgb(254, 232, 154);"/><circle class="result" r="9.285714285714285" cx="100.32704865557395" cy="465.38320780490824" style="fill: rgb(254, 232, 154);"/><circle class="result" r="9.285714285714285" cx="61.86180109175111" cy="461.0975608104638" style="fill: rgb(254, 232, 154);"/><circle class="result" r="9.285714285714285" cx="149.8600590486138" cy="423.67547181365006" style="fill: rgb(254, 232, 154);"/><circle class="result" r="9.285714285714285" cx="41.934491069475406" cy="589.2319701046232" style="fill: rgb(254, 232, 154);"/><circle class="result" r="7.857142857142858" cx="179.99622236081038" cy="267.7464879768385" style="fill: rgb(251, 163, 94);"/><circle class="result" r="7.857142857142858" cx="179.97366904912946" cy="361.9106270873812" style="fill: rgb(251, 163, 94);"/><circle class="result" r="7.857142857142858" cx="145.50787374283343" cy="313.277104741106" style="fill: rgb(251, 163, 94);"/><circle class="result" r="7.857142857142858" cx="77.11146085547873" cy="695.9475399354582" style="fill: rgb(251, 163, 94);"/><circle class="result" r="7.857142857142858" cx="81.36802390773568" cy="622.3738283090598" style="fill: rgb(251, 163, 94);"/><circle class="result" r="7.857142857142858" cx="154.4798245362888" cy="326.17837888244645" style="fill: rgb(251, 163, 94);"/><circle class="result" r="7.857142857142858" cx="233.8120929172683" cy="168.79166767690361" style="fill: rgb(251, 163, 94);"/><circle class="result" r="7.857142857142858" cx="324.28840969727327" cy="113.01206262864663" style="fill: rgb(251, 163, 94);"/><circle class="result" r="7.857142857142858" cx="66.17068470950711" cy="490.6889397656968" style="fill: rgb(251, 163, 94);"/><circle class="result" r="6.428571428571429" cx="89.9488373305986" cy="423.60922878883855" style="fill: rgb(225, 82, 74);"/><circle class="result" r="6.428571428571429" cx="50.87493595695366" cy="472.3332641674141" style="fill: rgb(225, 82, 74);"/><circle class="result" r="6.428571428571429" cx="389.8930619919889" cy="111.95821270595353" style="fill: rgb(225, 82, 74);"/><circle class="result" r="5" cx="63.692568596933285" cy="364.10682926471594" style="fill: rgb(158, 1, 66);"/><circle class="result" r="5" cx="89.98238833957043" cy="319.69680604244263" style="fill: rgb(158, 1, 66);"/><circle class="result" r="5" cx="64.77365309307434" cy="374.04822120707263" style="fill: rgb(158, 1, 66);"/><circle class="result" r="9.285714285714285" cx="134.52541077934885" cy="465.2558287502728" style="fill: rgb(254, 232, 154);"/><circle class="result" r="9.285714285714285" cx="115.24138770421158" cy="491.0024844617691" style="fill: rgb(254, 232, 154);"/><circle class="result" r="7.857142857142858" cx="209.94822192728864" cy="319.6595526059959" style="fill: rgb(251, 163, 94);"/><circle class="result" r="7.857142857142858" cx="246.0636044905817" cy="158.95097462818129" style="fill: rgb(251, 163, 94);"/><circle class="result" r="13.571428571428571" cx="378.723010972642" cy="642.4077918009104" style="fill: rgb(75, 160, 177);"/><circle class="result" r="13.571428571428571" cx="419.7511898819677" cy="683.2165625697337" style="fill: rgb(75, 160, 177);"/><circle class="result" r="13.571428571428571" cx="419.92538103001743" cy="579.388707345773" style="fill: rgb(75, 160, 177);"/><circle class="result" r="13.571428571428571" cx="659.7974842849452" cy="579.4672592978244" style="fill: rgb(75, 160, 177);"/><circle class="result" r="12.142857142857142" cx="240.77041325403178" cy="671.2039266639912" style="fill: rgb(160, 217, 163);"/><circle class="result" r="12.142857142857142" cx="239.09184658553545" cy="695.4315623783311" style="fill: rgb(160, 217, 163);"/><circle class="result" r="12.142857142857142" cx="269.8111724280208" cy="615.7967584771528" style="fill: rgb(160, 217, 163);"/><circle class="result" r="12.142857142857142" cx="359.92542426263236" cy="475.52562341415705" style="fill: rgb(160, 217, 163);"/><circle class="result" r="12.142857142857142" cx="380.32463925435854" cy="520.0471049522989" style="fill: rgb(160, 217, 163);"/><circle class="result" r="12.142857142857142" cx="239.9480247258425" cy="579.421130672657" style="fill: rgb(160, 217, 163);"/><circle class="result" r="12.142857142857142" cx="187.00026669064005" cy="693.2237483870027" style="fill: rgb(160, 217, 163);"/><circle class="result" r="12.142857142857142" cx="329.78449091829407" cy="527.5148964985883" style="fill: rgb(160, 217, 163);"/><circle class="result" r="12.142857142857142" cx="161.97739302954977" cy="633.6733380435812" style="fill: rgb(160, 217, 163);"/><circle class="result" r="12.142857142857142" cx="321.68518321573356" cy="432.570268645134" style="fill: rgb(160, 217, 163);"/><circle class="result" r="12.142857142857142" cx="269.87848069952327" cy="423.5581927422496" style="fill: rgb(160, 217, 163);"/><circle class="result" r="10.714285714285715" cx="249.71883995253052" cy="377.9865217601501" style="fill: rgb(235, 247, 166);"/><circle class="result" r="10.714285714285715" cx="171.17688066716548" cy="481.583153004162" style="fill: rgb(235, 247, 166);"/><circle class="result" r="10.714285714285715" cx="237.78979023023498" cy="360.1846437713328" style="fill: rgb(235, 247, 166);"/><circle class="result" r="9.285714285714285" cx="96.49316411640002" cy="647.7927705920233" style="fill: rgb(254, 232, 154);"/><circle class="result" r="9.285714285714285" cx="80.72002971851312" cy="529.2905477471821" style="fill: rgb(254, 232, 154);"/><circle class="result" r="9.285714285714285" cx="74.76981753416335" cy="660.522375394121" style="fill: rgb(254, 232, 154);"/><circle class="result" r="9.285714285714285" cx="117.45272833240419" cy="472.5631804679455" style="fill: rgb(254, 232, 154);"/><circle class="result" r="9.285714285714285" cx="120.00706376780911" cy="579.3951802166952" style="fill: rgb(254, 232, 154);"/><circle class="result" r="9.285714285714285" cx="95.05980662142805" cy="541.0912640926845" style="fill: rgb(254, 232, 154);"/><circle class="result" r="7.857142857142858" cx="239.8286970109445" cy="267.80644304851546" style="fill: rgb(251, 163, 94);"/><circle class="result" r="7.857142857142858" cx="58.01764211454029" cy="664.1613546095128" style="fill: rgb(251, 163, 94);"/><circle class="result" r="7.857142857142858" cx="172.72253789331717" cy="169.3888057094364" style="fill: rgb(251, 163, 94);"/><circle class="result" r="7.857142857142858" cx="299.892674417872" cy="59.96231065459289" style="fill: rgb(251, 163, 94);"/><circle class="result" r="7.857142857142858" cx="94.66523410546817" cy="630.7470445932918" style="fill: rgb(251, 163, 94);"/><circle class="result" r="7.857142857142858" cx="40.16403620329454" cy="699.0969849737362" style="fill: rgb(251, 163, 94);"/><circle class="result" r="7.857142857142858" cx="479.8462017448512" cy="163.84204581899013" style="fill: rgb(251, 163, 94);"/><circle class="result" r="7.857142857142858" cx="188.3096004211893" cy="167.38906769171516" style="fill: rgb(251, 163, 94);"/><circle class="result" r="7.857142857142858" cx="119.93083361921903" cy="267.75645348315885" style="fill: rgb(251, 163, 94);"/><circle class="result" r="7.857142857142858" cx="84.35825274880844" cy="512.538610529985" style="fill: rgb(251, 163, 94);"/><circle class="result" r="6.428571428571429" cx="53.06455773390274" cy="485.00297502487774" style="fill: rgb(225, 82, 74);"/><circle class="result" r="6.428571428571429" cx="119.95426952815768" cy="371.6303789251058" style="fill: rgb(225, 82, 74);"/><circle class="result" r="6.428571428571429" cx="62.942101362415094" cy="476.77252823776763" style="fill: rgb(225, 82, 74);"/><circle class="result" r="6.428571428571429" cx="563.1441013895154" cy="117.24682680077348" style="fill: rgb(225, 82, 74);"/><circle class="result" r="6.428571428571429" cx="546.1871994118954" cy="59.00214795156592" style="fill: rgb(225, 82, 74);"/><circle class="result" r="6.428571428571429" cx="120.00709229405905" cy="163.94554439952563" style="fill: rgb(225, 82, 74);"/><circle class="result" r="5" cx="37.77988806206988" cy="575.5637256488159" style="fill: rgb(158, 1, 66);"/><circle class="result" r="5" cx="60.01510177593608" cy="163.86862474489183" style="fill: rgb(158, 1, 66);"/><circle class="result" r="5" cx="56.216076068445965" cy="379.22240368952674" style="fill: rgb(158, 1, 66);"/><circle class="result" r="12.142857142857142" cx="719.7965658648543" cy="475.517087788705" style="fill: rgb(160, 217, 163);"/><circle class="result" r="12.142857142857142" cx="399.43447817247466" cy="535.0340984763851" style="fill: rgb(160, 217, 163);"/><circle class="result" r="9.285714285714285" cx="79.89803205981148" cy="639.4537830620126" style="fill: rgb(254, 232, 154);"/><circle class="result" r="7.857142857142858" cx="574.3143488979988" cy="108.34136761821124" style="fill: rgb(251, 163, 94);"/><circle class="result" r="7.857142857142858" cx="77.32443045869458" cy="593.984371155142" style="fill: rgb(251, 163, 94);"/><circle class="result" r="5" cx="55.552037421605775" cy="57.6640695996957" style="fill: rgb(158, 1, 66);"/><circle class="result" r="5" cx="64.42288854371402" cy="62.28012856480769" style="fill: rgb(158, 1, 66);"/><circle class="result" r="13.571428571428571" cx="599.7833205539097" cy="579.5207537917232" style="fill: rgb(75, 160, 177);"/><circle class="result" r="13.571428571428571" cx="485.46509959648597" cy="670.9372821764633" style="fill: rgb(75, 160, 177);"/><circle class="result" r="12.142857142857142" cx="509.8561807594321" cy="527.5314730898863" style="fill: rgb(160, 217, 163);"/><circle class="result" r="12.142857142857142" cx="629.7998220746557" cy="631.3862198025937" style="fill: rgb(160, 217, 163);"/><circle class="result" r="12.142857142857142" cx="569.8469942554699" cy="423.5531669766602" style="fill: rgb(160, 217, 163);"/><circle class="result" r="12.142857142857142" cx="451.9573567495952" cy="435.65167215117657" style="fill: rgb(160, 217, 163);"/><circle class="result" r="12.142857142857142" cx="419.8486010876328" cy="475.40268219700596" style="fill: rgb(160, 217, 163);"/><circle class="result" r="12.142857142857142" cx="629.8478695193131" cy="423.61763624001003" style="fill: rgb(160, 217, 163);"/><circle class="result" r="12.142857142857142" cx="447.6725274042045" cy="411.7469413254964" style="fill: rgb(160, 217, 163);"/><circle class="result" r="12.142857142857142" cx="659.8160573082586" cy="371.63083392216777" style="fill: rgb(160, 217, 163);"/><circle class="result" r="10.714285714285715" cx="340.6192235622329" cy="319.74211619828276" style="fill: rgb(235, 247, 166);"/><circle class="result" r="10.714285714285715" cx="449.8239145515196" cy="319.69620183750493" style="fill: rgb(235, 247, 166);"/><circle class="result" r="10.714285714285715" cx="509.86871207079975" cy="319.7347673268327" style="fill: rgb(235, 247, 166);"/><circle class="result" r="10.714285714285715" cx="319.1906933123837" cy="319.70010666739455" style="fill: rgb(235, 247, 166);"/><circle class="result" r="10.714285714285715" cx="569.8321567297039" cy="319.67809397409667" style="fill: rgb(235, 247, 166);"/><circle class="result" r="10.714285714285715" cx="749.8023598236506" cy="319.7410181325031" style="fill: rgb(235, 247, 166);"/><circle class="result" r="10.714285714285715" cx="419.8212405523494" cy="267.7138250482471" style="fill: rgb(235, 247, 166);"/><circle class="result" r="9.285714285714285" cx="191.0282643085404" cy="479.14952042652374" style="fill: rgb(254, 232, 154);"/><circle class="result" r="9.285714285714285" cx="229.72434626634316" cy="378.4862451675306" style="fill: rgb(254, 232, 154);"/><circle class="result" r="9.285714285714285" cx="479.8328905507842" cy="267.72722364642243" style="fill: rgb(254, 232, 154);"/><circle class="result" r="9.285714285714285" cx="359.9539773598308" cy="267.78478848380865" style="fill: rgb(254, 232, 154);"/><circle class="result" r="9.285714285714285" cx="809.745776761518" cy="423.58478420762015" style="fill: rgb(254, 232, 154);"/><circle class="result" r="9.285714285714285" cx="659.8105522087101" cy="267.7364654479201" style="fill: rgb(254, 232, 154);"/><circle class="result" r="9.285714285714285" cx="359.91898855976063" cy="163.9180482298702" style="fill: rgb(254, 232, 154);"/><circle class="result" r="7.857142857142858" cx="659.7717776892404" cy="163.85886335309297" style="fill: rgb(251, 163, 94);"/><circle class="result" r="7.857142857142858" cx="269.9515248437948" cy="111.91876778966028" style="fill: rgb(251, 163, 94);"/><circle class="result" r="7.857142857142858" cx="149.91582551964078" cy="215.83530476172692" style="fill: rgb(251, 163, 94);"/><circle class="result" r="7.857142857142858" cx="178.7848111245283" cy="154.8903811861492" style="fill: rgb(251, 163, 94);"/><circle class="result" r="7.857142857142858" cx="809.7836101927231" cy="215.83582701565155" style="fill: rgb(251, 163, 94);"/><circle class="result" r="6.428571428571429" cx="239.897338550178" cy="59.97737484022537" style="fill: rgb(225, 82, 74);"/><circle class="result" r="6.428571428571429" cx="338.30124886533196" cy="110.23321914561592" style="fill: rgb(225, 82, 74);"/><circle class="result" r="6.428571428571429" cx="449.87148096971197" cy="111.96101839929625" style="fill: rgb(225, 82, 74);"/><circle class="result" r="6.428571428571429" cx="533.4715894486338" cy="60.90461627224367" style="fill: rgb(225, 82, 74);"/><circle class="result" r="5" cx="719.8185075492057" cy="59.98255967320858" style="fill: rgb(158, 1, 66);"/><circle class="result" r="5" cx="809.7318608714771" cy="111.94464869944898" style="fill: rgb(158, 1, 66);"/><circle class="result" r="5" cx="189.12536371461528" cy="370.9412753032433" style="fill: rgb(158, 1, 66);"/><circle class="result" r="5" cx="71.61826341930873" cy="707.5721218365875" style="fill: rgb(158, 1, 66);"/><circle class="result" r="5" cx="55.1352276235719" cy="369.280986957531" style="fill: rgb(158, 1, 66);"/><circle class="result" r="13.571428571428571" cx="509.9016270210155" cy="631.3523861095964" style="fill: rgb(75, 160, 177);"/><circle class="result" r="13.571428571428571" cx="539.8263699548811" cy="683.367145606423" style="fill: rgb(75, 160, 177);"/><circle class="result" r="13.571428571428571" cx="809.7323986476117" cy="631.349746982023" style="fill: rgb(75, 160, 177);"/><circle class="result" r="12.142857142857142" cx="749.8095520774439" cy="527.5084088153806" style="fill: rgb(160, 217, 163);"/><circle class="result" r="12.142857142857142" cx="659.7770775389566" cy="475.5238592869971" style="fill: rgb(160, 217, 163);"/><circle class="result" r="12.142857142857142" cx="299.9047507093612" cy="475.4523295240051" style="fill: rgb(160, 217, 163);"/></g><g transform="translate(50 800)"><g transform="translate(0 0)"><circle cx="0" cy="0" r="13.571428571428571" style="fill: rgb(75, 160, 177);"/><text x="0" y="30" style="fill: rgb(153, 153, 153); font-family: sans-serif; font-size: 12px; text-anchor: middle;">O</text></g><g transform="translate(30 0)"><circle cx="0" cy="0" r="12.142857142857142" style="fill: rgb(160, 217, 163);"/><text x="0" y="30" style="fill: rgb(153, 153, 153); font-family: sans-serif; font-size: 12px; text-anchor: middle;">B</text></g><g transform="translate(60 0)"><circle cx="0" cy="0" r="10.714285714285715" style="fill: rgb(235, 247, 166);"/><text x="0" y="30" style="fill: rgb(153, 153, 153); font-family: sans-serif; font-size: 12px; text-anchor: middle;">A</text></g><g transform="translate(90 0)"><circle cx="0" cy="0" r="9.285714285714285" style="fill: rgb(254, 232, 154);"/><text x="0" y="30" style="fill: rgb(153, 153, 153); font-family: sans-serif; font-size: 12px; text-anchor: middle;">F</text></g><g transform="translate(120 0)"><circle cx="0" cy="0" r="7.857142857142858" style="fill: rgb(251, 163, 94);"/><text x="0" y="30" style="fill: rgb(153, 153, 153); font-family: sans-serif; font-size: 12px; text-anchor: middle;">G</text></g><g transform="translate(150 0)"><circle cx="0" cy="0" r="6.428571428571429" style="fill: rgb(225, 82, 74);"/><text x="0" y="30" style="fill: rgb(153, 153, 153); font-family: sans-serif; font-size: 12px; text-anchor: middle;">K</text></g><g transform="translate(180 0)"><circle cx="0" cy="0" r="5" style="fill: rgb(158, 1, 66);"/><text x="0" y="30" style="fill: rgb(153, 153, 153); font-family: sans-serif; font-size: 12px; text-anchor: middle;">M</text><text x="20" y="30" style="fill: rgb(153, 153, 153); font-family: sans-serif; font-size: 12px; text-anchor: start;">spectral types</text></g></g></svg>