<?xml version="1.0" standalone="no"?><!DOCTYPE svg PUBLIC "-//W3C//DTD SVG 1.1//EN" "http://www.w3.org/Graphics/SVG/1.1/DTD/svg11.dtd"><svg width="100%" height="100%" viewBox="0 0 900 900" style="background-color: rgb(25, 38, 109);" version="1.1" xmlns="http://www.w3.org/2000/svg" xmlns:xlink="http://www.w3.org/1999/xlink"><defs xmlns="http://www.w3.org/1999/xhtml"><style type="text/css"><![CDATA[]]></style></defs><defs><filter id="glow"><feGaussianBlur stdDeviation="6" result="coloredBlur"/><feMerge><feMergeNode in="coloredBlur"/><feMergeNode in="SourceGraphic"/></feMerge></filter></defs><g><path d="M60,25.358983848622458L90,42.67949192431123L90,77.32050807568876L60,94.64101615137754L30.000000000000007,77.32050807568878L29.99999999999999,42.67949192431125L59.99999999999999,25.358983848622458L89.99999999999999,42.679491924311215" style="fill: none; stroke: rgb(153, 153, 153);"/><path d="M120,25.358983848622458L150,42.67949192431123L150,77.32050807568876L120,94.64101615137754L90,77.32050807568878L89.99999999999999,42.67949192431125L120,25.358983848622458L150,42.679491924311215" style="fill: none; stroke: rgb(153, 153, 153);"/><path d="M180,25.358983848622458L210,42.67949192431123L210,77.32050807568876L180,94.64101615137754L150,77.32050807568878L150,42.67949192431125L180,25.358983848622458L210,42.679491924311215" style="fill: none; stroke: rgb(153, 153, 153);"/><path d="M240,25.358983848622458L270,42.67949192431123L270,77.32050807568876L240,94.64101615137754L210,77.32050807568878L210,42.67949192431125L240,25.358983848622458L270,42.679491924311215" style="fill: none; stroke: rgb(153, 153, 153);"/><path d="M300,25.358983848622458L330,42.67949192431123L330,77.32050807568876L300,94.64101615137754L270,77.32050807568878L270,42.67949192431125L300,25.358983848622458L330,42.679491924311215" style="fill: none; stroke: rgb(153, 153, 153);"/><path d="M360,25.358983848622458L390,42.67949192431123L390,77.32050807568876L360,94.64101615137754L330,77.32050807568878L330,42.67949192431125L360,25.358983848622458L390,42.679491924311215" style="fill: none; stroke: rgb(153, 153, 153);"/><path d="M420,25.358983848622458L450,42.67949192431123L450,77.32050807568876L420,94.64101615137754L390,77.32050807568878L390,42.67949192431125L420,25.358983848622458L450,42.679491924311215" style="fill: none; stroke: rgb(153, 153, 153);"/><path d="M480,25.358983848622458L510,42.67949192431123L510,77.32050807568876L480,94.64101615137754L450,77.32050807568878L450,42.67949192431125L480,25.358983848622458L510,42.679491924311215" style="fill: none; stroke: rgb(153, 153, 153);"/><path d="M540,25.358983848622458L570,42.67949192431123L570,77.32050807568876L540,94.64101615137754L510,77.32050807568878L510,42.67949192431125L540,25.358983848622458L570,42.679491924311215" style="fill: none; stroke: rgb(153, 153, 153);"/><path d="M600,25.358983848622458L630,42.67949192431123L630,77.32050807568876L600,94.64101615137754L570,77.32050807568878L570,42.67949192431125L600,25.358983848622458L630,42.679491924311215" style="fill: none; stroke: rgb(153, 153, 153);"/><path d="M660,25.358983848622458L690,42.67949192431123L690,77.32050807568876L660,94.64101615137754L630,77.32050807568878L630,42.67949192431125L660,25.358983848622458L690,42.679491924311215" style="fill: none; stroke: rgb(153, 153, 153);"/><path d="M720,25.358983848622458L750,42.67949192431123L750,77.32050807568876L720,94.64101615137754L690,77.32050807568878L690,42.67949192431125L720,25.358983848622458L750,42.679491924311215" style="fill: none; stroke: rgb(153, 153, 153);"/><path d="M780,25.358983848622458L810,42.67949192431123L810,77.32050807568876L780,94.64101615137754L750,77.32050807568878L750,42.67949192431125L780,25.358983848622458L810,42.679491924311215" style="fill: none; stroke: rgb(153, 153, 153);"/><path d="M90,77.32050807568878L120,94.64101615137756L120,129.28203230275508L90,146.60254037844385L60.00000000000001,129.2820323027551L59.999999999999986,94.64101615137757L90,77.32050807568878L119.99999999999999,94.64101615137753" style="fill: none; stroke: rgb(153, 153, 153);"/><path d="M150,77.32050807568878L180,94.64101615137756L180,129.28203230275508L150,146.60254037844385L120,129.2820323027551L119.99999999999999,94.64101615137757L150,77.32050807568878L180,94.64101615137753" style="fill: none; stroke: rgb(153, 153, 153);"/><path d="M210,77.32050807568878L240,94.64101615137756L240,129.28203230275508L210,146.60254037844385L180,129.2820323027551L180,94.64101615137757L210,77.32050807568878L240,94.64101615137753" style="fill: none; stroke: rgb(153, 153, 153);"/><path d="M270,77.32050807568878L300,94.64101615137756L300,129.28203230275508L270,146.60254037844385L240,129.2820323027551L240,94.64101615137757L270,77.32050807568878L300,94.64101615137753" style="fill: none; stroke: rgb(153, 153, 153);"/><path d="M330,77.32050807568878L360,94.64101615137756L360,129.28203230275508L330,146.60254037844385L300,129.2820323027551L300,94.64101615137757L330,77.32050807568878L360,94.64101615137753" style="fill: none; stroke: rgb(153, 153, 153);"/><path d="M390,77.32050807568878L420,94.64101615137756L420,129.28203230275508L390,146.60254037844385L360,129.2820323027551L360,94.64101615137757L390,77.32050807568878L420,94.64101615137753" style="fill: none; stroke: rgb(153, 153, 153);"/><path d="M450,77.32050807568878L480,94.64101615137756L480,129.28203230275508L450,146.60254037844385L420,129.2820323027551L420,94.64101615137757L450,77.32050807568878L480,94.64101615137753" style="fill: none; stroke: rgb(153, 153, 153);"/><path d="M510,77.32050807568878L540,94.64101615137756L540,129.28203230275508L510,146.60254037844385L480,129.2820323027551L480,94.64101615137757L510,77.32050807568878L540,94.64101615137753" style="fill: none; stroke: rgb(153, 153, 153);"/><path d="M570,77.32050807568878L600,94.64101615137756L600,129.28203230275508L570,146.60254037844385L540,129.2820323027551L540,94.64101615137757L570,77.32050807568878L600,94.64101615137753" style="fill: none; stroke: rgb(153, 153, 153);"/><path d="M630,77.32050807568878L660,94.64101615137756L660,129.28203230275508L630,146.60254037844385L600,129.2820323027551L600,94.64101615137757L630,77.32050807568878L660,94.64101615137753" style="fill: none; stroke: rgb(153, 153, 153);"/><path d="M690,77.32050807568878L720,94.64101615137756L720,129.28203230275508L690,146.60254037844385L660,129.2820323027551L660,94.64101615137757L690,77.32050807568878L720,94.64101615137753" style="fill: none; stroke: rgb(153, 153, 153);"/><path d="M750,77.32050807568878L780,94.64101615137756L780,129.28203230275508L750,146.60254037844385L720,129.2820323027551L720,94.64101615137757L750,77.32050807568878L780,94.64101615137753" style="fill: none; stroke: rgb(153, 153, 153);"/><path d="M810,77.32050807568878L840,94.64101615137756L840,129.28203230275508L810,146.60254037844385L780,129.2820323027551L780,94.64101615137757L810,77.32050807568878L840,94.64101615137753" style="fill: none; stroke: rgb(153, 153, 153);"/><path d="M60,129.2820323027551L90,146.60254037844388L90,181.2435565298214L60,198.56406460551017L30.000000000000007,181.24355652982143L29.99999999999999,146.6025403784439L59.99999999999999,129.2820323027551L89.99999999999999,146.60254037844385" style="fill: none; stroke: rgb(153, 153, 153);"/><path d="M120,129.2820323027551L150,146.60254037844388L150,181.2435565298214L120,198.56406460551017L90,181.24355652982143L89.99999999999999,146.6025403784439L120,129.2820323027551L150,146.60254037844385" style="fill: none; stroke: rgb(153, 153, 153);"/><path d="M180,129.2820323027551L210,146.60254037844388L210,181.2435565298214L180,198.56406460551017L150,181.24355652982143L150,146.6025403784439L180,129.2820323027551L210,146.60254037844385" style="fill: none; stroke: rgb(153, 153, 153);"/><path d="M240,129.2820323027551L270,146.60254037844388L270,181.2435565298214L240,198.56406460551017L210,181.24355652982143L210,146.6025403784439L240,129.2820323027551L270,146.60254037844385" style="fill: none; stroke: rgb(153, 153, 153);"/><path d="M300,129.2820323027551L330,146.60254037844388L330,181.2435565298214L300,198.56406460551017L270,181.24355652982143L270,146.6025403784439L300,129.2820323027551L330,146.60254037844385" style="fill: none; stroke: rgb(153, 153, 153);"/><path d="M360,129.2820323027551L390,146.60254037844388L390,181.2435565298214L360,198.56406460551017L330,181.24355652982143L330,146.6025403784439L360,129.2820323027551L390,146.60254037844385" style="fill: none; stroke: rgb(153, 153, 153);"/><path d="M420,129.2820323027551L450,146.60254037844388L450,181.2435565298214L420,198.56406460551017L390,181.24355652982143L390,146.6025403784439L420,129.2820323027551L450,146.60254037844385" style="fill: none; stroke: rgb(153, 153, 153);"/><path d="M480,129.2820323027551L510,146.60254037844388L510,181.2435565298214L480,198.56406460551017L450,181.24355652982143L450,146.6025403784439L480,129.2820323027551L510,146.60254037844385" style="fill: none; stroke: rgb(153, 153, 153);"/><path d="M540,129.2820323027551L570,146.60254037844388L570,181.2435565298214L540,198.56406460551017L510,181.24355652982143L510,146.6025403784439L540,129.2820323027551L570,146.60254037844385" style="fill: none; stroke: rgb(153, 153, 153);"/><path d="M600,129.2820323027551L630,146.60254037844388L630,181.2435565298214L600,198.56406460551017L570,181.24355652982143L570,146.6025403784439L600,129.2820323027551L630,146.60254037844385" style="fill: none; stroke: rgb(153, 153, 153);"/><path d="M660,129.2820323027551L690,146.60254037844388L690,181.2435565298214L660,198.56406460551017L630,181.24355652982143L630,146.6025403784439L660,129.2820323027551L690,146.60254037844385" style="fill: none; stroke: rgb(153, 153, 153);"/><path d="M720,129.2820323027551L750,146.60254037844388L750,181.2435565298214L720,198.56406460551017L690,181.24355652982143L690,146.6025403784439L720,129.2820323027551L750,146.60254037844385" style="fill: none; stroke: rgb(153, 153, 153);"/><path d="M780,129.2820323027551L810,146.60254037844388L810,181.2435565298214L780,198.56406460551017L750,181.24355652982143L750,146.6025403784439L780,129.2820323027551L810,146.60254037844385" style="fill: none; stroke: rgb(153, 153, 153);"/><path d="M90,181.24355652982143L120,198.5640646055102L120,233.20508075688772L90,250.5255888325765L60.00000000000001,233.20508075688775L59.999999999999986,198.56406460551023L90,181.24355652982143L119.99999999999999,198.56406460551017" style="fill: none; stroke: rgb(153, 153, 153);"/><path d="M150,181.24355652982143L180,198.5640646055102L180,233.20508075688772L150,250.5255888325765L120,233.20508075688775L119.99999999999999,198.56406460551023L150,181.24355652982143L180,198.56406460551017" style="fill: none; stroke: rgb(153, 153, 153);"/><path d="M210,181.24355652982143L240,198.5640646055102L240,233.20508075688772L210,250.5255888325765L180,233.20508075688775L180,198.56406460551023L210,181.24355652982143L240,198.56406460551017" style="fill: none; stroke: rgb(153, 153, 153);"/><path d="M270,181.24355652982143L300,198.5640646055102L300,233.20508075688772L270,250.5255888325765L240,233.20508075688775L240,198.56406460551023L270,181.24355652982143L300,198.56406460551017" style="fill: none; stroke: rgb(153, 153, 153);"/><path d="M330,181.24355652982143L360,198.5640646055102L360,233.20508075688772L330,250.5255888325765L300,233.20508075688775L300,198.56406460551023L330,181.24355652982143L360,198.56406460551017" style="fill: none; stroke: rgb(153, 153, 153);"/><path d="M390,181.24355652982143L420,198.5640646055102L420,233.20508075688772L390,250.5255888325765L360,233.20508075688775L360,198.56406460551023L390,181.24355652982143L420,198.56406460551017" style="fill: none; stroke: rgb(153, 153, 153);"/><path d="M450,181.24355652982143L480,198.5640646055102L480,233.20508075688772L450,250.5255888325765L420,233.20508075688775L420,198.56406460551023L450,181.24355652982143L480,198.56406460551017" style="fill: none; stroke: rgb(153, 153, 153);"/><path d="M510,181.24355652982143L540,198.5640646055102L540,233.20508075688772L510,250.5255888325765L480,233.20508075688775L480,198.56406460551023L510,181.24355652982143L540,198.56406460551017" style="fill: none; stroke: rgb(153, 153, 153);"/><path d="M570,181.24355652982143L600,198.5640646055102L600,233.20508075688772L570,250.5255888325765L540,233.20508075688775L540,198.56406460551023L570,181.24355652982143L600,198.56406460551017" style="fill: none; stroke: rgb(153, 153, 153);"/><path d="M630,181.24355652982143L660,198.5640646055102L660,233.20508075688772L630,250.5255888325765L600,233.20508075688775L600,198.56406460551023L630,181.24355652982143L660,198.56406460551017" style="fill: none; stroke: rgb(153, 153, 153);"/><path d="M690,181.24355652982143L720,198.5640646055102L720,233.20508075688772L690,250.5255888325765L660,233.20508075688775L660,198.56406460551023L690,181.24355652982143L720,198.56406460551017" style="fill: none; stroke: rgb(153, 153, 153);"/><path d="M750,181.24355652982143L780,198.5640646055102L780,233.20508075688772L750,250.5255888325765L720,233.20508075688775L720,198.56406460551023L750,181.24355652982143L780,198.56406460551017" style="fill: none; stroke: rgb(153, 153, 153);"/><path d="M810,181.24355652982143L840,198.5640646055102L840,233.20508075688772L810,250.5255888325765L780,233.20508075688775L780,198.56406460551023L810,181.24355652982143L840,198.56406460551017" style="fill: none; stroke: rgb(153, 153, 153);"/><path d="M60,233.20508075688775L90,250.52558883257652L90,285.166604983954L60,302.4871130596428L30.000000000000007,285.1666049839541L29.99999999999999,250.52558883257655L59.99999999999999,233.20508075688775L89.99999999999999,250.5255888325765" style="fill: none; stroke: rgb(153, 153, 153);"/><path d="M120,233.20508075688775L150,250.52558883257652L150,285.166604983954L120,302.4871130596428L90,285.1666049839541L89.99999999999999,250.52558883257655L120,233.20508075688775L150,250.5255888325765" style="fill: none; stroke: rgb(153, 153, 153);"/><path d="M180,233.20508075688775L210,250.52558883257652L210,285.166604983954L180,302.4871130596428L150,285.1666049839541L150,250.52558883257655L180,233.20508075688775L210,250.5255888325765" style="fill: none; stroke: rgb(153, 153, 153);"/><path d="M240,233.20508075688775L270,250.52558883257652L270,285.166604983954L240,302.4871130596428L210,285.1666049839541L210,250.52558883257655L240,233.20508075688775L270,250.5255888325765" style="fill: none; stroke: rgb(153, 153, 153);"/><path d="M300,233.20508075688775L330,250.52558883257652L330,285.166604983954L300,302.4871130596428L270,285.1666049839541L270,250.52558883257655L300,233.20508075688775L330,250.5255888325765" style="fill: none; stroke: rgb(153, 153, 153);"/><path d="M360,233.20508075688775L390,250.52558883257652L390,285.166604983954L360,302.4871130596428L330,285.1666049839541L330,250.52558883257655L360,233.20508075688775L390,250.5255888325765" style="fill: none; stroke: rgb(153, 153, 153);"/><path d="M420,233.20508075688775L450,250.52558883257652L450,285.166604983954L420,302.4871130596428L390,285.1666049839541L390,250.52558883257655L420,233.20508075688775L450,250.5255888325765" style="fill: none; stroke: rgb(153, 153, 153);"/><path d="M480,233.20508075688775L510,250.52558883257652L510,285.166604983954L480,302.4871130596428L450,285.1666049839541L450,250.52558883257655L480,233.20508075688775L510,250.5255888325765" style="fill: none; stroke: rgb(153, 153, 153);"/><path d="M540,233.20508075688775L570,250.52558883257652L570,285.166604983954L540,302.4871130596428L510,285.1666049839541L510,250.52558883257655L540,233.20508075688775L570,250.5255888325765" style="fill: none; stroke: rgb(153, 153, 153);"/><path d="M600,233.20508075688775L630,250.52558883257652L630,285.166604983954L600,302.4871130596428L570,285.1666049839541L570,250.52558883257655L600,233.20508075688775L630,250.5255888325765" style="fill: none; stroke: rgb(153, 153, 153);"/><path d="M660,233.20508075688775L690,250.52558883257652L690,285.166604983954L660,302.4871130596428L630,285.1666049839541L630,250.52558883257655L660,233.20508075688775L690,250.5255888325765" style="fill: none; stroke: rgb(153, 153, 153);"/><path d="M720,233.20508075688775L750,250.52558883257652L750,285.166604983954L720,302.4871130596428L690,285.1666049839541L690,250.52558883257655L720,233.20508075688775L750,250.5255888325765" style="fill: none; stroke: rgb(153, 153, 153);"/><path d="M780,233.20508075688775L810,250.52558883257652L810,285.166604983954L780,302.4871130596428L750,285.1666049839541L750,250.52558883257655L780,233.20508075688775L810,250.5255888325765" style="fill: none; stroke: rgb(153, 153, 153);"/><path d="M90,285.166604983954L120,302.48711305964275L120,337.12812921102034L90,354.4486372867091L60.00000000000001,337.12812921102034L59.999999999999986,302.4871130596428L90,285.166604983954L119.99999999999999,302.48711305964275" style="fill: none; stroke: rgb(153, 153, 153);"/><path d="M150,285.166604983954L180,302.48711305964275L180,337.12812921102034L150,354.4486372867091L120,337.12812921102034L119.99999999999999,302.4871130596428L150,285.166604983954L180,302.48711305964275" style="fill: none; stroke: rgb(153, 153, 153);"/><path d="M210,285.166604983954L240,302.48711305964275L240,337.12812921102034L210,354.4486372867091L180,337.12812921102034L180,302.4871130596428L210,285.166604983954L240,302.48711305964275" style="fill: none; stroke: rgb(153, 153, 153);"/><path d="M270,285.166604983954L300,302.48711305964275L300,337.12812921102034L270,354.4486372867091L240,337.12812921102034L240,302.4871130596428L270,285.166604983954L300,302.48711305964275" style="fill: none; stroke: rgb(153, 153, 153);"/><path d="M330,285.166604983954L360,302.48711305964275L360,337.12812921102034L330,354.4486372867091L300,337.12812921102034L300,302.4871130596428L330,285.166604983954L360,302.48711305964275" style="fill: none; stroke: rgb(153, 153, 153);"/><path d="M390,285.166604983954L420,302.48711305964275L420,337.12812921102034L390,354.4486372867091L360,337.12812921102034L360,302.4871130596428L390,285.166604983954L420,302.48711305964275" style="fill: none; stroke: rgb(153, 153, 153);"/><path d="M450,285.166604983954L480,302.48711305964275L480,337.12812921102034L450,354.4486372867091L420,337.12812921102034L420,302.4871130596428L450,285.166604983954L480,302.48711305964275" style="fill: none; stroke: rgb(153, 153, 153);"/><path d="M510,285.166604983954L540,302.48711305964275L540,337.12812921102034L510,354.4486372867091L480,337.12812921102034L480,302.4871130596428L510,285.166604983954L540,302.48711305964275" style="fill: none; stroke: rgb(153, 153, 153);"/><path d="M570,285.166604983954L600,302.48711305964275L600,337.12812921102034L570,354.4486372867091L540,337.12812921102034L540,302.4871130596428L570,285.166604983954L600,302.48711305964275" style="fill: none; stroke: rgb(153, 153, 153);"/><path d="M630,285.166604983954L660,302.48711305964275L660,337.12812921102034L630,354.4486372867091L600,337.12812921102034L600,302.4871130596428L630,285.166604983954L660,302.48711305964275" style="fill: none; stroke: rgb(153, 153, 153);"/><path d="M690,285.166604983954L720,302.48711305964275L720,337.12812921102034L690,354.4486372867091L660,337.12812921102034L660,302.4871130596428L690,285.166604983954L720,302.48711305964275" style="fill: none; stroke: rgb(153, 153, 153);"/><path d="M750,285.166604983954L780,302.48711305964275L780,337.12812921102034L750,354.4486372867091L720,337.12812921102034L720,302.4871130596428L750,285.166604983954L780,302.48711305964275" style="fill: none; stroke: rgb(153, 153, 153);"/><path d="M810,285.166604983954L840,302.48711305964275L840,337.12812921102034L810,354.4486372867091L780,337.12812921102034L780,302.4871130596428L810,285.166604983954L840,302.48711305964275" style="fill: none; stroke: rgb(153, 153, 153);"/><path d="M60,337.1281292110204L90,354.44863728670913L90,389.08965343808666L60,406.41016151377545L30.000000000000007,389.0896534380867L29.99999999999999,354.4486372867092L59.99999999999999,337.1281292110204L89.99999999999999,354.44863728670913" style="fill: none; stroke: rgb(153, 153, 153);"/><path d="M120,337.1281292110204L150,354.44863728670913L150,389.08965343808666L120,406.41016151377545L90,389.0896534380867L89.99999999999999,354.4486372867092L120,337.1281292110204L150,354.44863728670913" style="fill: none; stroke: rgb(153, 153, 153);"/><path d="M180,337.1281292110204L210,354.44863728670913L210,389.08965343808666L180,406.41016151377545L150,389.0896534380867L150,354.4486372867092L180,337.1281292110204L210,354.44863728670913" style="fill: none; stroke: rgb(153, 153, 153);"/><path d="M240,337.1281292110204L270,354.44863728670913L270,389.08965343808666L240,406.41016151377545L210,389.0896534380867L210,354.4486372867092L240,337.1281292110204L270,354.44863728670913" style="fill: none; stroke: rgb(153, 153, 153);"/><path d="M300,337.1281292110204L330,354.44863728670913L330,389.08965343808666L300,406.41016151377545L270,389.0896534380867L270,354.4486372867092L300,337.1281292110204L330,354.44863728670913" style="fill: none; stroke: rgb(153, 153, 153);"/><path d="M360,337.1281292110204L390,354.44863728670913L390,389.08965343808666L360,406.41016151377545L330,389.0896534380867L330,354.4486372867092L360,337.1281292110204L390,354.44863728670913" style="fill: none; stroke: rgb(153, 153, 153);"/><path d="M420,337.1281292110204L450,354.44863728670913L450,389.08965343808666L420,406.41016151377545L390,389.0896534380867L390,354.4486372867092L420,337.1281292110204L450,354.44863728670913" style="fill: none; stroke: rgb(153, 153, 153);"/><path d="M480,337.1281292110204L510,354.44863728670913L510,389.08965343808666L480,406.41016151377545L450,389.0896534380867L450,354.4486372867092L480,337.1281292110204L510,354.44863728670913" style="fill: none; stroke: rgb(153, 153, 153);"/><path d="M540,337.1281292110204L570,354.44863728670913L570,389.08965343808666L540,406.41016151377545L510,389.0896534380867L510,354.4486372867092L540,337.1281292110204L570,354.44863728670913" style="fill: none; stroke: rgb(153, 153, 153);"/><path d="M600,337.1281292110204L630,354.44863728670913L630,389.08965343808666L600,406.41016151377545L570,389.0896534380867L570,354.4486372867092L600,337.1281292110204L630,354.44863728670913" style="fill: none; stroke: rgb(153, 153, 153);"/><path d="M660,337.1281292110204L690,354.44863728670913L690,389.08965343808666L660,406.41016151377545L630,389.0896534380867L630,354.4486372867092L660,337.1281292110204L690,354.44863728670913" style="fill: none; stroke: rgb(153, 153, 153);"/><path d="M720,337.1281292110204L750,354.44863728670913L750,389.08965343808666L720,406.41016151377545L690,389.0896534380867L690,354.4486372867092L720,337.1281292110204L750,354.44863728670913" style="fill: none; stroke: rgb(153, 153, 153);"/><path d="M780,337.1281292110204L810,354.44863728670913L810,389.08965343808666L780,406.41016151377545L750,389.0896534380867L750,354.4486372867092L780,337.1281292110204L810,354.44863728670913" style="fill: none; stroke: rgb(153, 153, 153);"/><path d="M90,389.0896534380867L120,406.41016151377545L120,441.051177665153L90,458.37168574084177L60.00000000000001,441.05117766515303L59.999999999999986,406.4101615137755L90,389.0896534380867L119.99999999999999,406.41016151377545" style="fill: none; stroke: rgb(153, 153, 153);"/><path d="M150,389.0896534380867L180,406.41016151377545L180,441.051177665153L150,458.37168574084177L120,441.05117766515303L119.99999999999999,406.4101615137755L150,389.0896534380867L180,406.41016151377545" style="fill: none; stroke: rgb(153, 153, 153);"/><path d="M210,389.0896534380867L240,406.41016151377545L240,441.051177665153L210,458.37168574084177L180,441.05117766515303L180,406.4101615137755L210,389.0896534380867L240,406.41016151377545" style="fill: none; stroke: rgb(153, 153, 153);"/><path d="M270,389.0896534380867L300,406.41016151377545L300,441.051177665153L270,458.37168574084177L240,441.05117766515303L240,406.4101615137755L270,389.0896534380867L300,406.41016151377545" style="fill: none; stroke: rgb(153, 153, 153);"/><path d="M330,389.0896534380867L360,406.41016151377545L360,441.051177665153L330,458.37168574084177L300,441.05117766515303L300,406.4101615137755L330,389.0896534380867L360,406.41016151377545" style="fill: none; stroke: rgb(153, 153, 153);"/><path d="M390,389.0896534380867L420,406.41016151377545L420,441.051177665153L390,458.37168574084177L360,441.05117766515303L360,406.4101615137755L390,389.0896534380867L420,406.41016151377545" style="fill: none; stroke: rgb(153, 153, 153);"/><path d="M450,389.0896534380867L480,406.41016151377545L480,441.051177665153L450,458.37168574084177L420,441.05117766515303L420,406.4101615137755L450,389.0896534380867L480,406.41016151377545" style="fill: none; stroke: rgb(153, 153, 153);"/><path d="M510,389.0896534380867L540,406.41016151377545L540,441.051177665153L510,458.37168574084177L480,441.05117766515303L480,406.4101615137755L510,389.0896534380867L540,406.41016151377545" style="fill: none; stroke: rgb(153, 153, 153);"/><path d="M570,389.0896534380867L600,406.41016151377545L600,441.051177665153L570,458.37168574084177L540,441.05117766515303L540,406.4101615137755L570,389.0896534380867L600,406.41016151377545" style="fill: none; stroke: rgb(153, 153, 153);"/><path d="M630,389.0896534380867L660,406.41016151377545L660,441.051177665153L630,458.37168574084177L600,441.05117766515303L600,406.4101615137755L630,389.0896534380867L660,406.41016151377545" style="fill: none; stroke: rgb(153, 153, 153);"/><path d="M690,389.0896534380867L720,406.41016151377545L720,441.051177665153L690,458.37168574084177L660,441.05117766515303L660,406.4101615137755L690,389.0896534380867L720,406.41016151377545" style="fill: none; stroke: rgb(153, 153, 153);"/><path d="M750,389.0896534380867L780,406.41016151377545L780,441.051177665153L750,458.37168574084177L720,441.05117766515303L720,406.4101615137755L750,389.0896534380867L780,406.41016151377545" style="fill: none; stroke: rgb(153, 153, 153);"/><path d="M810,389.0896534380867L840,406.41016151377545L840,441.051177665153L810,458.37168574084177L780,441.05117766515303L780,406.4101615137755L810,389.0896534380867L840,406.41016151377545" style="fill: none; stroke: rgb(153, 153, 153);"/><path d="M60,441.051177665153L90,458.3716857408417L90,493.0127018922193L60,510.33320996790803L30.000000000000007,493.0127018922193L29.99999999999999,458.37168574084177L59.99999999999999,441.051177665153L89.99999999999999,458.3716857408417" style="fill: none; stroke: rgb(153, 153, 153);"/><path d="M120,441.051177665153L150,458.3716857408417L150,493.0127018922193L120,510.33320996790803L90,493.0127018922193L89.99999999999999,458.37168574084177L120,441.051177665153L150,458.3716857408417" style="fill: none; stroke: rgb(153, 153, 153);"/><path d="M180,441.051177665153L210,458.3716857408417L210,493.0127018922193L180,510.33320996790803L150,493.0127018922193L150,458.37168574084177L180,441.051177665153L210,458.3716857408417" style="fill: none; stroke: rgb(153, 153, 153);"/><path d="M240,441.051177665153L270,458.3716857408417L270,493.0127018922193L240,510.33320996790803L210,493.0127018922193L210,458.37168574084177L240,441.051177665153L270,458.3716857408417" style="fill: none; stroke: rgb(153, 153, 153);"/><path d="M300,441.051177665153L330,458.3716857408417L330,493.0127018922193L300,510.33320996790803L270,493.0127018922193L270,458.37168574084177L300,441.051177665153L330,458.3716857408417" style="fill: none; stroke: rgb(153, 153, 153);"/><path d="M360,441.051177665153L390,458.3716857408417L390,493.0127018922193L360,510.33320996790803L330,493.0127018922193L330,458.37168574084177L360,441.051177665153L390,458.3716857408417" style="fill: none; stroke: rgb(153, 153, 153);"/><path d="M420,441.051177665153L450,458.3716857408417L450,493.0127018922193L420,510.33320996790803L390,493.0127018922193L390,458.37168574084177L420,441.051177665153L450,458.3716857408417" style="fill: none; stroke: rgb(153, 153, 153);"/><path d="M480,441.051177665153L510,458.3716857408417L510,493.0127018922193L480,510.33320996790803L450,493.0127018922193L450,458.37168574084177L480,441.051177665153L510,458.3716857408417" style="fill: none; stroke: rgb(153, 153, 153);"/><path d="M540,441.051177665153L570,458.3716857408417L570,493.0127018922193L540,510.33320996790803L510,493.0127018922193L510,458.37168574084177L540,441.051177665153L570,458.3716857408417" style="fill: none; stroke: rgb(153, 153, 153);"/><path d="M600,441.051177665153L630,458.3716857408417L630,493.0127018922193L600,510.33320996790803L570,493.0127018922193L570,458.37168574084177L600,441.051177665153L630,458.3716857408417" style="fill: none; stroke: rgb(153, 153, 153);"/><path d="M660,441.051177665153L690,458.3716857408417L690,493.0127018922193L660,510.33320996790803L630,493.0127018922193L630,458.37168574084177L660,441.051177665153L690,458.3716857408417" style="fill: none; stroke: rgb(153, 153, 153);"/><path d="M720,441.051177665153L750,458.3716857408417L750,493.0127018922193L720,510.33320996790803L690,493.0127018922193L690,458.37168574084177L720,441.051177665153L750,458.3716857408417" style="fill: none; stroke: rgb(153, 153, 153);"/><path d="M780,441.051177665153L810,458.3716857408417L810,493.0127018922193L780,510.33320996790803L750,493.0127018922193L750,458.37168574084177L780,441.051177665153L810,458.3716857408417" style="fill: none; stroke: rgb(153, 153, 153);"/><path d="M90,493.01270189221935L120,510.3332099679081L120,544.9742261192856L90,562.2947341949745L60.00000000000001,544.9742261192856L59.999999999999986,510.33320996790815L90,493.01270189221935L119.99999999999999,510.3332099679081" style="fill: none; stroke: rgb(153, 153, 153);"/><path d="M150,493.01270189221935L180,510.3332099679081L180,544.9742261192856L150,562.2947341949745L120,544.9742261192856L119.99999999999999,510.33320996790815L150,493.01270189221935L180,510.3332099679081" style="fill: none; stroke: rgb(153, 153, 153);"/><path d="M210,493.01270189221935L240,510.3332099679081L240,544.9742261192856L210,562.2947341949745L180,544.9742261192856L180,510.33320996790815L210,493.01270189221935L240,510.3332099679081" style="fill: none; stroke: rgb(153, 153, 153);"/><path d="M270,493.01270189221935L300,510.3332099679081L300,544.9742261192856L270,562.2947341949745L240,544.9742261192856L240,510.33320996790815L270,493.01270189221935L300,510.3332099679081" style="fill: none; stroke: rgb(153, 153, 153);"/><path d="M330,493.01270189221935L360,510.3332099679081L360,544.9742261192856L330,562.2947341949745L300,544.9742261192856L300,510.33320996790815L330,493.01270189221935L360,510.3332099679081" style="fill: none; stroke: rgb(153, 153, 153);"/><path d="M390,493.01270189221935L420,510.3332099679081L420,544.9742261192856L390,562.2947341949745L360,544.9742261192856L360,510.33320996790815L390,493.01270189221935L420,510.3332099679081" style="fill: none; stroke: rgb(153, 153, 153);"/><path d="M450,493.01270189221935L480,510.3332099679081L480,544.9742261192856L450,562.2947341949745L420,544.9742261192856L420,510.33320996790815L450,493.01270189221935L480,510.3332099679081" style="fill: none; stroke: rgb(153, 153, 153);"/><path d="M510,493.01270189221935L540,510.3332099679081L540,544.9742261192856L510,562.2947341949745L480,544.9742261192856L480,510.33320996790815L510,493.01270189221935L540,510.3332099679081" style="fill: none; stroke: rgb(153, 153, 153);"/><path d="M570,493.01270189221935L600,510.3332099679081L600,544.9742261192856L570,562.2947341949745L540,544.9742261192856L540,510.33320996790815L570,493.01270189221935L600,510.3332099679081" style="fill: none; stroke: rgb(153, 153, 153);"/><path d="M630,493.01270189221935L660,510.3332099679081L660,544.9742261192856L630,562.2947341949745L600,544.9742261192856L600,510.33320996790815L630,493.01270189221935L660,510.3332099679081" style="fill: none; stroke: rgb(153, 153, 153);"/><path d="M690,493.01270189221935L720,510.3332099679081L720,544.9742261192856L690,562.2947341949745L660,544.9742261192856L660,510.33320996790815L690,493.01270189221935L720,510.3332099679081" style="fill: none; stroke: rgb(153, 153, 153);"/><path d="M750,493.01270189221935L780,510.3332099679081L780,544.9742261192856L750,562.2947341949745L720,544.9742261192856L720,510.33320996790815L750,493.01270189221935L780,510.3332099679081" style="fill: none; stroke: rgb(153, 153, 153);"/><path d="M810,493.01270189221935L840,510.3332099679081L840,544.9742261192856L810,562.2947341949745L780,544.9742261192856L780,510.33320996790815L810,493.01270189221935L840,510.3332099679081" style="fill: none; stroke: rgb(153, 153, 153);"/><path d="M60,544.9742261192855L90,562.2947341949744L90,596.9357503463518L60,614.2562584220407L30.000000000000007,596.9357503463518L29.99999999999999,562.2947341949744L59.99999999999999,544.9742261192855L89.99999999999999,562.2947341949744" style="fill: none; stroke: rgb(153, 153, 153);"/><path d="M120,544.9742261192855L150,562.2947341949744L150,596.9357503463518L120,614.2562584220407L90,596.9357503463518L89.99999999999999,562.2947341949744L120,544.9742261192855L150,562.2947341949744" style="fill: none; stroke: rgb(153, 153, 153);"/><path d="M180,544.9742261192855L210,562.2947341949744L210,596.9357503463518L180,614.2562584220407L150,596.9357503463518L150,562.2947341949744L180,544.9742261192855L210,562.2947341949744" style="fill: none; stroke: rgb(153, 153, 153);"/><path d="M240,544.9742261192855L270,562.2947341949744L270,596.9357503463518L240,614.2562584220407L210,596.9357503463518L210,562.2947341949744L240,544.9742261192855L270,562.2947341949744" style="fill: none; stroke: rgb(153, 153, 153);"/><path d="M300,544.9742261192855L330,562.2947341949744L330,596.9357503463518L300,614.2562584220407L270,596.9357503463518L270,562.2947341949744L300,544.9742261192855L330,562.2947341949744" style="fill: none; stroke: rgb(153, 153, 153);"/><path d="M360,544.9742261192855L390,562.2947341949744L390,596.9357503463518L360,614.2562584220407L330,596.9357503463518L330,562.2947341949744L360,544.9742261192855L390,562.2947341949744" style="fill: none; stroke: rgb(153, 153, 153);"/><path d="M420,544.9742261192855L450,562.2947341949744L450,596.9357503463518L420,614.2562584220407L390,596.9357503463518L390,562.2947341949744L420,544.9742261192855L450,562.2947341949744" style="fill: none; stroke: rgb(153, 153, 153);"/><path d="M480,544.9742261192855L510,562.2947341949744L510,596.9357503463518L480,614.2562584220407L450,596.9357503463518L450,562.2947341949744L480,544.9742261192855L510,562.2947341949744" style="fill: none; stroke: rgb(153, 153, 153);"/><path d="M540,544.9742261192855L570,562.2947341949744L570,596.9357503463518L540,614.2562584220407L510,596.9357503463518L510,562.2947341949744L540,544.9742261192855L570,562.2947341949744" style="fill: none; stroke: rgb(153, 153, 153);"/><path d="M600,544.9742261192855L630,562.2947341949744L630,596.9357503463518L600,614.2562584220407L570,596.9357503463518L570,562.2947341949744L600,544.9742261192855L630,562.2947341949744" style="fill: none; stroke: rgb(153, 153, 153);"/><path d="M660,544.9742261192855L690,562.2947341949744L690,596.9357503463518L660,614.2562584220407L630,596.9357503463518L630,562.2947341949744L660,544.9742261192855L690,562.2947341949744" style="fill: none; stroke: rgb(153, 153, 153);"/><path d="M720,544.9742261192855L750,562.2947341949744L750,596.9357503463518L720,614.2562584220407L690,596.9357503463518L690,562.2947341949744L720,544.9742261192855L750,562.2947341949744" style="fill: none; stroke: rgb(153, 153, 153);"/><path d="M780,544.9742261192855L810,562.2947341949744L810,596.9357503463518L780,614.2562584220407L750,596.9357503463518L750,562.2947341949744L780,544.9742261192855L810,562.2947341949744" style="fill: none; stroke: rgb(153, 153, 153);"/><path d="M90,596.9357503463519L120,614.2562584220408L120,648.8972745734183L90,666.2177826491071L60.00000000000001,648.8972745734183L59.999999999999986,614.2562584220408L90,596.9357503463519L119.99999999999999,614.2562584220408" style="fill: none; stroke: rgb(153, 153, 153);"/><path d="M150,596.9357503463519L180,614.2562584220408L180,648.8972745734183L150,666.2177826491071L120,648.8972745734183L119.99999999999999,614.2562584220408L150,596.9357503463519L180,614.2562584220408" style="fill: none; stroke: rgb(153, 153, 153);"/><path d="M210,596.9357503463519L240,614.2562584220408L240,648.8972745734183L210,666.2177826491071L180,648.8972745734183L180,614.2562584220408L210,596.9357503463519L240,614.2562584220408" style="fill: none; stroke: rgb(153, 153, 153);"/><path d="M270,596.9357503463519L300,614.2562584220408L300,648.8972745734183L270,666.2177826491071L240,648.8972745734183L240,614.2562584220408L270,596.9357503463519L300,614.2562584220408" style="fill: none; stroke: rgb(153, 153, 153);"/><path d="M330,596.9357503463519L360,614.2562584220408L360,648.8972745734183L330,666.2177826491071L300,648.8972745734183L300,614.2562584220408L330,596.9357503463519L360,614.2562584220408" style="fill: none; stroke: rgb(153, 153, 153);"/><path d="M390,596.9357503463519L420,614.2562584220408L420,648.8972745734183L390,666.2177826491071L360,648.8972745734183L360,614.2562584220408L390,596.9357503463519L420,614.2562584220408" style="fill: none; stroke: rgb(153, 153, 153);"/><path d="M450,596.9357503463519L480,614.2562584220408L480,648.8972745734183L450,666.2177826491071L420,648.8972745734183L420,614.2562584220408L450,596.9357503463519L480,614.2562584220408" style="fill: none; stroke: rgb(153, 153, 153);"/><path d="M510,596.9357503463519L540,614.2562584220408L540,648.8972745734183L510,666.2177826491071L480,648.8972745734183L480,614.2562584220408L510,596.9357503463519L540,614.2562584220408" style="fill: none; stroke: rgb(153, 153, 153);"/><path d="M570,596.9357503463519L600,614.2562584220408L600,648.8972745734183L570,666.2177826491071L540,648.8972745734183L540,614.2562584220408L570,596.9357503463519L600,614.2562584220408" style="fill: none; stroke: rgb(153, 153, 153);"/><path d="M630,596.9357503463519L660,614.2562584220408L660,648.8972745734183L630,666.2177826491071L600,648.8972745734183L600,614.2562584220408L630,596.9357503463519L660,614.2562584220408" style="fill: none; stroke: rgb(153, 153, 153);"/><path d="M690,596.9357503463519L720,614.2562584220408L720,648.8972745734183L690,666.2177826491071L660,648.8972745734183L660,614.2562584220408L690,596.9357503463519L720,614.2562584220408" style="fill: none; stroke: rgb(153, 153, 153);"/><path d="M750,596.9357503463519L780,614.2562584220408L780,648.8972745734183L750,666.2177826491071L720,648.8972745734183L720,614.2562584220408L750,596.9357503463519L780,614.2562584220408" style="fill: none; stroke: rgb(153, 153, 153);"/><path d="M810,596.9357503463519L840,614.2562584220408L840,648.8972745734183L810,666.2177826491071L780,648.8972745734183L780,614.2562584220408L810,596.9357503463519L840,614.2562584220408" style="fill: none; stroke: rgb(153, 153, 153);"/><path d="M60,648.8972745734183L90,666.2177826491071L90,700.8587988004846L60,718.1793068761734L30.000000000000007,700.8587988004846L29.99999999999999,666.2177826491071L59.99999999999999,648.8972745734183L89.99999999999999,666.2177826491071" style="fill: none; stroke: rgb(153, 153, 153);"/><path d="M120,648.8972745734183L150,666.2177826491071L150,700.8587988004846L120,718.1793068761734L90,700.8587988004846L89.99999999999999,666.2177826491071L120,648.8972745734183L150,666.2177826491071" style="fill: none; stroke: rgb(153, 153, 153);"/><path d="M180,648.8972745734183L210,666.2177826491071L210,700.8587988004846L180,718.1793068761734L150,700.8587988004846L150,666.2177826491071L180,648.8972745734183L210,666.2177826491071" style="fill: none; stroke: rgb(153, 153, 153);"/><path d="M240,648.8972745734183L270,666.2177826491071L270,700.8587988004846L240,718.1793068761734L210,700.8587988004846L210,666.2177826491071L240,648.8972745734183L270,666.2177826491071" style="fill: none; stroke: rgb(153, 153, 153);"/><path d="M300,648.8972745734183L330,666.2177826491071L330,700.8587988004846L300,718.1793068761734L270,700.8587988004846L270,666.2177826491071L300,648.8972745734183L330,666.2177826491071" style="fill: none; stroke: rgb(153, 153, 153);"/><path d="M360,648.8972745734183L390,666.2177826491071L390,700.8587988004846L360,718.1793068761734L330,700.8587988004846L330,666.2177826491071L360,648.8972745734183L390,666.2177826491071" style="fill: none; stroke: rgb(153, 153, 153);"/><path d="M420,648.8972745734183L450,666.2177826491071L450,700.8587988004846L420,718.1793068761734L390,700.8587988004846L390,666.2177826491071L420,648.8972745734183L450,666.2177826491071" style="fill: none; stroke: rgb(153, 153, 153);"/><path d="M480,648.8972745734183L510,666.2177826491071L510,700.8587988004846L480,718.1793068761734L450,700.8587988004846L450,666.2177826491071L480,648.8972745734183L510,666.2177826491071" style="fill: none; stroke: rgb(153, 153, 153);"/><path d="M540,648.8972745734183L570,666.2177826491071L570,700.8587988004846L540,718.1793068761734L510,700.8587988004846L510,666.2177826491071L540,648.8972745734183L570,666.2177826491071" style="fill: none; stroke: rgb(153, 153, 153);"/><path d="M600,648.8972745734183L630,666.2177826491071L630,700.8587988004846L600,718.1793068761734L570,700.8587988004846L570,666.2177826491071L600,648.8972745734183L630,666.2177826491071" style="fill: none; stroke: rgb(153, 153, 153);"/><path d="M660,648.8972745734183L690,666.2177826491071L690,700.8587988004846L660,718.1793068761734L630,700.8587988004846L630,666.2177826491071L660,648.8972745734183L690,666.2177826491071" style="fill: none; stroke: rgb(153, 153, 153);"/><path d="M720,648.8972745734183L750,666.2177826491071L750,700.8587988004846L720,718.1793068761734L690,700.8587988004846L690,666.2177826491071L720,648.8972745734183L750,666.2177826491071" style="fill: none; stroke: rgb(153, 153, 153);"/><path d="M780,648.8972745734183L810,666.2177826491071L810,700.8587988004846L780,718.1793068761734L750,700.8587988004846L750,666.2177826491071L780,648.8972745734183L810,666.2177826491071" style="fill: none; stroke: rgb(153, 153, 153);"/></g><g style="filter: url(&quot;#glow&quot;);"><circle class="result" r="14.142857142857142" cx="539.8473896395966" cy="59.981436275714174" style="fill: rgb(75, 160, 177);"/><circle class="result" r="14.142857142857142" cx="749.7737081947989" cy="111.95860435607673" style="fill: rgb(75, 160, 177);"/><circle class="result" r="14.142857142857142" cx="469.46380797488416" cy="55.41027726859579" style="fill: rgb(75, 160, 177);"/><circle class="result" r="14.142857142857142" cx="676.1364753627561" cy="60.38772068190823" style="fill: rgb(75, 160, 177);"/><circle class="result" r="14.142857142857142" cx="569.7642110464732" cy="111.89991535484225" style="fill: rgb(75, 160, 177);"/><circle class="result" r="14.142857142857142" cx="419.9387859893605" cy="59.95215716405411" style="fill: rgb(75, 160, 177);"/><circle class="result" r="14.142857142857142" cx="360.26300923948475" cy="60.716104082584025" style="fill: rgb(75, 160, 177);"/><circle class="result" r="14.142857142857142" cx="779.7828694132916" cy="163.82432685633677" style="fill: rgb(75, 160, 177);"/><circle class="result" r="14.142857142857142" cx="262.8310105321855" cy="120.97803562943486" style="fill: rgb(75, 160, 177);"/><circle class="result" r="14.142857142857142" cx="651.9864408891673" cy="45.659803009019925" style="fill: rgb(75, 160, 177);"/><circle class="result" r="12.285714285714286" cx="229.13133937329837" cy="54.16145806611898" style="fill: rgb(160, 217, 163);"/><circle class="result" r="12.285714285714286" cx="493.6055626153759" cy="66.16411707739883" style="fill: rgb(160, 217, 163);"/><circle class="result" r="12.285714285714286" cx="278.99854923376654" cy="100.07157538175112" style="fill: rgb(160, 217, 163);"/><circle class="result" r="12.285714285714286" cx="358.42359542450356" cy="176.05702655970435" style="fill: rgb(160, 217, 163);"/><circle class="result" r="12.285714285714286" cx="44.762106481475115" cy="50.42922555669408" style="fill: rgb(160, 217, 163);"/><circle class="result" r="12.285714285714286" cx="689.8082807149573" cy="215.76590415397783" style="fill: rgb(160, 217, 163);"/><circle class="result" r="12.285714285714286" cx="461.5561925972793" cy="207.7865792154393" style="fill: rgb(160, 217, 163);"/><circle class="result" r="12.285714285714286" cx="111.21275595070121" cy="63.798328670474355" style="fill: rgb(160, 217, 163);"/><circle class="result" r="10.428571428571429" cx="132.00429689976076" cy="54.65225845022215" style="fill: rgb(235, 247, 166);"/><circle class="result" r="10.428571428571429" cx="52.49739611641388" cy="71.7873541059494" style="fill: rgb(235, 247, 166);"/><circle class="result" r="10.428571428571429" cx="211.51927866619533" cy="101.65234020872455" style="fill: rgb(235, 247, 166);"/><circle class="result" r="10.428571428571429" cx="76.79804843825693" cy="48.57911533897438" style="fill: rgb(235, 247, 166);"/><circle class="result" r="10.428571428571429" cx="319.3056100939501" cy="215.15640117531953" style="fill: rgb(235, 247, 166);"/><circle class="result" r="10.428571428571429" cx="247.3895836134502" cy="155.36877254189938" style="fill: rgb(235, 247, 166);"/><circle class="result" r="10.428571428571429" cx="178.27164980669144" cy="73.05285110465992" style="fill: rgb(235, 247, 166);"/><circle class="result" r="10.428571428571429" cx="228.97149427682913" cy="165.15737073170317" style="fill: rgb(235, 247, 166);"/><circle class="result" r="10.428571428571429" cx="306.9842285876712" cy="260.1118002734309" style="fill: rgb(235, 247, 166);"/><circle class="result" r="10.428571428571429" cx="208.1845224714481" cy="122.24116750133304" style="fill: rgb(235, 247, 166);"/><circle class="result" r="10.428571428571429" cx="142.63307316089714" cy="109.97826089979878" style="fill: rgb(235, 247, 166);"/><circle class="result" r="10.428571428571429" cx="292.8708811325361" cy="275.46868250173156" style="fill: rgb(235, 247, 166);"/><circle class="result" r="8.571428571428571" cx="196.5344791039508" cy="220.58235299534286" style="fill: rgb(254, 232, 154);"/><circle class="result" r="8.571428571428571" cx="128.20055456205364" cy="166.26647733658828" style="fill: rgb(254, 232, 154);"/><circle class="result" r="8.571428571428571" cx="78.86056276834077" cy="164.50783571677917" style="fill: rgb(254, 232, 154);"/><circle class="result" r="8.571428571428571" cx="53.09461409434219" cy="152.58898148448665" style="fill: rgb(254, 232, 154);"/><circle class="result" r="8.571428571428571" cx="61.94366898531792" cy="167.2725521197122" style="fill: rgb(254, 232, 154);"/><circle class="result" r="8.571428571428571" cx="239.92912433473768" cy="267.8005859397369" style="fill: rgb(254, 232, 154);"/><circle class="result" r="8.571428571428571" cx="150.32791947649176" cy="201.5350413144021" style="fill: rgb(254, 232, 154);"/><circle class="result" r="8.571428571428571" cx="164.49659410430667" cy="227.62962147392778" style="fill: rgb(254, 232, 154);"/><circle class="result" r="8.571428571428571" cx="134.8197014456446" cy="226.85705532796152" style="fill: rgb(254, 232, 154);"/><circle class="result" r="8.571428571428571" cx="149.8818003129622" cy="218.6720437596618" style="fill: rgb(254, 232, 154);"/><circle class="result" r="8.571428571428571" cx="149.95255706115876" cy="319.7294984924644" style="fill: rgb(254, 232, 154);"/><circle class="result" r="8.571428571428571" cx="111.75350565771004" cy="161.43200390522702" style="fill: rgb(254, 232, 154);"/><circle class="result" r="6.714285714285714" cx="239.94522272346248" cy="371.67885377619245" style="fill: rgb(251, 163, 94);"/><circle class="result" r="6.714285714285714" cx="203.40536592374085" cy="321.3316488990334" style="fill: rgb(251, 163, 94);"/><circle class="result" r="6.714285714285714" cx="179.95778908687288" cy="371.6288630381411" style="fill: rgb(251, 163, 94);"/><circle class="result" r="6.714285714285714" cx="67.00923942099881" cy="80.91335572428336" style="fill: rgb(251, 163, 94);"/><circle class="result" r="6.714285714285714" cx="90.70149434862535" cy="104.86020042938316" style="fill: rgb(251, 163, 94);"/><circle class="result" r="6.714285714285714" cx="216.6869935757833" cy="319.349679010001" style="fill: rgb(251, 163, 94);"/><circle class="result" r="6.714285714285714" cx="266.06632238007643" cy="434.22613880026273" style="fill: rgb(251, 163, 94);"/><circle class="result" r="6.714285714285714" cx="359.89037960038934" cy="475.52123394146463" style="fill: rgb(251, 163, 94);"/><circle class="result" r="6.714285714285714" cx="123.89550659908905" cy="267.2080036929518" style="fill: rgb(251, 163, 94);"/><circle class="result" r="4.857142857142858" cx="86.2676693750427" cy="322.851050517429" style="fill: rgb(225, 82, 74);"/><circle class="result" r="4.857142857142858" cx="93.68040182998881" cy="316.572615641589" style="fill: rgb(225, 82, 74);"/><circle class="result" r="4.857142857142858" cx="209.94093810902507" cy="631.4078947506172" style="fill: rgb(225, 82, 74);"/><circle class="result" r="3" cx="56.97744445745879" cy="371.59014964841487" style="fill: rgb(158, 1, 66);"/><circle class="result" r="3" cx="62.97703058772405" cy="371.66062138408705" style="fill: rgb(158, 1, 66);"/><circle class="result" r="3" cx="56.96899947137327" cy="271.88187252728864" style="fill: rgb(158, 1, 66);"/><circle class="result" r="8.571428571428571" cx="206.72739466433177" cy="206.79895492857352" style="fill: rgb(254, 232, 154);"/><circle class="result" r="8.571428571428571" cx="223.32364624555586" cy="211.09466912500756" style="fill: rgb(254, 232, 154);"/><circle class="result" r="6.714285714285714" cx="269.90844535077207" cy="319.6609930114462" style="fill: rgb(251, 163, 94);"/><circle class="result" r="6.714285714285714" cx="273.7730033672516" cy="412.9846058413392" style="fill: rgb(251, 163, 94);"/><circle class="result" r="14.142857142857142" cx="651.306178403462" cy="73.9373360627289" style="fill: rgb(75, 160, 177);"/><circle class="result" r="14.142857142857142" cx="714.5877394845877" cy="46.83288620298623" style="fill: rgb(75, 160, 177);"/><circle class="result" r="14.142857142857142" cx="724.9785120961267" cy="73.14093586821896" style="fill: rgb(75, 160, 177);"/><circle class="result" r="14.142857142857142" cx="791.0008683070997" cy="474.0523329536126" style="fill: rgb(75, 160, 177);"/><circle class="result" r="12.285714285714286" cx="341.1955942943011" cy="102.9187040834035" style="fill: rgb(160, 217, 163);"/><circle class="result" r="12.285714285714286" cx="331.87299148563176" cy="125.65380903581733" style="fill: rgb(160, 217, 163);"/><circle class="result" r="12.285714285714286" cx="389.0580590835583" cy="111.93668886588527" style="fill: rgb(160, 217, 163);"/><circle class="result" r="12.285714285714286" cx="536.4228294707392" cy="152.66423957375815" style="fill: rgb(160, 217, 163);"/><circle class="result" r="12.285714285714286" cx="569.9223558738928" cy="227.5056131649859" style="fill: rgb(160, 217, 163);"/><circle class="result" r="12.285714285714286" cx="316.8452430276061" cy="106.21359611714995" style="fill: rgb(160, 217, 163);"/><circle class="result" r="12.285714285714286" cx="250.75569567427127" cy="65.82946203463865" style="fill: rgb(160, 217, 163);"/><circle class="result" r="12.285714285714286" cx="437.0608121179064" cy="209.72880873231907" style="fill: rgb(160, 217, 163);"/><circle class="result" r="12.285714285714286" cx="181.19908656055188" cy="50.52800061542578" style="fill: rgb(160, 217, 163);"/><circle class="result" r="12.285714285714286" cx="450.98965657645505" cy="229.97090333960648" style="fill: rgb(160, 217, 163);"/><circle class="result" r="12.285714285714286" cx="361.388223027016" cy="151.66509991953842" style="fill: rgb(160, 217, 163);"/><circle class="result" r="10.428571428571429" cx="339.50233538981735" cy="220.37042404711553" style="fill: rgb(235, 247, 166);"/><circle class="result" r="10.428571428571429" cx="269.88071066796306" cy="215.8590424446464" style="fill: rgb(235, 247, 166);"/><circle class="result" r="10.428571428571429" cx="333.91947031190114" cy="200.27470012348897" style="fill: rgb(235, 247, 166);"/><circle class="result" r="8.571428571428571" cx="161.0223537832521" cy="114.75679186572138" style="fill: rgb(254, 232, 154);"/><circle class="result" r="8.571428571428571" cx="135.26365674741305" cy="209.71845142235594" style="fill: rgb(254, 232, 154);"/><circle class="result" r="8.571428571428571" cx="74.14118474202628" cy="67.3938218334568" style="fill: rgb(254, 232, 154);"/><circle class="result" r="8.571428571428571" cx="213.13044799640394" cy="224.87785672707824" style="fill: rgb(254, 232, 154);"/><circle class="result" r="8.571428571428571" cx="84.70845195476578" cy="218.27240197924638" style="fill: rgb(254, 232, 154);"/><circle class="result" r="8.571428571428571" cx="164.94599469595912" cy="210.49115791872978" style="fill: rgb(254, 232, 154);"/><circle class="result" r="6.714285714285714" cx="299.873030421805" cy="371.64528747545285" style="fill: rgb(251, 163, 94);"/><circle class="result" r="6.714285714285714" cx="62.299441570125815" cy="57.7280999424228" style="fill: rgb(251, 163, 94);"/><circle class="result" r="6.714285714285714" cx="276.74261628157194" cy="426.0809993701534" style="fill: rgb(251, 163, 94);"/><circle class="result" r="6.714285714285714" cx="265.9264441460019" cy="527.3351107191347" style="fill: rgb(251, 163, 94);"/><circle class="result" r="6.714285714285714" cx="68.3591499190917" cy="153.39991808390533" style="fill: rgb(251, 163, 94);"/><circle class="result" r="6.714285714285714" cx="89.28517933386188" cy="118.21387342190475" style="fill: rgb(251, 163, 94);"/><circle class="result" r="6.714285714285714" cx="299.90230412511204" cy="683.3191967465553" style="fill: rgb(251, 163, 94);"/><circle class="result" r="6.714285714285714" cx="239.96469228612636" cy="475.56770356250433" style="fill: rgb(251, 163, 94);"/><circle class="result" r="6.714285714285714" cx="149.91877770619033" cy="423.59780753906756" style="fill: rgb(251, 163, 94);"/><circle class="result" r="6.714285714285714" cx="98.53252375027492" cy="211.7495114990146" style="fill: rgb(251, 163, 94);"/><circle class="result" r="4.857142857142858" cx="112.45036993309787" cy="268.91293943381066" style="fill: rgb(225, 82, 74);"/><circle class="result" r="4.857142857142858" cx="119.96100065043927" cy="371.62948462168833" style="fill: rgb(225, 82, 74);"/><circle class="result" r="4.857142857142858" cx="62.968379442400376" cy="266.8079355315697" style="fill: rgb(225, 82, 74);"/><circle class="result" r="4.857142857142858" cx="389.8547306387073" cy="631.3980229585725" style="fill: rgb(225, 82, 74);"/><circle class="result" r="4.857142857142858" cx="364.45834079248175" cy="684.9504968694096" style="fill: rgb(225, 82, 74);"/><circle class="result" r="4.857142857142858" cx="149.95704685410442" cy="527.5354782676924" style="fill: rgb(225, 82, 74);"/><circle class="result" r="3" cx="55.137346258803426" cy="266.1679252543523" style="fill: rgb(158, 1, 66);"/><circle class="result" r="3" cx="90.003443122273" cy="527.4802327267086" style="fill: rgb(158, 1, 66);"/><circle class="result" r="3" cx="61.4747530710168" cy="478.144369848838" style="fill: rgb(158, 1, 66);"/><circle class="result" r="12.285714285714286" cx="749.7746332912801" cy="527.4971821464334" style="fill: rgb(160, 217, 163);"/><circle class="result" r="12.285714285714286" cx="543.2871024056465" cy="176.25739237527912" style="fill: rgb(160, 217, 163);"/><circle class="result" r="8.571428571428571" cx="44.80332605906234" cy="167.5939555024203" style="fill: rgb(254, 232, 154);"/><circle class="result" r="6.714285714285714" cx="420.1380637564592" cy="579.50518312123" style="fill: rgb(251, 163, 94);"/><circle class="result" r="6.714285714285714" cx="53.610464424951324" cy="180.08744881007007" style="fill: rgb(251, 163, 94);"/><circle class="result" r="3" cx="119.94095857524326" cy="683.31159664592" style="fill: rgb(158, 1, 66);"/><circle class="result" r="3" cx="60.00908741618058" cy="683.3418399543879" style="fill: rgb(158, 1, 66);"/><circle class="result" r="14.142857142857142" cx="779.7032241206188" cy="371.6864211461975" style="fill: rgb(75, 160, 177);"/><circle class="result" r="14.142857142857142" cx="809.7687203552831" cy="111.89807969233257" style="fill: rgb(75, 160, 177);"/><circle class="result" r="12.285714285714286" cx="749.8018975451571" cy="215.8569367244526" style="fill: rgb(160, 217, 163);"/><circle class="result" r="12.285714285714286" cx="809.7109118894256" cy="423.58783079574795" style="fill: rgb(160, 217, 163);"/><circle class="result" r="12.285714285714286" cx="689.8136443188777" cy="319.6821083789621" style="fill: rgb(160, 217, 163);"/><circle class="result" r="12.285714285714286" cx="629.8084075599982" cy="215.8552558603399" style="fill: rgb(160, 217, 163);"/><circle class="result" r="12.285714285714286" cx="569.7178299493751" cy="202.93503581753603" style="fill: rgb(160, 217, 163);"/><circle class="result" r="12.285714285714286" cx="697.9993433748456" cy="432.7571372315323" style="fill: rgb(160, 217, 163);"/><circle class="result" r="12.285714285714286" cx="509.79454141333855" cy="319.73180009414585" style="fill: rgb(160, 217, 163);"/><circle class="result" r="12.285714285714286" cx="681.655615985045" cy="414.4094486291852" style="fill: rgb(160, 217, 163);"/><circle class="result" r="10.428571428571429" cx="419.9089821367525" cy="267.77883630956364" style="fill: rgb(235, 247, 166);"/><circle class="result" r="10.428571428571429" cx="569.8005541882801" cy="319.68014328508787" style="fill: rgb(235, 247, 166);"/><circle class="result" r="10.428571428571429" cx="547.2190031452824" cy="373.79589866528784" style="fill: rgb(235, 247, 166);"/><circle class="result" r="10.428571428571429" cx="389.8587867757406" cy="319.73917905199244" style="fill: rgb(235, 247, 166);"/><circle class="result" r="10.428571428571429" cx="569.8236167212664" cy="423.55921541085246" style="fill: rgb(235, 247, 166);"/><circle class="result" r="10.428571428571429" cx="629.8325451411243" cy="527.5184904698091" style="fill: rgb(235, 247, 166);"/><circle class="result" r="10.428571428571429" cx="479.81094685871415" cy="371.63803000728" style="fill: rgb(235, 247, 166);"/><circle class="result" r="8.571428571428571" cx="245.63367402620935" cy="174.2881848246154" style="fill: rgb(254, 232, 154);"/><circle class="result" r="8.571428571428571" cx="325.434614029173" cy="233.1408184753739" style="fill: rgb(254, 232, 154);"/><circle class="result" r="8.571428571428571" cx="528.9919104204378" cy="368.4318432218836" style="fill: rgb(254, 232, 154);"/><circle class="result" r="8.571428571428571" cx="419.9108554377898" cy="371.68287336798255" style="fill: rgb(254, 232, 154);"/><circle class="result" r="8.571428571428571" cx="659.781054807652" cy="579.4585164842296" style="fill: rgb(254, 232, 154);"/><circle class="result" r="8.571428571428571" cx="599.8212400664426" cy="475.5074346058009" style="fill: rgb(254, 232, 154);"/><circle class="result" r="8.571428571428571" cx="389.8961986086823" cy="423.63258846378505" style="fill: rgb(254, 232, 154);"/><circle class="result" r="6.714285714285714" cx="479.5740387782215" cy="579.3400212079677" style="fill: rgb(251, 163, 94);"/><circle class="result" r="6.714285714285714" cx="299.93589076102523" cy="475.5439035294581" style="fill: rgb(251, 163, 94);"/><circle class="result" r="6.714285714285714" cx="179.9365052837332" cy="475.5774937425024" style="fill: rgb(251, 163, 94);"/><circle class="result" r="6.714285714285714" cx="263.0965951095391" cy="421.130060465675" style="fill: rgb(251, 163, 94);"/><circle class="result" r="6.714285714285714" cx="599.849406637723" cy="683.351356608275" style="fill: rgb(251, 163, 94);"/><circle class="result" r="4.857142857142858" cx="209.88443344592497" cy="527.5035573037629" style="fill: rgb(225, 82, 74);"/><circle class="result" r="4.857142857142858" cx="277.4914009572303" cy="527.722064383151" style="fill: rgb(225, 82, 74);"/><circle class="result" r="4.857142857142858" cx="269.92078149493767" cy="631.4216905481687" style="fill: rgb(225, 82, 74);"/><circle class="result" r="4.857142857142858" cx="355.3135862018838" cy="681.6731793052248" style="fill: rgb(225, 82, 74);"/><circle class="result" r="3" cx="479.89110176548184" cy="683.3322450916166" style="fill: rgb(158, 1, 66);"/><circle class="result" r="3" cx="539.8124995156733" cy="683.3570837181825" style="fill: rgb(158, 1, 66);"/><circle class="result" r="3" cx="209.01031062264963" cy="313.39687414374026" style="fill: rgb(158, 1, 66);"/><circle class="result" r="3" cx="40.80053786205207" cy="65.19265969198531" style="fill: rgb(158, 1, 66);"/><circle class="result" r="3" cx="58.43599276939401" cy="472.9707892870528" style="fill: rgb(158, 1, 66);"/><circle class="result" r="14.142857142857142" cx="809.7865282972282" cy="215.8000674160628" style="fill: rgb(75, 160, 177);"/><circle class="result" r="14.142857142857142" cx="779.7769130716335" cy="267.80682783708977" style="fill: rgb(75, 160, 177);"/><circle class="result" r="14.142857142857142" cx="779.7374501032796" cy="683.2746747139573" style="fill: rgb(75, 160, 177);"/><circle class="result" r="12.285714285714286" cx="779.7988414412976" cy="579.4533961802389" style="fill: rgb(160, 217, 163);"/><circle class="result" r="12.285714285714286" cx="764.8052373353373" cy="477.55351928774894" style="fill: rgb(160, 217, 163);"/><circle class="result" r="12.285714285714286" cx="419.8652375187859" cy="163.79953150513373" style="fill: rgb(160, 217, 163);"/></g><g transform="translate(50 800)"><g transform="translate(0 0)"><circle cx="0" cy="0" r="14.142857142857142" style="fill: rgb(75, 160, 177);"/><text x="0" y="30" style="fill: rgb(153, 153, 153); font-family: sans-serif; font-size: 12px; text-anchor: middle;">O</text></g><g transform="translate(32 0)"><circle cx="0" cy="1.8571428571428559" r="12.285714285714286" style="fill: rgb(160, 217, 163);"/><text x="0" y="30" style="fill: rgb(153, 153, 153); font-family: sans-serif; font-size: 12px; text-anchor: middle;">B</text></g><g transform="translate(64 0)"><circle cx="0" cy="3.7142857142857135" r="10.428571428571429" style="fill: rgb(235, 247, 166);"/><text x="0" y="30" style="fill: rgb(153, 153, 153); font-family: sans-serif; font-size: 12px; text-anchor: middle;">A</text></g><g transform="translate(96 0)"><circle cx="0" cy="5.571428571428571" r="8.571428571428571" style="fill: rgb(254, 232, 154);"/><text x="0" y="30" style="fill: rgb(153, 153, 153); font-family: sans-serif; font-size: 12px; text-anchor: middle;">F</text></g><g transform="translate(128 0)"><circle cx="0" cy="7.428571428571428" r="6.714285714285714" style="fill: rgb(251, 163, 94);"/><text x="0" y="30" style="fill: rgb(153, 153, 153); font-family: sans-serif; font-size: 12px; text-anchor: middle;">G</text></g><g transform="translate(160 0)"><circle cx="0" cy="9.285714285714285" r="4.857142857142858" style="fill: rgb(225, 82, 74);"/><text x="0" y="30" style="fill: rgb(153, 153, 153); font-family: sans-serif; font-size: 12px; text-anchor: middle;">K</text></g><g transform="translate(192 0)"><circle cx="0" cy="11.142857142857142" r="3" style="fill: rgb(158, 1, 66);"/><text x="0" y="30" style="fill: rgb(153, 153, 153); font-family: sans-serif; font-size: 12px; text-anchor: middle;">M</text><text x="20" y="30" style="fill: rgb(153, 153, 153); font-family: sans-serif; font-size: 12px; text-anchor: start;">spectral types</text></g></g></svg>