<?xml version="1.0" standalone="no"?><!DOCTYPE svg PUBLIC "-//W3C//DTD SVG 1.1//EN" "http://www.w3.org/Graphics/SVG/1.1/DTD/svg11.dtd"><svg width="100%" height="100%" viewBox="0 0 900 900" version="1.1" xmlns="http://www.w3.org/2000/svg" xmlns:xlink="http://www.w3.org/1999/xlink"><defs xmlns="http://www.w3.org/1999/xhtml"><style type="text/css"><![CDATA[]]></style></defs><g><path d="M60,25.358983848622458L90,42.67949192431123L90,77.32050807568876L60,94.64101615137754L30.000000000000007,77.32050807568878L29.99999999999999,42.67949192431125L59.99999999999999,25.358983848622458L89.99999999999999,42.679491924311215" style="fill: none; stroke: rgb(204, 204, 204);"/><path d="M120,25.358983848622458L150,42.67949192431123L150,77.32050807568876L120,94.64101615137754L90,77.32050807568878L89.99999999999999,42.67949192431125L120,25.358983848622458L150,42.679491924311215" style="fill: none; stroke: rgb(204, 204, 204);"/><path d="M180,25.358983848622458L210,42.67949192431123L210,77.32050807568876L180,94.64101615137754L150,77.32050807568878L150,42.67949192431125L180,25.358983848622458L210,42.679491924311215" style="fill: none; stroke: rgb(204, 204, 204);"/><path d="M240,25.358983848622458L270,42.67949192431123L270,77.32050807568876L240,94.64101615137754L210,77.32050807568878L210,42.67949192431125L240,25.358983848622458L270,42.679491924311215" style="fill: none; stroke: rgb(204, 204, 204);"/><path d="M300,25.358983848622458L330,42.67949192431123L330,77.32050807568876L300,94.64101615137754L270,77.32050807568878L270,42.67949192431125L300,25.358983848622458L330,42.679491924311215" style="fill: none; stroke: rgb(204, 204, 204);"/><path d="M360,25.358983848622458L390,42.67949192431123L390,77.32050807568876L360,94.64101615137754L330,77.32050807568878L330,42.67949192431125L360,25.358983848622458L390,42.679491924311215" style="fill: none; stroke: rgb(204, 204, 204);"/><path d="M420,25.358983848622458L450,42.67949192431123L450,77.32050807568876L420,94.64101615137754L390,77.32050807568878L390,42.67949192431125L420,25.358983848622458L450,42.679491924311215" style="fill: none; stroke: rgb(204, 204, 204);"/><path d="M480,25.358983848622458L510,42.67949192431123L510,77.32050807568876L480,94.64101615137754L450,77.32050807568878L450,42.67949192431125L480,25.358983848622458L510,42.679491924311215" style="fill: none; stroke: rgb(204, 204, 204);"/><path d="M540,25.358983848622458L570,42.67949192431123L570,77.32050807568876L540,94.64101615137754L510,77.32050807568878L510,42.67949192431125L540,25.358983848622458L570,42.679491924311215" style="fill: none; stroke: rgb(204, 204, 204);"/><path d="M600,25.358983848622458L630,42.67949192431123L630,77.32050807568876L600,94.64101615137754L570,77.32050807568878L570,42.67949192431125L600,25.358983848622458L630,42.679491924311215" style="fill: none; stroke: rgb(204, 204, 204);"/><path d="M660,25.358983848622458L690,42.67949192431123L690,77.32050807568876L660,94.64101615137754L630,77.32050807568878L630,42.67949192431125L660,25.358983848622458L690,42.679491924311215" style="fill: none; stroke: rgb(204, 204, 204);"/><path d="M720,25.358983848622458L750,42.67949192431123L750,77.32050807568876L720,94.64101615137754L690,77.32050807568878L690,42.67949192431125L720,25.358983848622458L750,42.679491924311215" style="fill: none; stroke: rgb(204, 204, 204);"/><path d="M780,25.358983848622458L810,42.67949192431123L810,77.32050807568876L780,94.64101615137754L750,77.32050807568878L750,42.67949192431125L780,25.358983848622458L810,42.679491924311215" style="fill: none; stroke: rgb(204, 204, 204);"/><path d="M90,77.32050807568878L120,94.64101615137756L120,129.28203230275508L90,146.60254037844385L60.00000000000001,129.2820323027551L59.999999999999986,94.64101615137757L90,77.32050807568878L119.99999999999999,94.64101615137753" style="fill: none; stroke: rgb(204, 204, 204);"/><path d="M150,77.32050807568878L180,94.64101615137756L180,129.28203230275508L150,146.60254037844385L120,129.2820323027551L119.99999999999999,94.64101615137757L150,77.32050807568878L180,94.64101615137753" style="fill: none; stroke: rgb(204, 204, 204);"/><path d="M210,77.32050807568878L240,94.64101615137756L240,129.28203230275508L210,146.60254037844385L180,129.2820323027551L180,94.64101615137757L210,77.32050807568878L240,94.64101615137753" style="fill: none; stroke: rgb(204, 204, 204);"/><path d="M270,77.32050807568878L300,94.64101615137756L300,129.28203230275508L270,146.60254037844385L240,129.2820323027551L240,94.64101615137757L270,77.32050807568878L300,94.64101615137753" style="fill: none; stroke: rgb(204, 204, 204);"/><path d="M330,77.32050807568878L360,94.64101615137756L360,129.28203230275508L330,146.60254037844385L300,129.2820323027551L300,94.64101615137757L330,77.32050807568878L360,94.64101615137753" style="fill: none; stroke: rgb(204, 204, 204);"/><path d="M390,77.32050807568878L420,94.64101615137756L420,129.28203230275508L390,146.60254037844385L360,129.2820323027551L360,94.64101615137757L390,77.32050807568878L420,94.64101615137753" style="fill: none; stroke: rgb(204, 204, 204);"/><path d="M450,77.32050807568878L480,94.64101615137756L480,129.28203230275508L450,146.60254037844385L420,129.2820323027551L420,94.64101615137757L450,77.32050807568878L480,94.64101615137753" style="fill: none; stroke: rgb(204, 204, 204);"/><path d="M510,77.32050807568878L540,94.64101615137756L540,129.28203230275508L510,146.60254037844385L480,129.2820323027551L480,94.64101615137757L510,77.32050807568878L540,94.64101615137753" style="fill: none; stroke: rgb(204, 204, 204);"/><path d="M570,77.32050807568878L600,94.64101615137756L600,129.28203230275508L570,146.60254037844385L540,129.2820323027551L540,94.64101615137757L570,77.32050807568878L600,94.64101615137753" style="fill: none; stroke: rgb(204, 204, 204);"/><path d="M630,77.32050807568878L660,94.64101615137756L660,129.28203230275508L630,146.60254037844385L600,129.2820323027551L600,94.64101615137757L630,77.32050807568878L660,94.64101615137753" style="fill: none; stroke: rgb(204, 204, 204);"/><path d="M690,77.32050807568878L720,94.64101615137756L720,129.28203230275508L690,146.60254037844385L660,129.2820323027551L660,94.64101615137757L690,77.32050807568878L720,94.64101615137753" style="fill: none; stroke: rgb(204, 204, 204);"/><path d="M750,77.32050807568878L780,94.64101615137756L780,129.28203230275508L750,146.60254037844385L720,129.2820323027551L720,94.64101615137757L750,77.32050807568878L780,94.64101615137753" style="fill: none; stroke: rgb(204, 204, 204);"/><path d="M810,77.32050807568878L840,94.64101615137756L840,129.28203230275508L810,146.60254037844385L780,129.2820323027551L780,94.64101615137757L810,77.32050807568878L840,94.64101615137753" style="fill: none; stroke: rgb(204, 204, 204);"/><path d="M60,129.2820323027551L90,146.60254037844388L90,181.2435565298214L60,198.56406460551017L30.000000000000007,181.24355652982143L29.99999999999999,146.6025403784439L59.99999999999999,129.2820323027551L89.99999999999999,146.60254037844385" style="fill: none; stroke: rgb(204, 204, 204);"/><path d="M120,129.2820323027551L150,146.60254037844388L150,181.2435565298214L120,198.56406460551017L90,181.24355652982143L89.99999999999999,146.6025403784439L120,129.2820323027551L150,146.60254037844385" style="fill: none; stroke: rgb(204, 204, 204);"/><path d="M180,129.2820323027551L210,146.60254037844388L210,181.2435565298214L180,198.56406460551017L150,181.24355652982143L150,146.6025403784439L180,129.2820323027551L210,146.60254037844385" style="fill: none; stroke: rgb(204, 204, 204);"/><path d="M240,129.2820323027551L270,146.60254037844388L270,181.2435565298214L240,198.56406460551017L210,181.24355652982143L210,146.6025403784439L240,129.2820323027551L270,146.60254037844385" style="fill: none; stroke: rgb(204, 204, 204);"/><path d="M300,129.2820323027551L330,146.60254037844388L330,181.2435565298214L300,198.56406460551017L270,181.24355652982143L270,146.6025403784439L300,129.2820323027551L330,146.60254037844385" style="fill: none; stroke: rgb(204, 204, 204);"/><path d="M360,129.2820323027551L390,146.60254037844388L390,181.2435565298214L360,198.56406460551017L330,181.24355652982143L330,146.6025403784439L360,129.2820323027551L390,146.60254037844385" style="fill: none; stroke: rgb(204, 204, 204);"/><path d="M420,129.2820323027551L450,146.60254037844388L450,181.2435565298214L420,198.56406460551017L390,181.24355652982143L390,146.6025403784439L420,129.2820323027551L450,146.60254037844385" style="fill: none; stroke: rgb(204, 204, 204);"/><path d="M480,129.2820323027551L510,146.60254037844388L510,181.2435565298214L480,198.56406460551017L450,181.24355652982143L450,146.6025403784439L480,129.2820323027551L510,146.60254037844385" style="fill: none; stroke: rgb(204, 204, 204);"/><path d="M540,129.2820323027551L570,146.60254037844388L570,181.2435565298214L540,198.56406460551017L510,181.24355652982143L510,146.6025403784439L540,129.2820323027551L570,146.60254037844385" style="fill: none; stroke: rgb(204, 204, 204);"/><path d="M600,129.2820323027551L630,146.60254037844388L630,181.2435565298214L600,198.56406460551017L570,181.24355652982143L570,146.6025403784439L600,129.2820323027551L630,146.60254037844385" style="fill: none; stroke: rgb(204, 204, 204);"/><path d="M660,129.2820323027551L690,146.60254037844388L690,181.2435565298214L660,198.56406460551017L630,181.24355652982143L630,146.6025403784439L660,129.2820323027551L690,146.60254037844385" style="fill: none; stroke: rgb(204, 204, 204);"/><path d="M720,129.2820323027551L750,146.60254037844388L750,181.2435565298214L720,198.56406460551017L690,181.24355652982143L690,146.6025403784439L720,129.2820323027551L750,146.60254037844385" style="fill: none; stroke: rgb(204, 204, 204);"/><path d="M780,129.2820323027551L810,146.60254037844388L810,181.2435565298214L780,198.56406460551017L750,181.24355652982143L750,146.6025403784439L780,129.2820323027551L810,146.60254037844385" style="fill: none; stroke: rgb(204, 204, 204);"/><path d="M90,181.24355652982143L120,198.5640646055102L120,233.20508075688772L90,250.5255888325765L60.00000000000001,233.20508075688775L59.999999999999986,198.56406460551023L90,181.24355652982143L119.99999999999999,198.56406460551017" style="fill: none; stroke: rgb(204, 204, 204);"/><path d="M150,181.24355652982143L180,198.5640646055102L180,233.20508075688772L150,250.5255888325765L120,233.20508075688775L119.99999999999999,198.56406460551023L150,181.24355652982143L180,198.56406460551017" style="fill: none; stroke: rgb(204, 204, 204);"/><path d="M210,181.24355652982143L240,198.5640646055102L240,233.20508075688772L210,250.5255888325765L180,233.20508075688775L180,198.56406460551023L210,181.24355652982143L240,198.56406460551017" style="fill: none; stroke: rgb(204, 204, 204);"/><path d="M270,181.24355652982143L300,198.5640646055102L300,233.20508075688772L270,250.5255888325765L240,233.20508075688775L240,198.56406460551023L270,181.24355652982143L300,198.56406460551017" style="fill: none; stroke: rgb(204, 204, 204);"/><path d="M330,181.24355652982143L360,198.5640646055102L360,233.20508075688772L330,250.5255888325765L300,233.20508075688775L300,198.56406460551023L330,181.24355652982143L360,198.56406460551017" style="fill: none; stroke: rgb(204, 204, 204);"/><path d="M390,181.24355652982143L420,198.5640646055102L420,233.20508075688772L390,250.5255888325765L360,233.20508075688775L360,198.56406460551023L390,181.24355652982143L420,198.56406460551017" style="fill: none; stroke: rgb(204, 204, 204);"/><path d="M450,181.24355652982143L480,198.5640646055102L480,233.20508075688772L450,250.5255888325765L420,233.20508075688775L420,198.56406460551023L450,181.24355652982143L480,198.56406460551017" style="fill: none; stroke: rgb(204, 204, 204);"/><path d="M510,181.24355652982143L540,198.5640646055102L540,233.20508075688772L510,250.5255888325765L480,233.20508075688775L480,198.56406460551023L510,181.24355652982143L540,198.56406460551017" style="fill: none; stroke: rgb(204, 204, 204);"/><path d="M570,181.24355652982143L600,198.5640646055102L600,233.20508075688772L570,250.5255888325765L540,233.20508075688775L540,198.56406460551023L570,181.24355652982143L600,198.56406460551017" style="fill: none; stroke: rgb(204, 204, 204);"/><path d="M630,181.24355652982143L660,198.5640646055102L660,233.20508075688772L630,250.5255888325765L600,233.20508075688775L600,198.56406460551023L630,181.24355652982143L660,198.56406460551017" style="fill: none; stroke: rgb(204, 204, 204);"/><path d="M690,181.24355652982143L720,198.5640646055102L720,233.20508075688772L690,250.5255888325765L660,233.20508075688775L660,198.56406460551023L690,181.24355652982143L720,198.56406460551017" style="fill: none; stroke: rgb(204, 204, 204);"/><path d="M750,181.24355652982143L780,198.5640646055102L780,233.20508075688772L750,250.5255888325765L720,233.20508075688775L720,198.56406460551023L750,181.24355652982143L780,198.56406460551017" style="fill: none; stroke: rgb(204, 204, 204);"/><path d="M810,181.24355652982143L840,198.5640646055102L840,233.20508075688772L810,250.5255888325765L780,233.20508075688775L780,198.56406460551023L810,181.24355652982143L840,198.56406460551017" style="fill: none; stroke: rgb(204, 204, 204);"/><path d="M60,233.20508075688775L90,250.52558883257652L90,285.166604983954L60,302.4871130596428L30.000000000000007,285.1666049839541L29.99999999999999,250.52558883257655L59.99999999999999,233.20508075688775L89.99999999999999,250.5255888325765" style="fill: none; stroke: rgb(204, 204, 204);"/><path d="M120,233.20508075688775L150,250.52558883257652L150,285.166604983954L120,302.4871130596428L90,285.1666049839541L89.99999999999999,250.52558883257655L120,233.20508075688775L150,250.5255888325765" style="fill: none; stroke: rgb(204, 204, 204);"/><path d="M180,233.20508075688775L210,250.52558883257652L210,285.166604983954L180,302.4871130596428L150,285.1666049839541L150,250.52558883257655L180,233.20508075688775L210,250.5255888325765" style="fill: none; stroke: rgb(204, 204, 204);"/><path d="M240,233.20508075688775L270,250.52558883257652L270,285.166604983954L240,302.4871130596428L210,285.1666049839541L210,250.52558883257655L240,233.20508075688775L270,250.5255888325765" style="fill: none; stroke: rgb(204, 204, 204);"/><path d="M300,233.20508075688775L330,250.52558883257652L330,285.166604983954L300,302.4871130596428L270,285.1666049839541L270,250.52558883257655L300,233.20508075688775L330,250.5255888325765" style="fill: none; stroke: rgb(204, 204, 204);"/><path d="M360,233.20508075688775L390,250.52558883257652L390,285.166604983954L360,302.4871130596428L330,285.1666049839541L330,250.52558883257655L360,233.20508075688775L390,250.5255888325765" style="fill: none; stroke: rgb(204, 204, 204);"/><path d="M420,233.20508075688775L450,250.52558883257652L450,285.166604983954L420,302.4871130596428L390,285.1666049839541L390,250.52558883257655L420,233.20508075688775L450,250.5255888325765" style="fill: none; stroke: rgb(204, 204, 204);"/><path d="M480,233.20508075688775L510,250.52558883257652L510,285.166604983954L480,302.4871130596428L450,285.1666049839541L450,250.52558883257655L480,233.20508075688775L510,250.5255888325765" style="fill: none; stroke: rgb(204, 204, 204);"/><path d="M540,233.20508075688775L570,250.52558883257652L570,285.166604983954L540,302.4871130596428L510,285.1666049839541L510,250.52558883257655L540,233.20508075688775L570,250.5255888325765" style="fill: none; stroke: rgb(204, 204, 204);"/><path d="M600,233.20508075688775L630,250.52558883257652L630,285.166604983954L600,302.4871130596428L570,285.1666049839541L570,250.52558883257655L600,233.20508075688775L630,250.5255888325765" style="fill: none; stroke: rgb(204, 204, 204);"/><path d="M660,233.20508075688775L690,250.52558883257652L690,285.166604983954L660,302.4871130596428L630,285.1666049839541L630,250.52558883257655L660,233.20508075688775L690,250.5255888325765" style="fill: none; stroke: rgb(204, 204, 204);"/><path d="M720,233.20508075688775L750,250.52558883257652L750,285.166604983954L720,302.4871130596428L690,285.1666049839541L690,250.52558883257655L720,233.20508075688775L750,250.5255888325765" style="fill: none; stroke: rgb(204, 204, 204);"/><path d="M780,233.20508075688775L810,250.52558883257652L810,285.166604983954L780,302.4871130596428L750,285.1666049839541L750,250.52558883257655L780,233.20508075688775L810,250.5255888325765" style="fill: none; stroke: rgb(204, 204, 204);"/><path d="M90,285.166604983954L120,302.48711305964275L120,337.12812921102034L90,354.4486372867091L60.00000000000001,337.12812921102034L59.999999999999986,302.4871130596428L90,285.166604983954L119.99999999999999,302.48711305964275" style="fill: none; stroke: rgb(204, 204, 204);"/><path d="M150,285.166604983954L180,302.48711305964275L180,337.12812921102034L150,354.4486372867091L120,337.12812921102034L119.99999999999999,302.4871130596428L150,285.166604983954L180,302.48711305964275" style="fill: none; stroke: rgb(204, 204, 204);"/><path d="M210,285.166604983954L240,302.48711305964275L240,337.12812921102034L210,354.4486372867091L180,337.12812921102034L180,302.4871130596428L210,285.166604983954L240,302.48711305964275" style="fill: none; stroke: rgb(204, 204, 204);"/><path d="M270,285.166604983954L300,302.48711305964275L300,337.12812921102034L270,354.4486372867091L240,337.12812921102034L240,302.4871130596428L270,285.166604983954L300,302.48711305964275" style="fill: none; stroke: rgb(204, 204, 204);"/><path d="M330,285.166604983954L360,302.48711305964275L360,337.12812921102034L330,354.4486372867091L300,337.12812921102034L300,302.4871130596428L330,285.166604983954L360,302.48711305964275" style="fill: none; stroke: rgb(204, 204, 204);"/><path d="M390,285.166604983954L420,302.48711305964275L420,337.12812921102034L390,354.4486372867091L360,337.12812921102034L360,302.4871130596428L390,285.166604983954L420,302.48711305964275" style="fill: none; stroke: rgb(204, 204, 204);"/><path d="M450,285.166604983954L480,302.48711305964275L480,337.12812921102034L450,354.4486372867091L420,337.12812921102034L420,302.4871130596428L450,285.166604983954L480,302.48711305964275" style="fill: none; stroke: rgb(204, 204, 204);"/><path d="M510,285.166604983954L540,302.48711305964275L540,337.12812921102034L510,354.4486372867091L480,337.12812921102034L480,302.4871130596428L510,285.166604983954L540,302.48711305964275" style="fill: none; stroke: rgb(204, 204, 204);"/><path d="M570,285.166604983954L600,302.48711305964275L600,337.12812921102034L570,354.4486372867091L540,337.12812921102034L540,302.4871130596428L570,285.166604983954L600,302.48711305964275" style="fill: none; stroke: rgb(204, 204, 204);"/><path d="M630,285.166604983954L660,302.48711305964275L660,337.12812921102034L630,354.4486372867091L600,337.12812921102034L600,302.4871130596428L630,285.166604983954L660,302.48711305964275" style="fill: none; stroke: rgb(204, 204, 204);"/><path d="M690,285.166604983954L720,302.48711305964275L720,337.12812921102034L690,354.4486372867091L660,337.12812921102034L660,302.4871130596428L690,285.166604983954L720,302.48711305964275" style="fill: none; stroke: rgb(204, 204, 204);"/><path d="M750,285.166604983954L780,302.48711305964275L780,337.12812921102034L750,354.4486372867091L720,337.12812921102034L720,302.4871130596428L750,285.166604983954L780,302.48711305964275" style="fill: none; stroke: rgb(204, 204, 204);"/><path d="M810,285.166604983954L840,302.48711305964275L840,337.12812921102034L810,354.4486372867091L780,337.12812921102034L780,302.4871130596428L810,285.166604983954L840,302.48711305964275" style="fill: none; stroke: rgb(204, 204, 204);"/><path d="M60,337.1281292110204L90,354.44863728670913L90,389.08965343808666L60,406.41016151377545L30.000000000000007,389.0896534380867L29.99999999999999,354.4486372867092L59.99999999999999,337.1281292110204L89.99999999999999,354.44863728670913" style="fill: none; stroke: rgb(204, 204, 204);"/><path d="M120,337.1281292110204L150,354.44863728670913L150,389.08965343808666L120,406.41016151377545L90,389.0896534380867L89.99999999999999,354.4486372867092L120,337.1281292110204L150,354.44863728670913" style="fill: none; stroke: rgb(204, 204, 204);"/><path d="M180,337.1281292110204L210,354.44863728670913L210,389.08965343808666L180,406.41016151377545L150,389.0896534380867L150,354.4486372867092L180,337.1281292110204L210,354.44863728670913" style="fill: none; stroke: rgb(204, 204, 204);"/><path d="M240,337.1281292110204L270,354.44863728670913L270,389.08965343808666L240,406.41016151377545L210,389.0896534380867L210,354.4486372867092L240,337.1281292110204L270,354.44863728670913" style="fill: none; stroke: rgb(204, 204, 204);"/><path d="M300,337.1281292110204L330,354.44863728670913L330,389.08965343808666L300,406.41016151377545L270,389.0896534380867L270,354.4486372867092L300,337.1281292110204L330,354.44863728670913" style="fill: none; stroke: rgb(204, 204, 204);"/><path d="M360,337.1281292110204L390,354.44863728670913L390,389.08965343808666L360,406.41016151377545L330,389.0896534380867L330,354.4486372867092L360,337.1281292110204L390,354.44863728670913" style="fill: none; stroke: rgb(204, 204, 204);"/><path d="M420,337.1281292110204L450,354.44863728670913L450,389.08965343808666L420,406.41016151377545L390,389.0896534380867L390,354.4486372867092L420,337.1281292110204L450,354.44863728670913" style="fill: none; stroke: rgb(204, 204, 204);"/><path d="M480,337.1281292110204L510,354.44863728670913L510,389.08965343808666L480,406.41016151377545L450,389.0896534380867L450,354.4486372867092L480,337.1281292110204L510,354.44863728670913" style="fill: none; stroke: rgb(204, 204, 204);"/><path d="M540,337.1281292110204L570,354.44863728670913L570,389.08965343808666L540,406.41016151377545L510,389.0896534380867L510,354.4486372867092L540,337.1281292110204L570,354.44863728670913" style="fill: none; stroke: rgb(204, 204, 204);"/><path d="M600,337.1281292110204L630,354.44863728670913L630,389.08965343808666L600,406.41016151377545L570,389.0896534380867L570,354.4486372867092L600,337.1281292110204L630,354.44863728670913" style="fill: none; stroke: rgb(204, 204, 204);"/><path d="M660,337.1281292110204L690,354.44863728670913L690,389.08965343808666L660,406.41016151377545L630,389.0896534380867L630,354.4486372867092L660,337.1281292110204L690,354.44863728670913" style="fill: none; stroke: rgb(204, 204, 204);"/><path d="M720,337.1281292110204L750,354.44863728670913L750,389.08965343808666L720,406.41016151377545L690,389.0896534380867L690,354.4486372867092L720,337.1281292110204L750,354.44863728670913" style="fill: none; stroke: rgb(204, 204, 204);"/><path d="M780,337.1281292110204L810,354.44863728670913L810,389.08965343808666L780,406.41016151377545L750,389.0896534380867L750,354.4486372867092L780,337.1281292110204L810,354.44863728670913" style="fill: none; stroke: rgb(204, 204, 204);"/><path d="M90,389.0896534380867L120,406.41016151377545L120,441.051177665153L90,458.37168574084177L60.00000000000001,441.05117766515303L59.999999999999986,406.4101615137755L90,389.0896534380867L119.99999999999999,406.41016151377545" style="fill: none; stroke: rgb(204, 204, 204);"/><path d="M150,389.0896534380867L180,406.41016151377545L180,441.051177665153L150,458.37168574084177L120,441.05117766515303L119.99999999999999,406.4101615137755L150,389.0896534380867L180,406.41016151377545" style="fill: none; stroke: rgb(204, 204, 204);"/><path d="M210,389.0896534380867L240,406.41016151377545L240,441.051177665153L210,458.37168574084177L180,441.05117766515303L180,406.4101615137755L210,389.0896534380867L240,406.41016151377545" style="fill: none; stroke: rgb(204, 204, 204);"/><path d="M270,389.0896534380867L300,406.41016151377545L300,441.051177665153L270,458.37168574084177L240,441.05117766515303L240,406.4101615137755L270,389.0896534380867L300,406.41016151377545" style="fill: none; stroke: rgb(204, 204, 204);"/><path d="M330,389.0896534380867L360,406.41016151377545L360,441.051177665153L330,458.37168574084177L300,441.05117766515303L300,406.4101615137755L330,389.0896534380867L360,406.41016151377545" style="fill: none; stroke: rgb(204, 204, 204);"/><path d="M390,389.0896534380867L420,406.41016151377545L420,441.051177665153L390,458.37168574084177L360,441.05117766515303L360,406.4101615137755L390,389.0896534380867L420,406.41016151377545" style="fill: none; stroke: rgb(204, 204, 204);"/><path d="M450,389.0896534380867L480,406.41016151377545L480,441.051177665153L450,458.37168574084177L420,441.05117766515303L420,406.4101615137755L450,389.0896534380867L480,406.41016151377545" style="fill: none; stroke: rgb(204, 204, 204);"/><path d="M510,389.0896534380867L540,406.41016151377545L540,441.051177665153L510,458.37168574084177L480,441.05117766515303L480,406.4101615137755L510,389.0896534380867L540,406.41016151377545" style="fill: none; stroke: rgb(204, 204, 204);"/><path d="M570,389.0896534380867L600,406.41016151377545L600,441.051177665153L570,458.37168574084177L540,441.05117766515303L540,406.4101615137755L570,389.0896534380867L600,406.41016151377545" style="fill: none; stroke: rgb(204, 204, 204);"/><path d="M630,389.0896534380867L660,406.41016151377545L660,441.051177665153L630,458.37168574084177L600,441.05117766515303L600,406.4101615137755L630,389.0896534380867L660,406.41016151377545" style="fill: none; stroke: rgb(204, 204, 204);"/><path d="M690,389.0896534380867L720,406.41016151377545L720,441.051177665153L690,458.37168574084177L660,441.05117766515303L660,406.4101615137755L690,389.0896534380867L720,406.41016151377545" style="fill: none; stroke: rgb(204, 204, 204);"/><path d="M750,389.0896534380867L780,406.41016151377545L780,441.051177665153L750,458.37168574084177L720,441.05117766515303L720,406.4101615137755L750,389.0896534380867L780,406.41016151377545" style="fill: none; stroke: rgb(204, 204, 204);"/><path d="M810,389.0896534380867L840,406.41016151377545L840,441.051177665153L810,458.37168574084177L780,441.05117766515303L780,406.4101615137755L810,389.0896534380867L840,406.41016151377545" style="fill: none; stroke: rgb(204, 204, 204);"/><path d="M60,441.051177665153L90,458.3716857408417L90,493.0127018922193L60,510.33320996790803L30.000000000000007,493.0127018922193L29.99999999999999,458.37168574084177L59.99999999999999,441.051177665153L89.99999999999999,458.3716857408417" style="fill: none; stroke: rgb(204, 204, 204);"/><path d="M120,441.051177665153L150,458.3716857408417L150,493.0127018922193L120,510.33320996790803L90,493.0127018922193L89.99999999999999,458.37168574084177L120,441.051177665153L150,458.3716857408417" style="fill: none; stroke: rgb(204, 204, 204);"/><path d="M180,441.051177665153L210,458.3716857408417L210,493.0127018922193L180,510.33320996790803L150,493.0127018922193L150,458.37168574084177L180,441.051177665153L210,458.3716857408417" style="fill: none; stroke: rgb(204, 204, 204);"/><path d="M240,441.051177665153L270,458.3716857408417L270,493.0127018922193L240,510.33320996790803L210,493.0127018922193L210,458.37168574084177L240,441.051177665153L270,458.3716857408417" style="fill: none; stroke: rgb(204, 204, 204);"/><path d="M300,441.051177665153L330,458.3716857408417L330,493.0127018922193L300,510.33320996790803L270,493.0127018922193L270,458.37168574084177L300,441.051177665153L330,458.3716857408417" style="fill: none; stroke: rgb(204, 204, 204);"/><path d="M360,441.051177665153L390,458.3716857408417L390,493.0127018922193L360,510.33320996790803L330,493.0127018922193L330,458.37168574084177L360,441.051177665153L390,458.3716857408417" style="fill: none; stroke: rgb(204, 204, 204);"/><path d="M420,441.051177665153L450,458.3716857408417L450,493.0127018922193L420,510.33320996790803L390,493.0127018922193L390,458.37168574084177L420,441.051177665153L450,458.3716857408417" style="fill: none; stroke: rgb(204, 204, 204);"/><path d="M480,441.051177665153L510,458.3716857408417L510,493.0127018922193L480,510.33320996790803L450,493.0127018922193L450,458.37168574084177L480,441.051177665153L510,458.3716857408417" style="fill: none; stroke: rgb(204, 204, 204);"/><path d="M540,441.051177665153L570,458.3716857408417L570,493.0127018922193L540,510.33320996790803L510,493.0127018922193L510,458.37168574084177L540,441.051177665153L570,458.3716857408417" style="fill: none; stroke: rgb(204, 204, 204);"/><path d="M600,441.051177665153L630,458.3716857408417L630,493.0127018922193L600,510.33320996790803L570,493.0127018922193L570,458.37168574084177L600,441.051177665153L630,458.3716857408417" style="fill: none; stroke: rgb(204, 204, 204);"/><path d="M660,441.051177665153L690,458.3716857408417L690,493.0127018922193L660,510.33320996790803L630,493.0127018922193L630,458.37168574084177L660,441.051177665153L690,458.3716857408417" style="fill: none; stroke: rgb(204, 204, 204);"/><path d="M720,441.051177665153L750,458.3716857408417L750,493.0127018922193L720,510.33320996790803L690,493.0127018922193L690,458.37168574084177L720,441.051177665153L750,458.3716857408417" style="fill: none; stroke: rgb(204, 204, 204);"/><path d="M780,441.051177665153L810,458.3716857408417L810,493.0127018922193L780,510.33320996790803L750,493.0127018922193L750,458.37168574084177L780,441.051177665153L810,458.3716857408417" style="fill: none; stroke: rgb(204, 204, 204);"/><path d="M90,493.01270189221935L120,510.3332099679081L120,544.9742261192856L90,562.2947341949745L60.00000000000001,544.9742261192856L59.999999999999986,510.33320996790815L90,493.01270189221935L119.99999999999999,510.3332099679081" style="fill: none; stroke: rgb(204, 204, 204);"/><path d="M150,493.01270189221935L180,510.3332099679081L180,544.9742261192856L150,562.2947341949745L120,544.9742261192856L119.99999999999999,510.33320996790815L150,493.01270189221935L180,510.3332099679081" style="fill: none; stroke: rgb(204, 204, 204);"/><path d="M210,493.01270189221935L240,510.3332099679081L240,544.9742261192856L210,562.2947341949745L180,544.9742261192856L180,510.33320996790815L210,493.01270189221935L240,510.3332099679081" style="fill: none; stroke: rgb(204, 204, 204);"/><path d="M270,493.01270189221935L300,510.3332099679081L300,544.9742261192856L270,562.2947341949745L240,544.9742261192856L240,510.33320996790815L270,493.01270189221935L300,510.3332099679081" style="fill: none; stroke: rgb(204, 204, 204);"/><path d="M330,493.01270189221935L360,510.3332099679081L360,544.9742261192856L330,562.2947341949745L300,544.9742261192856L300,510.33320996790815L330,493.01270189221935L360,510.3332099679081" style="fill: none; stroke: rgb(204, 204, 204);"/><path d="M390,493.01270189221935L420,510.3332099679081L420,544.9742261192856L390,562.2947341949745L360,544.9742261192856L360,510.33320996790815L390,493.01270189221935L420,510.3332099679081" style="fill: none; stroke: rgb(204, 204, 204);"/><path d="M450,493.01270189221935L480,510.3332099679081L480,544.9742261192856L450,562.2947341949745L420,544.9742261192856L420,510.33320996790815L450,493.01270189221935L480,510.3332099679081" style="fill: none; stroke: rgb(204, 204, 204);"/><path d="M510,493.01270189221935L540,510.3332099679081L540,544.9742261192856L510,562.2947341949745L480,544.9742261192856L480,510.33320996790815L510,493.01270189221935L540,510.3332099679081" style="fill: none; stroke: rgb(204, 204, 204);"/><path d="M570,493.01270189221935L600,510.3332099679081L600,544.9742261192856L570,562.2947341949745L540,544.9742261192856L540,510.33320996790815L570,493.01270189221935L600,510.3332099679081" style="fill: none; stroke: rgb(204, 204, 204);"/><path d="M630,493.01270189221935L660,510.3332099679081L660,544.9742261192856L630,562.2947341949745L600,544.9742261192856L600,510.33320996790815L630,493.01270189221935L660,510.3332099679081" style="fill: none; stroke: rgb(204, 204, 204);"/><path d="M690,493.01270189221935L720,510.3332099679081L720,544.9742261192856L690,562.2947341949745L660,544.9742261192856L660,510.33320996790815L690,493.01270189221935L720,510.3332099679081" style="fill: none; stroke: rgb(204, 204, 204);"/><path d="M750,493.01270189221935L780,510.3332099679081L780,544.9742261192856L750,562.2947341949745L720,544.9742261192856L720,510.33320996790815L750,493.01270189221935L780,510.3332099679081" style="fill: none; stroke: rgb(204, 204, 204);"/><path d="M810,493.01270189221935L840,510.3332099679081L840,544.9742261192856L810,562.2947341949745L780,544.9742261192856L780,510.33320996790815L810,493.01270189221935L840,510.3332099679081" style="fill: none; stroke: rgb(204, 204, 204);"/><path d="M60,544.9742261192855L90,562.2947341949744L90,596.9357503463518L60,614.2562584220407L30.000000000000007,596.9357503463518L29.99999999999999,562.2947341949744L59.99999999999999,544.9742261192855L89.99999999999999,562.2947341949744" style="fill: none; stroke: rgb(204, 204, 204);"/><path d="M120,544.9742261192855L150,562.2947341949744L150,596.9357503463518L120,614.2562584220407L90,596.9357503463518L89.99999999999999,562.2947341949744L120,544.9742261192855L150,562.2947341949744" style="fill: none; stroke: rgb(204, 204, 204);"/><path d="M180,544.9742261192855L210,562.2947341949744L210,596.9357503463518L180,614.2562584220407L150,596.9357503463518L150,562.2947341949744L180,544.9742261192855L210,562.2947341949744" style="fill: none; stroke: rgb(204, 204, 204);"/><path d="M240,544.9742261192855L270,562.2947341949744L270,596.9357503463518L240,614.2562584220407L210,596.9357503463518L210,562.2947341949744L240,544.9742261192855L270,562.2947341949744" style="fill: none; stroke: rgb(204, 204, 204);"/><path d="M300,544.9742261192855L330,562.2947341949744L330,596.9357503463518L300,614.2562584220407L270,596.9357503463518L270,562.2947341949744L300,544.9742261192855L330,562.2947341949744" style="fill: none; stroke: rgb(204, 204, 204);"/><path d="M360,544.9742261192855L390,562.2947341949744L390,596.9357503463518L360,614.2562584220407L330,596.9357503463518L330,562.2947341949744L360,544.9742261192855L390,562.2947341949744" style="fill: none; stroke: rgb(204, 204, 204);"/><path d="M420,544.9742261192855L450,562.2947341949744L450,596.9357503463518L420,614.2562584220407L390,596.9357503463518L390,562.2947341949744L420,544.9742261192855L450,562.2947341949744" style="fill: none; stroke: rgb(204, 204, 204);"/><path d="M480,544.9742261192855L510,562.2947341949744L510,596.9357503463518L480,614.2562584220407L450,596.9357503463518L450,562.2947341949744L480,544.9742261192855L510,562.2947341949744" style="fill: none; stroke: rgb(204, 204, 204);"/><path d="M540,544.9742261192855L570,562.2947341949744L570,596.9357503463518L540,614.2562584220407L510,596.9357503463518L510,562.2947341949744L540,544.9742261192855L570,562.2947341949744" style="fill: none; stroke: rgb(204, 204, 204);"/><path d="M600,544.9742261192855L630,562.2947341949744L630,596.9357503463518L600,614.2562584220407L570,596.9357503463518L570,562.2947341949744L600,544.9742261192855L630,562.2947341949744" style="fill: none; stroke: rgb(204, 204, 204);"/><path d="M660,544.9742261192855L690,562.2947341949744L690,596.9357503463518L660,614.2562584220407L630,596.9357503463518L630,562.2947341949744L660,544.9742261192855L690,562.2947341949744" style="fill: none; stroke: rgb(204, 204, 204);"/><path d="M720,544.9742261192855L750,562.2947341949744L750,596.9357503463518L720,614.2562584220407L690,596.9357503463518L690,562.2947341949744L720,544.9742261192855L750,562.2947341949744" style="fill: none; stroke: rgb(204, 204, 204);"/><path d="M780,544.9742261192855L810,562.2947341949744L810,596.9357503463518L780,614.2562584220407L750,596.9357503463518L750,562.2947341949744L780,544.9742261192855L810,562.2947341949744" style="fill: none; stroke: rgb(204, 204, 204);"/><path d="M90,596.9357503463519L120,614.2562584220408L120,648.8972745734183L90,666.2177826491071L60.00000000000001,648.8972745734183L59.999999999999986,614.2562584220408L90,596.9357503463519L119.99999999999999,614.2562584220408" style="fill: none; stroke: rgb(204, 204, 204);"/><path d="M150,596.9357503463519L180,614.2562584220408L180,648.8972745734183L150,666.2177826491071L120,648.8972745734183L119.99999999999999,614.2562584220408L150,596.9357503463519L180,614.2562584220408" style="fill: none; stroke: rgb(204, 204, 204);"/><path d="M210,596.9357503463519L240,614.2562584220408L240,648.8972745734183L210,666.2177826491071L180,648.8972745734183L180,614.2562584220408L210,596.9357503463519L240,614.2562584220408" style="fill: none; stroke: rgb(204, 204, 204);"/><path d="M270,596.9357503463519L300,614.2562584220408L300,648.8972745734183L270,666.2177826491071L240,648.8972745734183L240,614.2562584220408L270,596.9357503463519L300,614.2562584220408" style="fill: none; stroke: rgb(204, 204, 204);"/><path d="M330,596.9357503463519L360,614.2562584220408L360,648.8972745734183L330,666.2177826491071L300,648.8972745734183L300,614.2562584220408L330,596.9357503463519L360,614.2562584220408" style="fill: none; stroke: rgb(204, 204, 204);"/><path d="M390,596.9357503463519L420,614.2562584220408L420,648.8972745734183L390,666.2177826491071L360,648.8972745734183L360,614.2562584220408L390,596.9357503463519L420,614.2562584220408" style="fill: none; stroke: rgb(204, 204, 204);"/><path d="M450,596.9357503463519L480,614.2562584220408L480,648.8972745734183L450,666.2177826491071L420,648.8972745734183L420,614.2562584220408L450,596.9357503463519L480,614.2562584220408" style="fill: none; stroke: rgb(204, 204, 204);"/><path d="M510,596.9357503463519L540,614.2562584220408L540,648.8972745734183L510,666.2177826491071L480,648.8972745734183L480,614.2562584220408L510,596.9357503463519L540,614.2562584220408" style="fill: none; stroke: rgb(204, 204, 204);"/><path d="M570,596.9357503463519L600,614.2562584220408L600,648.8972745734183L570,666.2177826491071L540,648.8972745734183L540,614.2562584220408L570,596.9357503463519L600,614.2562584220408" style="fill: none; stroke: rgb(204, 204, 204);"/><path d="M630,596.9357503463519L660,614.2562584220408L660,648.8972745734183L630,666.2177826491071L600,648.8972745734183L600,614.2562584220408L630,596.9357503463519L660,614.2562584220408" style="fill: none; stroke: rgb(204, 204, 204);"/><path d="M690,596.9357503463519L720,614.2562584220408L720,648.8972745734183L690,666.2177826491071L660,648.8972745734183L660,614.2562584220408L690,596.9357503463519L720,614.2562584220408" style="fill: none; stroke: rgb(204, 204, 204);"/><path d="M750,596.9357503463519L780,614.2562584220408L780,648.8972745734183L750,666.2177826491071L720,648.8972745734183L720,614.2562584220408L750,596.9357503463519L780,614.2562584220408" style="fill: none; stroke: rgb(204, 204, 204);"/><path d="M810,596.9357503463519L840,614.2562584220408L840,648.8972745734183L810,666.2177826491071L780,648.8972745734183L780,614.2562584220408L810,596.9357503463519L840,614.2562584220408" style="fill: none; stroke: rgb(204, 204, 204);"/><path d="M60,648.8972745734183L90,666.2177826491071L90,700.8587988004846L60,718.1793068761734L30.000000000000007,700.8587988004846L29.99999999999999,666.2177826491071L59.99999999999999,648.8972745734183L89.99999999999999,666.2177826491071" style="fill: none; stroke: rgb(204, 204, 204);"/><path d="M120,648.8972745734183L150,666.2177826491071L150,700.8587988004846L120,718.1793068761734L90,700.8587988004846L89.99999999999999,666.2177826491071L120,648.8972745734183L150,666.2177826491071" style="fill: none; stroke: rgb(204, 204, 204);"/><path d="M180,648.8972745734183L210,666.2177826491071L210,700.8587988004846L180,718.1793068761734L150,700.8587988004846L150,666.2177826491071L180,648.8972745734183L210,666.2177826491071" style="fill: none; stroke: rgb(204, 204, 204);"/><path d="M240,648.8972745734183L270,666.2177826491071L270,700.8587988004846L240,718.1793068761734L210,700.8587988004846L210,666.2177826491071L240,648.8972745734183L270,666.2177826491071" style="fill: none; stroke: rgb(204, 204, 204);"/><path d="M300,648.8972745734183L330,666.2177826491071L330,700.8587988004846L300,718.1793068761734L270,700.8587988004846L270,666.2177826491071L300,648.8972745734183L330,666.2177826491071" style="fill: none; stroke: rgb(204, 204, 204);"/><path d="M360,648.8972745734183L390,666.2177826491071L390,700.8587988004846L360,718.1793068761734L330,700.8587988004846L330,666.2177826491071L360,648.8972745734183L390,666.2177826491071" style="fill: none; stroke: rgb(204, 204, 204);"/><path d="M420,648.8972745734183L450,666.2177826491071L450,700.8587988004846L420,718.1793068761734L390,700.8587988004846L390,666.2177826491071L420,648.8972745734183L450,666.2177826491071" style="fill: none; stroke: rgb(204, 204, 204);"/><path d="M480,648.8972745734183L510,666.2177826491071L510,700.8587988004846L480,718.1793068761734L450,700.8587988004846L450,666.2177826491071L480,648.8972745734183L510,666.2177826491071" style="fill: none; stroke: rgb(204, 204, 204);"/><path d="M540,648.8972745734183L570,666.2177826491071L570,700.8587988004846L540,718.1793068761734L510,700.8587988004846L510,666.2177826491071L540,648.8972745734183L570,666.2177826491071" style="fill: none; stroke: rgb(204, 204, 204);"/><path d="M600,648.8972745734183L630,666.2177826491071L630,700.8587988004846L600,718.1793068761734L570,700.8587988004846L570,666.2177826491071L600,648.8972745734183L630,666.2177826491071" style="fill: none; stroke: rgb(204, 204, 204);"/><path d="M660,648.8972745734183L690,666.2177826491071L690,700.8587988004846L660,718.1793068761734L630,700.8587988004846L630,666.2177826491071L660,648.8972745734183L690,666.2177826491071" style="fill: none; stroke: rgb(204, 204, 204);"/><path d="M720,648.8972745734183L750,666.2177826491071L750,700.8587988004846L720,718.1793068761734L690,700.8587988004846L690,666.2177826491071L720,648.8972745734183L750,666.2177826491071" style="fill: none; stroke: rgb(204, 204, 204);"/><path d="M780,648.8972745734183L810,666.2177826491071L810,700.8587988004846L780,718.1793068761734L750,700.8587988004846L750,666.2177826491071L780,648.8972745734183L810,666.2177826491071" style="fill: none; stroke: rgb(204, 204, 204);"/></g><g><circle class="result" r="13.571428571428571" cx="389.84745050864313" cy="631.3958870974296" style="fill: rgb(75, 160, 177);"/><circle class="result" r="13.571428571428571" cx="179.9315468808849" cy="683.3324787111353" style="fill: rgb(75, 160, 177);"/><circle class="result" r="13.571428571428571" cx="413.5129708446551" cy="673.8525726030018" style="fill: rgb(75, 160, 177);"/><circle class="result" r="13.571428571428571" cx="309.1359803850734" cy="670.6150071052232" style="fill: rgb(75, 160, 177);"/><circle class="result" r="13.571428571428571" cx="359.8856962418516" cy="683.3717261782608" style="fill: rgb(75, 160, 177);"/><circle class="result" r="13.571428571428571" cx="494.7412537769603" cy="684.5201918870071" style="fill: rgb(75, 160, 177);"/><circle class="result" r="13.571428571428571" cx="469.2529031603603" cy="693.8540749860238" style="fill: rgb(75, 160, 177);"/><circle class="result" r="13.571428571428571" cx="125.32043514393106" cy="695.7793654931395" style="fill: rgb(75, 160, 177);"/><circle class="result" r="13.571428571428571" cx="601.809418348113" cy="694.6065768949559" style="fill: rgb(75, 160, 177);"/><circle class="result" r="13.571428571428571" cx="284.32309974760534" cy="681.6197995626602" style="fill: rgb(75, 160, 177);"/><circle class="result" r="12.142857142857142" cx="646.5199417479479" cy="683.028060733265" style="fill: rgb(160, 217, 163);"/><circle class="result" r="12.142857142857142" cx="427.7982474343427" cy="695.2337643974748" style="fill: rgb(160, 217, 163);"/><circle class="result" r="12.142857142857142" cx="597.3325196234279" cy="669.2850076780841" style="fill: rgb(160, 217, 163);"/><circle class="result" r="12.142857142857142" cx="509.84595875405165" cy="631.4012019651531" style="fill: rgb(160, 217, 163);"/><circle class="result" r="12.142857142857142" cx="780.2204543607118" cy="670.4146024540607" style="fill: rgb(160, 217, 163);"/><circle class="result" r="12.142857142857142" cx="239.92537636607634" cy="579.4051418246758" style="fill: rgb(160, 217, 163);"/><circle class="result" r="12.142857142857142" cx="461.8147836321222" cy="525.3649216015339" style="fill: rgb(160, 217, 163);"/><circle class="result" r="12.142857142857142" cx="757.3604036680251" cy="678.6143040627055" style="fill: rgb(160, 217, 163);"/><circle class="result" r="10.714285714285715" cx="720.5010388990675" cy="674.7866360158073" style="fill: rgb(235, 247, 166);"/><circle class="result" r="10.714285714285715" cx="780.280874902534" cy="707.0017751391797" style="fill: rgb(235, 247, 166);"/><circle class="result" r="10.714285714285715" cx="665.3149065845446" cy="696.0371508872245" style="fill: rgb(235, 247, 166);"/><circle class="result" r="10.714285714285715" cx="792.7214151930807" cy="689.5527475052157" style="fill: rgb(235, 247, 166);"/><circle class="result" r="10.714285714285715" cx="569.8273862054665" cy="527.4871610503563" style="fill: rgb(235, 247, 166);"/><circle class="result" r="10.714285714285715" cx="599.854532709356" cy="579.4062139968287" style="fill: rgb(235, 247, 166);"/><circle class="result" r="10.714285714285715" cx="689.8556738655028" cy="631.7726564252711" style="fill: rgb(235, 247, 166);"/><circle class="result" r="10.714285714285715" cx="622.646324922632" cy="620.6912151158" style="fill: rgb(235, 247, 166);"/><circle class="result" r="10.714285714285715" cx="596.5224658717738" cy="465.362173253896" style="fill: rgb(235, 247, 166);"/><circle class="result" r="10.714285714285715" cx="659.7876317423054" cy="579.4585313777402" style="fill: rgb(235, 247, 166);"/><circle class="result" r="10.714285714285715" cx="750.9453747703311" cy="623.9073920602928" style="fill: rgb(235, 247, 166);"/><circle class="result" r="10.714285714285715" cx="603.1512835136223" cy="485.7396718771448" style="fill: rgb(235, 247, 166);"/><circle class="result" r="9.285714285714285" cx="626.0015647124486" cy="516.4479308790242" style="fill: rgb(254, 232, 154);"/><circle class="result" r="9.285714285714285" cx="789.6374031116366" cy="581.3062623561556" style="fill: rgb(254, 232, 154);"/><circle class="result" r="9.285714285714285" cx="757.3460681543086" cy="642.8569895597283" style="fill: rgb(254, 232, 154);"/><circle class="result" r="9.285714285714285" cx="739.0040944433833" cy="639.9530089845975" style="fill: rgb(254, 232, 154);"/><circle class="result" r="9.285714285714285" cx="770.1688341598323" cy="629.4239158438763" style="fill: rgb(254, 232, 154);"/><circle class="result" r="9.285714285714285" cx="659.7407742416663" cy="475.6346020278804" style="fill: rgb(254, 232, 154);"/><circle class="result" r="9.285714285714285" cx="755.4405099674154" cy="520.0115656274544" style="fill: rgb(254, 232, 154);"/><circle class="result" r="9.285714285714285" cx="702.2650034294373" cy="532.4035013053335" style="fill: rgb(254, 232, 154);"/><circle class="result" r="9.285714285714285" cx="676.7578863278662" cy="512.8040721223723" style="fill: rgb(254, 232, 154);"/><circle class="result" r="9.285714285714285" cx="742.2427066931377" cy="533.0789831979023" style="fill: rgb(254, 232, 154);"/><circle class="result" r="9.285714285714285" cx="719.788903032102" cy="475.5552890211119" style="fill: rgb(254, 232, 154);"/><circle class="result" r="9.285714285714285" cx="774.0605806703546" cy="571.1929547321556" style="fill: rgb(254, 232, 154);"/><circle class="result" r="7.857142857142858" cx="659.8054884470781" cy="371.6651261833612" style="fill: rgb(251, 163, 94);"/><circle class="result" r="7.857142857142858" cx="681.6671347590009" cy="425.4338512055166" style="fill: rgb(251, 163, 94);"/><circle class="result" r="7.857142857142858" cx="694.9481942380141" cy="417.03234853734585" style="fill: rgb(251, 163, 94);"/><circle class="result" r="7.857142857142858" cx="774.1530218399945" cy="689.4682910871948" style="fill: rgb(251, 163, 94);"/><circle class="result" r="7.857142857142858" cx="803.5446510148932" cy="626.579053079513" style="fill: rgb(251, 163, 94);"/><circle class="result" r="7.857142857142858" cx="695.5833737975449" cy="432.7336625506682" style="fill: rgb(251, 163, 94);"/><circle class="result" r="7.857142857142858" cx="626.8858632028223" cy="326.9910445387959" style="fill: rgb(251, 163, 94);"/><circle class="result" r="7.857142857142858" cx="629.8108722236791" cy="215.78741811472705" style="fill: rgb(251, 163, 94);"/><circle class="result" r="7.857142857142858" cx="758.9799234207926" cy="536.7854500073847" style="fill: rgb(251, 163, 94);"/><circle class="result" r="6.428571428571429" cx="773.4574399656836" cy="476.8102735085999" style="fill: rgb(225, 82, 74);"/><circle class="result" r="6.428571428571429" cx="786.0565314646648" cy="474.24726436907673" style="fill: rgb(225, 82, 74);"/><circle class="result" r="6.428571428571429" cx="629.833298585451" cy="111.95810602478646" style="fill: rgb(225, 82, 74);"/><circle class="result" r="5" cx="809.4098019995682" cy="417.0041903017893" style="fill: rgb(158, 1, 66);"/><circle class="result" r="5" cx="817.243797742107" cy="423.21937432978825" style="fill: rgb(158, 1, 66);"/><circle class="result" r="5" cx="800.9622388622629" cy="520.860041908579" style="fill: rgb(158, 1, 66);"/><circle class="result" r="9.285714285714285" cx="695.1696554496958" cy="515.2413233188831" style="fill: rgb(254, 232, 154);"/><circle class="result" r="9.285714285714285" cx="690.9475983873552" cy="547.1285952369894" style="fill: rgb(254, 232, 154);"/><circle class="result" r="7.857142857142858" cx="629.7860511017997" cy="423.5919788310788" style="fill: rgb(251, 163, 94);"/><circle class="result" r="7.857142857142858" cx="632.7673330656457" cy="312.41891059201566" style="fill: rgb(251, 163, 94);"/><circle class="result" r="13.571428571428571" cx="306.25891641708785" cy="697.6058760331517" style="fill: rgb(75, 160, 177);"/><circle class="result" r="13.571428571428571" cx="227.7226878058856" cy="677.4249985948459" style="fill: rgb(75, 160, 177);"/><circle class="result" r="13.571428571428571" cx="252.16030566587912" cy="689.2375989523657" style="fill: rgb(75, 160, 177);"/><circle class="result" r="13.571428571428571" cx="209.91524947607084" cy="423.616278198962" style="fill: rgb(75, 160, 177);"/><circle class="result" r="12.142857142857142" cx="542.3350071346915" cy="671.4440518630573" style="fill: rgb(160, 217, 163);"/><circle class="result" r="12.142857142857142" cx="537.3645604194788" cy="695.215685753444" style="fill: rgb(160, 217, 163);"/><circle class="result" r="12.142857142857142" cx="474.48559121794506" cy="668.6778269437137" style="fill: rgb(160, 217, 163);"/><circle class="result" r="12.142857142857142" cx="389.9042515317939" cy="527.4682846933587" style="fill: rgb(160, 217, 163);"/><circle class="result" r="12.142857142857142" cx="352.1552364142204" cy="588.8987156582798" style="fill: rgb(160, 217, 163);"/><circle class="result" r="12.142857142857142" cx="539.8279099742333" cy="579.4195629560362" style="fill: rgb(160, 217, 163);"/><circle class="result" r="12.142857142857142" cx="635.3185345974598" cy="639.713940513309" style="fill: rgb(160, 217, 163);"/><circle class="result" r="12.142857142857142" cx="419.84266506421045" cy="579.4391086875103" style="fill: rgb(160, 217, 163);"/><circle class="result" r="12.142857142857142" cx="668.8393183948557" cy="673.4533624321587" style="fill: rgb(160, 217, 163);"/><circle class="result" r="12.142857142857142" cx="437.9083559172299" cy="529.6402733157179" style="fill: rgb(160, 217, 163);"/><circle class="result" r="12.142857142857142" cx="509.82284369968846" cy="527.4493679257291" style="fill: rgb(160, 217, 163);"/><circle class="result" r="10.714285714285715" cx="542.3918550407602" cy="467.4223650659152" style="fill: rgb(235, 247, 166);"/><circle class="result" r="10.714285714285715" cx="623.8716527296148" cy="536.3348062977851" style="fill: rgb(235, 247, 166);"/><circle class="result" r="10.714285714285715" cx="569.86250915829" cy="423.55752853326027" style="fill: rgb(235, 247, 166);"/><circle class="result" r="9.285714285714285" cx="718.8892224036913" cy="694.7215814028715" style="fill: rgb(254, 232, 154);"/><circle class="result" r="9.285714285714285" cx="718.7806514116019" cy="568.7030401617795" style="fill: rgb(254, 232, 154);"/><circle class="result" r="9.285714285714285" cx="801.6145537421796" cy="671.6405579265572" style="fill: rgb(254, 232, 154);"/><circle class="result" r="9.285714285714285" cx="683.8531306285066" cy="529.9656559082421" style="fill: rgb(254, 232, 154);"/><circle class="result" r="9.285714285714285" cx="711.0215756834748" cy="585.5766296040749" style="fill: rgb(254, 232, 154);"/><circle class="result" r="9.285714285714285" cx="729.5134790830069" cy="583.8598104971074" style="fill: rgb(254, 232, 154);"/><circle class="result" r="7.857142857142858" cx="599.7288073291547" cy="371.6913413666785" style="fill: rgb(251, 163, 94);"/><circle class="result" r="7.857142857142858" cx="794.2479758385923" cy="656.1611819375814" style="fill: rgb(251, 163, 94);"/><circle class="result" r="7.857142857142858" cx="693.1522194873958" cy="329.71804729684277" style="fill: rgb(251, 163, 94);"/><circle class="result" r="7.857142857142858" cx="684.6234749433212" cy="218.30756350362122" style="fill: rgb(251, 163, 94);"/><circle class="result" r="7.857142857142858" cx="816.0026811517042" cy="636.1569578932242" style="fill: rgb(251, 163, 94);"/><circle class="result" r="7.857142857142858" cx="761.3391664405787" cy="698.5646576779433" style="fill: rgb(251, 163, 94);"/><circle class="result" r="7.857142857142858" cx="749.7745257625575" cy="111.89530201115434" style="fill: rgb(251, 163, 94);"/><circle class="result" r="7.857142857142858" cx="700.8506330735897" cy="316.01866019445737" style="fill: rgb(251, 163, 94);"/><circle class="result" r="7.857142857142858" cx="719.7361177361736" cy="371.6415298781298" style="fill: rgb(251, 163, 94);"/><circle class="result" r="7.857142857142858" cx="813.6962816256807" cy="522.6367674801198" style="fill: rgb(251, 163, 94);"/><circle class="result" r="6.428571428571429" cx="739.9219582783691" cy="517.5372172983496" style="fill: rgb(225, 82, 74);"/><circle class="result" r="6.428571428571429" cx="749.7639525357505" cy="423.566692313628" style="fill: rgb(225, 82, 74);"/><circle class="result" r="6.428571428571429" cx="813.0189381249544" cy="536.9067036058391" style="fill: rgb(225, 82, 74);"/><circle class="result" r="6.428571428571429" cx="774.4353088662563" cy="66.51255054115084" style="fill: rgb(225, 82, 74);"/><circle class="result" r="6.428571428571429" cx="719.7993619770058" cy="59.941813987709565" style="fill: rgb(225, 82, 74);"/><circle class="result" r="6.428571428571429" cx="779.7711993740945" cy="267.7828860657116" style="fill: rgb(225, 82, 74);"/><circle class="result" r="5" cx="803.5402301664857" cy="530.5218511928215" style="fill: rgb(158, 1, 66);"/><circle class="result" r="5" cx="809.7846086324458" cy="319.7033890778748" style="fill: rgb(158, 1, 66);"/><circle class="result" r="5" cx="810.083384609729" cy="430.199860869014" style="fill: rgb(158, 1, 66);"/><circle class="result" r="12.142857142857142" cx="209.92417239210977" cy="319.6797045111947" style="fill: rgb(160, 217, 163);"/><circle class="result" r="12.142857142857142" cx="367.6497184484008" cy="570.1979952213605" style="fill: rgb(160, 217, 163);"/><circle class="result" r="9.285714285714285" cx="730.9580272111214" cy="623.2150652256538" style="fill: rgb(254, 232, 154);"/><circle class="result" r="7.857142857142858" cx="787.0545329018004" cy="59.81563673582485" style="fill: rgb(251, 163, 94);"/><circle class="result" r="7.857142857142858" cx="774.0013428864826" cy="588.3357095255183" style="fill: rgb(251, 163, 94);"/><circle class="result" r="5" cx="535.4868543807518" cy="57.52592849313297" style="fill: rgb(158, 1, 66);"/><circle class="result" r="5" cx="544.1991897717062" cy="62.43461589767638" style="fill: rgb(158, 1, 66);"/><circle class="result" r="13.571428571428571" cx="239.9008454051728" cy="475.5600990197279" style="fill: rgb(75, 160, 177);"/><circle class="result" r="13.571428571428571" cx="114.62848921306654" cy="670.8310792576277" style="fill: rgb(75, 160, 177);"/><circle class="result" r="12.142857142857142" cx="80.91680774731442" cy="642.4313364932993" style="fill: rgb(160, 217, 163);"/><circle class="result" r="12.142857142857142" cx="179.9166172037694" cy="475.5334546090425" style="fill: rgb(160, 217, 163);"/><circle class="result" r="12.142857142857142" cx="359.9568007596212" cy="267.7463988653888" style="fill: rgb(160, 217, 163);"/><circle class="result" r="12.142857142857142" cx="329.85352792062633" cy="527.5333667947607" style="fill: rgb(160, 217, 163);"/><circle class="result" r="12.142857142857142" cx="389.894704831806" cy="423.58446750743775" style="fill: rgb(160, 217, 163);"/><circle class="result" r="12.142857142857142" cx="303.8197945065824" cy="279.2678933654258" style="fill: rgb(160, 217, 163);"/><circle class="result" r="12.142857142857142" cx="419.8180960305879" cy="371.65398295056195" style="fill: rgb(160, 217, 163);"/><circle class="result" r="12.142857142857142" cx="296.0471127789051" cy="256.2596049213111" style="fill: rgb(160, 217, 163);"/><circle class="result" r="10.714285714285715" cx="419.9341799518767" cy="475.62859065610473" style="fill: rgb(235, 247, 166);"/><circle class="result" r="10.714285714285715" cx="449.80646872594133" cy="319.6768165384889" style="fill: rgb(235, 247, 166);"/><circle class="result" r="10.714285714285715" cx="449.9259817622096" cy="215.85356343424982" style="fill: rgb(235, 247, 166);"/><circle class="result" r="10.714285714285715" cx="449.84167707488655" cy="423.6310088207138" style="fill: rgb(235, 247, 166);"/><circle class="result" r="10.714285714285715" cx="389.8828700178639" cy="215.78869703365578" style="fill: rgb(235, 247, 166);"/><circle class="result" r="10.714285714285715" cx="239.95198974512826" cy="163.91012859505113" style="fill: rgb(235, 247, 166);"/><circle class="result" r="10.714285714285715" cx="509.772095421855" cy="215.76859470670843" style="fill: rgb(235, 247, 166);"/><circle class="result" r="9.285714285714285" cx="641.4384398784007" cy="526.7740537505616" style="fill: rgb(254, 232, 154);"/><circle class="result" r="9.285714285714285" cx="536.4658506213502" cy="486.52426213456084" style="fill: rgb(254, 232, 154);"/><circle class="result" r="9.285714285714285" cx="479.82672280896935" cy="163.83566296779057" style="fill: rgb(254, 232, 154);"/><circle class="result" r="9.285714285714285" cx="539.8884299539849" cy="267.77239138025834" style="fill: rgb(254, 232, 154);"/><circle class="result" r="9.285714285714285" cx="179.90239154752405" cy="163.90220744294706" style="fill: rgb(254, 232, 154);"/><circle class="result" r="9.285714285714285" cx="329.9129026907016" cy="111.89065656519195" style="fill: rgb(254, 232, 154);"/><circle class="result" r="9.285714285714285" cx="569.8320288118925" cy="215.8408365212715" style="fill: rgb(254, 232, 154);"/><circle class="result" r="7.857142857142858" cx="359.86095643867947" cy="59.959763298893414" style="fill: rgb(251, 163, 94);"/><circle class="result" r="7.857142857142858" cx="659.8476946454399" cy="267.7332760616601" style="fill: rgb(251, 163, 94);"/><circle class="result" r="7.857142857142858" cx="678.7523596443096" cy="323.4265599955279" style="fill: rgb(251, 163, 94);"/><circle class="result" r="7.857142857142858" cx="686.4508430776189" cy="309.72721226152" style="fill: rgb(251, 163, 94);"/><circle class="result" r="7.857142857142858" cx="60.02532494289614" cy="59.97836403911477" style="fill: rgb(251, 163, 94);"/><circle class="result" r="6.428571428571429" cx="719.7264233666674" cy="267.7848149305153" style="fill: rgb(225, 82, 74);"/><circle class="result" r="6.428571428571429" cx="697.4756717793919" cy="212.0703630787546" style="fill: rgb(225, 82, 74);"/><circle class="result" r="6.428571428571429" cx="779.7623656453491" cy="163.91067037022327" style="fill: rgb(225, 82, 74);"/><circle class="result" r="6.428571428571429" cx="774.1641659548551" cy="53.65770911152179" style="fill: rgb(225, 82, 74);"/><circle class="result" r="5" cx="239.95948508003124" cy="59.986584572092355" style="fill: rgb(158, 1, 66);"/><circle class="result" r="5" cx="119.91397483097795" cy="60.021570539315015" style="fill: rgb(158, 1, 66);"/><circle class="result" r="5" cx="682.8674972176123" cy="412.6327305084206" style="fill: rgb(158, 1, 66);"/><circle class="result" r="5" cx="795.8605387222835" cy="704.9486387795757" style="fill: rgb(158, 1, 66);"/><circle class="result" r="5" cx="802.2493484600093" cy="423.98472791750896" style="fill: rgb(158, 1, 66);"/><circle class="result" r="13.571428571428571" cx="97.27752115583456" cy="622.5932028472079" style="fill: rgb(75, 160, 177);"/><circle class="result" r="13.571428571428571" cx="119.88122463916598" cy="579.4819830597559" style="fill: rgb(75, 160, 177);"/><circle class="result" r="13.571428571428571" cx="59.965419864414855" cy="267.7329963372618" style="fill: rgb(75, 160, 177);"/><circle class="result" r="12.142857142857142" cx="150.00123854726826" cy="215.82246561951376" style="fill: rgb(160, 217, 163);"/><circle class="result" r="12.142857142857142" cx="59.946995832518844" cy="475.56190650818974" style="fill: rgb(160, 217, 163);"/><circle class="result" r="12.142857142857142" cx="479.8913266135278" cy="579.3361227800614" style="fill: rgb(160, 217, 163);"/></g></svg>